<?xml version="1.0" standalone="no"?>
<!DOCTYPE svg PUBLIC "-//W3C//DTD SVG 20010904//EN"
 "http://www.w3.org/TR/2001/REC-SVG-20010904/DTD/svg10.dtd">
<svg version="1.0" xmlns="http://www.w3.org/2000/svg"
 width="700.000000pt" height="700.000000pt" viewBox="0 0 700.000000 700.000000"
 preserveAspectRatio="xMidYMid meet">
<metadata>
Created by potrace 1.14, written by Peter Selinger 2001-2017
</metadata>
<g transform="translate(0.000000,700.000000) scale(0.100000,-0.100000)"
fill="#000000" stroke="none">
<path d="M5519 6996 c-2 -2 -29 -7 -59 -10 -176 -17 -400 -100 -546 -202 -266
-186 -424 -595 -366 -949 16 -95 14 -87 37 -155 95 -281 319 -421 680 -422
170 -1 266 31 360 118 28 25 67 57 87 70 45 28 81 76 98 127 10 32 9 46 -5 90
-10 29 -19 85 -20 125 -2 41 -6 88 -9 106 -11 60 -69 91 -136 72 -45 -13 -90
-99 -90 -174 0 -63 -68 -164 -135 -200 -107 -57 -217 -39 -313 50 -107 99
-120 264 -34 418 80 143 229 221 432 225 281 7 505 -129 589 -355 28 -76 32
-100 36 -220 6 -171 -28 -337 -100 -480 -29 -58 -115 -190 -143 -219 -9 -10
-35 -37 -57 -62 -95 -105 -260 -232 -450 -346 -121 -72 -344 -182 -440 -216
-76 -27 -268 -72 -350 -82 -27 -3 -63 -8 -80 -10 -164 -25 -655 -25 -1045 0
-25 1 -101 6 -170 10 -69 4 -143 9 -165 11 -90 10 -574 12 -630 3 -141 -22
-239 -73 -345 -179 -123 -124 -215 -295 -259 -485 l-12 -51 -92 24 c-232 59
-455 47 -622 -33 -106 -51 -267 -187 -505 -426 -104 -104 -145 -147 -275 -290
-32 -35 -161 -190 -203 -244 -78 -101 -82 -115 -83 -260 -1 -151 12 -282 41
-430 6 -27 12 -59 14 -70 44 -225 215 -666 316 -815 132 -194 406 -362 695
-425 480 -106 933 11 1107 285 40 62 78 189 78 257 0 31 3 54 6 50 8 -8 8
-112 -1 -167 -41 -269 -272 -498 -570 -566 -91 -20 -341 -27 -435 -11 -72 12
-259 63 -335 91 -107 40 -300 138 -414 211 -57 36 -105 65 -107 65 -3 0 -21
-35 -40 -77 -160 -351 -325 -640 -423 -740 l-31 -33 1975 0 c1086 0 1975 3
1975 8 0 4 -6 16 -13 27 -60 89 -150 293 -197 445 -48 161 -49 163 -54 195 -5
28 -9 45 -21 105 -2 14 -7 48 -11 75 -3 28 -8 59 -10 70 -12 64 -24 349 -16
391 3 15 24 29 82 53 92 37 235 122 337 198 148 111 338 325 465 523 135 211
193 293 230 325 81 69 204 121 475 199 140 41 201 67 239 104 22 23 25 33 21
68 -8 78 -87 150 -245 225 -50 24 -91 46 -92 49 0 3 25 11 55 18 75 18 291 91
400 136 196 81 435 223 605 359 96 76 291 273 355 357 28 36 52 67 55 70 30
29 230 366 230 387 0 3 11 28 23 56 56 122 115 327 132 452 l7 50 -59 -85
c-334 -486 -678 -801 -1025 -939 -91 -37 -111 -39 -72 -9 153 119 470 456 558
593 11 16 23 34 28 40 32 37 110 172 173 300 72 146 141 334 164 445 6 30 14
66 17 80 3 14 7 41 9 60 3 19 9 64 14 100 9 67 7 365 -3 410 -3 13 -8 40 -11
60 -48 320 -187 579 -405 755 -59 47 -201 135 -219 135 -5 0 -22 7 -39 15 -35
18 -179 61 -232 69 -19 3 -48 9 -65 12 -37 7 -310 16 -316 10z m-1768 -3176
c69 -29 98 -136 53 -197 -29 -41 -104 -74 -178 -80 -78 -7 -236 14 -236 31 0
16 56 104 89 140 50 54 154 109 218 114 15 1 40 -3 54 -8z"/>
</g>
</svg>
