<svg xmlns="http://www.w3.org/2000/svg" version="1.1" xmlns:xlink="http://www.w3.org/1999/xlink" xmlns:svgjs="http://svgjs.com/svgjs" width="512" height="512" x="0" y="0" viewBox="0 0 512 512" style="enable-background:new 0 0 512 512" xml:space="preserve" class=""><g><path d="M256 477.153c-43.719 0-74.296-10.617-106.669-21.858-37.504-13.023-76.285-26.489-141.831-26.489a7.5 7.5 0 0 1 0-15c68.076 0 109.874 14.514 146.751 27.318 60.56 21.028 80.567 21.028 101.749 21.028 41.188 0 70.604-10.214 101.748-21.028 36.878-12.805 78.676-27.318 146.752-27.318 4.143 0 7.5 3.358 7.5 7.5s-3.357 7.5-7.5 7.5c-65.546 0-104.327 13.466-141.831 26.488-32.373 11.242-62.95 21.859-106.669 21.859zm76.756-57.76c-39.998 0-66.645-13.387-76.756-19.522-10.111 6.135-36.758 19.522-76.756 19.522-53.573 0-105.9-18.825-169.667-61.038a7.5 7.5 0 0 1 .667-12.901c15.857-8.285 32.999-15.979 50.033-22.468-9.646-11.455-18.629-24.109-26.683-37.645a7.5 7.5 0 0 1 12.89-7.67c15.23 25.598 33.893 47.788 53.971 64.173 30.257 24.691 74.498 38.171 134.829 41.006-20.942-19.053-36.666-37.246-47.796-55.257a7.5 7.5 0 0 1 12.761-7.885c10.821 17.513 26.469 35.368 47.606 54.282-1.32-19.695-4.616-36.732-9.982-51.729-8.17-22.833-21.127-41.265-39.612-56.348-5.387-4.396-11.12-8.61-17.121-12.632-.033 1.319-.049 2.63-.049 3.935 0 10.872 1.723 21.805 5.121 32.496a7.499 7.499 0 0 1-4.875 9.419 7.499 7.499 0 0 1-9.419-4.875c-3.866-12.162-5.826-24.624-5.826-37.04 0-4.28.163-8.625.486-13.026-47.677-27.766-107.531-44.644-150.773-48.068 2.167 16.327 7.866 35.224 16.406 54.177a7.5 7.5 0 0 1-3.757 9.919 7.498 7.498 0 0 1-9.919-3.757C7.587 232.165 1.182 208.682.014 188.551a7.499 7.499 0 0 1 7.778-7.93c27.348 1.058 59.441 7.284 91.476 17.672.575-28.496 5.82-55.216 15.021-76.085a7.502 7.502 0 0 1 9.553-3.976c21.554 8.282 45.298 21.716 67.519 38.147.151-.315.301-.629.454-.945 15.604-32.403 36.622-61.395 59.18-81.635a7.5 7.5 0 0 1 10.018 0c4.614 4.141 9.251 8.754 13.779 13.713a7.501 7.501 0 0 1-11.076 10.116 191.237 191.237 0 0 0-7.719-7.983c-19.232 18.651-37.068 44.058-50.667 72.297-12.18 25.292-19.949 50.599-22.896 74.303 9.174 5.753 17.646 11.787 25.315 18.044 27.149 22.154 41.191 49.519 48.393 76.223 8.619-31.82 24.567-57.004 48.118-76.223a7.5 7.5 0 0 1 10.553 1.069 7.5 7.5 0 0 1-1.068 10.553c-29.771 24.294-46.061 59.73-49.545 107.998 44.859-40.396 66.715-78.68 66.715-116.694 0-40.802-18.134-92.337-47.325-134.493a7.5 7.5 0 0 1 12.332-8.54 307.028 307.028 0 0 1 24.547 42.329c22.271-16.492 46.083-29.975 67.697-38.28a7.5 7.5 0 0 1 9.553 3.976c9.226 20.925 14.475 47.733 15.025 76.314 31.639-10.319 63.902-16.835 91.472-17.901a7.536 7.536 0 0 1 5.645 2.243 7.503 7.503 0 0 1 2.133 5.687c-1.477 25.424-10.977 55.693-26.75 85.23-9.563 17.909-20.827 34.509-33.358 49.261 16.982 6.479 34.07 14.15 49.878 22.41a7.501 7.501 0 0 1 .666 12.901c-10.429 6.904-20.164 12.951-29.76 18.487a7.5 7.5 0 0 1-7.496-12.993 514.837 514.837 0 0 0 18.059-10.932 460.797 460.797 0 0 0-42.18-17.91c-6.419 6.646-13.108 12.818-20.018 18.457-38.698 31.578-90.422 41.154-133.935 43.909 11.744 3.812 27.13 7.018 45.662 7.018 33.41 0 67.104-8.209 103.006-25.098a7.5 7.5 0 0 1 6.384 13.573c-37.948 17.854-73.73 26.53-109.396 26.53zM28.78 352.916c56.235 35.53 103.05 51.477 150.464 51.477 18.663 0 34.136-3.251 45.911-7.099-58.925-3.956-103.009-18.39-134.182-43.828-6.829-5.573-13.497-11.763-19.935-18.488a460.626 460.626 0 0 0-42.258 17.938zm316.629-108.564c.332 4.362.5 8.653.5 12.865 0 41.764-22.703 83.012-69.274 125.656 60.98-2.75 104.18-15.953 134.909-41.029 48.876-39.884 78.997-102.639 84.659-145.729-47.131 3.663-106.184 22.468-150.794 48.237zm-18.676-73.796c8.053 19.359 13.762 38.932 16.757 57.657 16.755-9.233 35.253-17.528 54.297-24.511.019-25.413-3.854-49.388-11.062-68.698-19.401 8.295-40.352 20.701-59.992 35.552zm-212.52 32.893c19.564 7.149 37.806 15.419 54.235 24.548 2.92-18.662 8.521-38.073 16.639-57.577-19.588-14.792-40.471-27.147-59.812-35.416-7.183 19.246-11.055 43.125-11.062 68.445zM256 50.847c-4.411 0-8-3.589-8-8s3.589-8 8-8 8 3.589 8 8-3.589 8-8 8z" fill="#ab8756" data-original="#000000" class="" opacity="1"></path></g></svg>