<svg xmlns="http://www.w3.org/2000/svg" xmlns:xlink="http://www.w3.org/1999/xlink" viewBox="0 0 136.8 137.17"><defs><style>.cls-1{fill:url(#linear-gradient);}.cls-2{fill:#f7d782;}</style><linearGradient id="linear-gradient" x1="11.54" y1="145.34" x2="127.26" y2="7.43" gradientUnits="userSpaceOnUse"><stop offset="0" stop-color="#bf9440"/><stop offset="0.11" stop-color="#9f6928"/><stop offset="0.2" stop-color="#a36e2c"/><stop offset="0.32" stop-color="#ae7e39"/><stop offset="0.45" stop-color="#c1974f"/><stop offset="0.59" stop-color="#dbba6c"/><stop offset="0.67" stop-color="#ecd280"/><stop offset="0.78" stop-color="#fce694"/><stop offset="1" stop-color="#f3cd77"/></linearGradient></defs><g id="Layer_2" data-name="Layer 2"><g id="Layer_2-2" data-name="Layer 2"><path class="cls-1" d="M136,42.32C123,61.67,111.75,61.91,111.75,61.91c21.93-17,23.79-36.39,18.67-49S108.72-2.7,97.53,3.83s-11.2,26.59,0,29.16,12.35-2.57,13.52-2.81,2.81-2.8,1.87-4,.47-5.37-1.64-5.6S109,23,109,24.12s-1.86,4.43-5.36,4.66-8.87-4.42-4.67-11.19S119,12,120.15,23.65,113.86,44,98.46,51,52.74,50,45.51,54s-8.39,13.3-8.39,13.3-7.94-3.27-14.47,0c-3,1.49-14.73,12.7-20,20.42,0,0-1.81,11.06,6,26.82S55,128.87,43.22,105.71c11,13-5.76,34-33.4,15.46,0,0-5.56,12.39-8.62,15.5H76.43c-7.25-12.1-6-26-6-26C83.15,106,87.5,95.73,91.23,90.59s15.62-4.89,15.39-7.92-8.16-5.6-8.16-5.6C132.28,69.6,136,42.32,136,42.32ZM65.57,67.63a8.58,8.58,0,0,1,6.07-6C76.54,60.51,78.4,71,65.57,67.63Z"/><path class="cls-2" d="M77.31,137.17H0l.84-.86c3-3,8.47-15.22,8.52-15.35l.25-.54.49.33c16,10.75,27.71,7.87,32.83,2.13a12.12,12.12,0,0,0,2.79-11.54,10.79,10.79,0,0,1-1.41,8c-2.77,4.21-9.11,6.56-16.56,6.11-8.91-.53-16.59-4.74-19.56-10.71C.36,99,2,88.07,2.11,87.62l.08-.21c5.18-7.51,17-19,20.24-20.58,5.7-2.85,12.3-.93,14.29-.24.4-2.2,2.18-9.56,8.55-13.05,3.22-1.76,10.63-1.28,19.21-.72,11.17.72,25.06,1.63,33.77-2.33,15.72-7.14,22.52-15.66,21.4-26.79-.47-4.74-3.69-8.26-8.6-9.39s-9.73.37-11.7,3.55c-1.7,2.73-1.92,5.42-.63,7.57a5.66,5.66,0,0,0,4.83,2.85,5.51,5.51,0,0,0,4.9-4.16,4.93,4.93,0,0,1,1.11-3.48,2.2,2.2,0,0,1,1.78-.51c1.71.18,1.71,2.13,1.71,3.69a4.56,4.56,0,0,0,.26,2.09,2.29,2.29,0,0,1,.17,2.29,3.93,3.93,0,0,1-2.33,2.47,3.06,3.06,0,0,0-.56.53c-1.31,1.42-4,4.37-13.18,2.27-4.5-1-7.71-5-8.56-10.59-1-6.65,1.55-15.47,8.42-19.48A26.31,26.31,0,0,1,118.4,1.31a20.16,20.16,0,0,1,12.48,11.43C136,25.26,134,44.38,113.61,61.06c3.69-1,12.35-4.74,22-19l1.2-1.78-.29,2.12c0,.28-4,26.82-36.3,34.8,2.45,1,6.72,3,6.91,5.45.14,1.82-2.52,2.56-5.87,3.5s-7.72,2.16-9.61,4.76c-.67.91-1.38,2-2.12,3.2-3.49,5.5-8.25,13-18.65,16.92-.12,2.12-.5,14.58,6,25.4Zm-75-1H75.56c-6.76-11.92-5.68-25.42-5.66-25.56l0-.31.3-.11c10.29-3.77,15-11.2,18.45-16.64.76-1.19,1.47-2.31,2.16-3.25,2.09-2.88,6.56-4.13,10.15-5.13,2.56-.72,5.22-1.46,5.14-2.46-.17-2.22-5.7-4.48-7.82-5.16L96.55,77l1.8-.39c27.14-6,34.74-25.07,36.61-31.89C122.54,62,112.21,62.4,111.76,62.41l-1.51,0,1.19-.92C132.85,44.89,135,25.61,130,13.12A19.12,19.12,0,0,0,118.08,2.26a25.26,25.26,0,0,0-20.3,2c-6.49,3.79-8.9,12.16-7.94,18.47.8,5.26,3.64,8.82,7.8,9.77,8.57,2,11-.7,12.22-2a2.29,2.29,0,0,1,1.09-.83,3,3,0,0,0,1.59-1.84,1.37,1.37,0,0,0,0-1.31,4.63,4.63,0,0,1-.48-2.72c0-1.58-.06-2.62-.82-2.7a1.2,1.2,0,0,0-1,.27,4.14,4.14,0,0,0-.78,2.73c0,1.39-2,4.91-5.83,5.16A6.67,6.67,0,0,1,97.86,26c-.86-1.45-1.93-4.48.64-8.62,2.19-3.53,7.56-5.21,12.78-4s8.85,5.08,9.37,10.27c1.16,11.62-5.83,20.45-22,27.8-8.93,4.06-23,3.15-34.25,2.41-8.42-.54-15.7-1-18.66.61-6.92,3.79-8.13,12.83-8.14,12.92l-.08.65-.6-.25c-.08,0-7.81-3.14-14,0C20.06,69.13,8.52,80,3.08,87.88c-.15,1.18-1.26,11.82,6,26.42C11.9,120,19.25,124,27.81,124.46c7.1.43,13.09-1.75,15.66-5.66,2.15-3.28,1.91-7.73-.69-12.87l-1.92-3.78,2.75,3.23c4.67,5.52,4.7,13,.07,18.17-5.34,6-17.33,9.08-33.65-1.64C9,124.15,5.07,132.61,2.29,136.17ZM70.14,68.82a18.59,18.59,0,0,1-4.7-.7L65,68l.12-.48a9,9,0,0,1,6.44-6.32,3.38,3.38,0,0,1,3.68,1.42,3.69,3.69,0,0,1,0,4.19C74.57,67.67,73.18,68.82,70.14,68.82ZM66.2,67.28c5.69,1.38,7.6-.27,8.17-1.06a2.69,2.69,0,0,0,0-3,2.38,2.38,0,0,0-2.62-1A7.88,7.88,0,0,0,66.2,67.28Z"/></g></g></svg>