<svg xmlns="http://www.w3.org/2000/svg" version="1.1" xmlns:xlink="http://www.w3.org/1999/xlink" xmlns:svgjs="http://svgjs.com/svgjs" width="512" height="512" x="0" y="0" viewBox="0 0 509.833 509.833" style="enable-background:new 0 0 512 512" xml:space="preserve" class=""><g><path d="M259.542 509.833c-20.335 0-39.201-8.163-53.123-22.986-13.921-14.822-20.887-34.163-19.613-54.458l.917-14.611a7.5 7.5 0 0 1 14.971.939l-.917 14.611c-1.012 16.118 4.52 31.478 15.576 43.249 11.056 11.772 26.039 18.255 42.188 18.255 27.109 0 50.3-18.449 56.396-44.864l3.761-16.295a218.57 218.57 0 0 0 2.594-13.153 7.492 7.492 0 0 1 8.631-6.166 7.5 7.5 0 0 1 6.166 8.63 233.287 233.287 0 0 1-2.775 14.062l-3.761 16.296c-7.675 33.262-36.876 56.491-71.011 56.491zM197.223 393.787a7.501 7.501 0 0 1-7.493-7.97l.95-15.128a258.981 258.981 0 0 0-1.939-51.54 7.501 7.501 0 0 1 14.86-2.052 273.94 273.94 0 0 1 2.05 54.531l-.95 15.128a7.502 7.502 0 0 1-7.478 7.031zM472.26 416.612a7.498 7.498 0 0 1-6.66-4.042l-27.57-53.021a23.324 23.324 0 0 1-2.62-10.719v-27.114c0-4.142 3.357-7.5 7.5-7.5s7.5 3.358 7.5 7.5v27.114c0 1.317.321 2.63.928 3.798l27.571 53.022a7.5 7.5 0 0 1-6.649 10.962zM117.709 360.194a7.5 7.5 0 0 1-6.024-11.961l30.474-41.197a7.508 7.508 0 0 1 2.869-2.341l10.489-4.875a77.763 77.763 0 0 0 31.552-26.853 7.5 7.5 0 0 1 12.411 8.422 92.764 92.764 0 0 1-37.642 32.033l-8.756 4.07-29.338 39.661a7.488 7.488 0 0 1-6.035 3.041z" fill="#ffffff" data-original="#000000" class="" opacity="1"></path><path d="m437.971 234.759-79.407-67.822c.112-13.227-2.92-26.198-8.917-38.062.292-.119.586-.233.876-.36a38.195 38.195 0 0 0 22.266-28.446c1.398-8.021-.939-16.079-6.415-22.105-5.476-6.025-13.269-9.119-21.391-8.499-.838.065-1.668.182-2.493.327-.051-.51-.091-1.02-.161-1.531-1.225-8.972-6.422-16.721-14.258-21.259-7.099-4.112-15.406-5.022-23.148-2.626-2.817-8.356-9.131-14.892-17.422-17.978-6.643-2.473-13.77-2.434-20.246-.024a49.846 49.846 0 0 0-4.032-6.994c-5.87-8.46-15.134-13.632-25.416-14.189-8.279-.449-16.226 2.155-22.532 7.247l-.044-.051A37.955 37.955 0 0 0 187.214 0c-13.071 0-25.043 6.598-32.023 17.649-6.981 11.051-7.796 24.696-2.182 36.499l1.411 2.965a60.391 60.391 0 0 1 4.152 11.704l-81.438 69.006a50.008 50.008 0 0 0-17.709 38.218v80.254c0 1.317-.321 2.63-.929 3.799l-27.571 53.021a7.5 7.5 0 1 0 13.309 6.919l27.57-53.021a23.331 23.331 0 0 0 2.621-10.719V176.04a35.03 35.03 0 0 1 12.407-26.774l73.288-62.1a60.185 60.185 0 0 1-.351 3.639l-2.06 15.851a329.913 329.913 0 0 0-.756 6.358l-27.146 32.432a18.279 18.279 0 0 0-4.027 14.68l9.726 59.729a16.528 16.528 0 0 0 16.376 13.926h11.476c5.794 0 11.246-3.086 14.228-8.056l15.83-26.383a11.432 11.432 0 0 1 7.378-5.323 11.43 11.43 0 0 1 8.941 1.68l1.38.926a11.543 11.543 0 0 1 4.174 14.121l-14.644 34.175a7.501 7.501 0 0 0 13.788 5.908l14.644-34.175c5.021-11.718.982-25.379-9.603-32.483l-1.379-.926c-6.097-4.091-13.401-5.465-20.568-3.865s-13.194 5.949-16.972 12.245l-15.83 26.382a1.6 1.6 0 0 1-1.366.774h-11.476a1.587 1.587 0 0 1-1.572-1.337l-9.726-59.729a3.287 3.287 0 0 1 .725-2.642l13.813-16.503c-.43 13-.108 26.031.98 38.982a7.494 7.494 0 0 0 8.101 6.846 7.5 7.5 0 0 0 6.846-8.101 319.187 319.187 0 0 1 1.535-67.709l2.06-15.851a75.292 75.292 0 0 0-.437-22.329c-.015-.088-.034-.175-.049-.263a75.31 75.31 0 0 0-6.191-19.476l-1.41-2.965c-3.392-7.129-2.899-15.371 1.317-22.045S179.319 15 187.214 15c6.523 0 12.532 2.657 16.922 7.482s6.468 11.058 5.854 17.552l-.397 4.199a44.51 44.51 0 0 0 3.615 22.194c6.113 13.788 18.651 23.454 33.541 25.856l38.994 6.292c10.315 1.664 19.875 5.542 28.183 11.298.257.208.526.398.805.568 6.351 4.538 11.949 10.184 16.548 16.811.158.228.301.464.456.694l.03.045c10.369 15.345 14.091 33.754 10.452 51.952l-15.275 76.391a7.5 7.5 0 0 0 7.363 8.972 7.504 7.504 0 0 0 7.347-6.031l7.066-35.334 19.992 23.885c.499.597.714 1.379.589 2.146l-9.65 59.268a2.466 2.466 0 0 1-2.443 2.078H346.98c-.864 0-1.678-.46-2.122-1.202l-15.095-25.157c-3.903-6.506-10.132-11-17.536-12.653s-14.954-.235-21.255 3.994c-10.938 7.341-15.11 21.458-9.922 33.564l20.656 48.208a93.501 93.501 0 0 0 46.598 48.029l8.45 3.927 29.339 39.661a7.49 7.49 0 0 0 6.035 3.04 7.5 7.5 0 0 0 6.023-11.961l-30.475-41.197a7.497 7.497 0 0 0-2.868-2.341l-10.183-4.732a78.525 78.525 0 0 1-39.133-40.335l-20.656-48.208a12.428 12.428 0 0 1 4.494-15.202 12.306 12.306 0 0 1 9.627-1.809 12.3 12.3 0 0 1 7.941 5.731l15.095 25.157c3.14 5.234 8.882 8.485 14.985 8.485h10.226c8.61 0 15.864-6.168 17.248-14.667l9.65-59.27a17.663 17.663 0 0 0-3.892-14.183l-27.722-33.12 4.032-20.162 71.71 61.248a20.455 20.455 0 0 1 7.181 15.575v28.014c0 4.142 3.357 7.5 7.5 7.5s7.5-3.358 7.5-7.5V261.74a35.442 35.442 0 0 0-12.44-26.981zM346.136 84.42a11.107 11.107 0 0 1 9.136 3.63 11.11 11.11 0 0 1 2.74 9.442 23.224 23.224 0 0 1-13.538 17.296c-.975.43-1.981.754-3.008.993a84.276 84.276 0 0 0-10.831-11.773 42.994 42.994 0 0 0 10.375-17.875 11.225 11.225 0 0 1 5.126-1.713zm-25.581-24.438a14.031 14.031 0 0 1 6.913 10.308c.448 3.278.3 6.549-.37 9.686-.037.148-.064.298-.092.448a28.042 28.042 0 0 1-8.543 14.513 83.046 83.046 0 0 0-21.534-9.264c.209-.245.425-.483.626-.733a43.014 43.014 0 0 0 9.508-25.312 14.03 14.03 0 0 1 13.492.354zm-38.286-19.526a14.029 14.029 0 0 1 8.547 9.001 28.191 28.191 0 0 1 1.248 6.797l.004.068a28.044 28.044 0 0 1-6.19 19.202 21.017 21.017 0 0 1-7.332 5.775l-1.45.686-16.998-2.743a41.42 41.42 0 0 0 8.506-13.277 49.607 49.607 0 0 0 2.99-25.163 14.015 14.015 0 0 1 10.675-.346zM226.92 60.347a29.487 29.487 0 0 1-2.394-14.701l.397-4.199a37.883 37.883 0 0 0-1.884-15.828c3.65-3.76 8.676-5.737 13.957-5.451a17.999 17.999 0 0 1 13.902 7.761 34.679 34.679 0 0 1 5.033 10.927c.054.253.122.503.203.75a34.62 34.62 0 0 1-1.48 20.844 26.31 26.31 0 0 1-6.606 9.626l-5.846 5.385a29.314 29.314 0 0 1-15.282-15.114z" fill="#ffffff" data-original="#000000" class="" opacity="1"></path><path d="M253.005 329.703a7.5 7.5 0 0 1-6.641-4.003c-4.854-9.206-7.419-19.605-7.419-30.074 0-18.29 7.806-35.797 21.417-48.032a7.5 7.5 0 0 1 10.592.564 7.499 7.499 0 0 1-.564 10.591 49.658 49.658 0 0 0-16.444 36.876c0 8.041 1.967 16.021 5.688 23.078a7.499 7.499 0 0 1-3.136 10.132 7.467 7.467 0 0 1-3.493.868zM291.712 247.278a7.502 7.502 0 0 1-7.332-5.96 7.498 7.498 0 0 1 5.798-8.881 65.413 65.413 0 0 1 25.051-.319 7.5 7.5 0 0 1-2.707 14.754 50.328 50.328 0 0 0-19.26.245 7.543 7.543 0 0 1-1.55.161zM256.599 226.492a7.5 7.5 0 0 1-7.11-9.892 45.659 45.659 0 0 0 2.373-14.585c0-25.211-20.511-45.722-45.722-45.722-3.108 0-6.211.312-9.223.929-4.057.834-8.021-1.786-8.851-5.844a7.499 7.499 0 0 1 5.844-8.851 61.157 61.157 0 0 1 12.23-1.233c33.482 0 60.722 27.24 60.722 60.722a60.654 60.654 0 0 1-3.155 19.365 7.504 7.504 0 0 1-7.108 5.111z" fill="#ffffff" data-original="#000000" class="" opacity="1"></path></g></svg>