<svg xmlns="http://www.w3.org/2000/svg" version="1.1" xmlns:xlink="http://www.w3.org/1999/xlink" xmlns:svgjs="http://svgjs.com/svgjs" width="512" height="512" x="0" y="0" viewBox="0 0 300 300" style="enable-background:new 0 0 512 512" xml:space="preserve" class=""><g><path d="M203.279 218.195 174 210.876v-8.097a60.178 60.178 0 0 0 10.604-4.68l.818-.463c12.693-7.148 20.578-20.648 20.578-35.23v-.44c4.737-.177 8.723-3.448 9.77-8.158l10.42-49.779c.086-.42.107-.85.059-1.273L222 65.494V34a4 4 0 0 0-8 0v31.721c0 .152.008.303.025.453l4.201 36.848-10.277 49.1c-.203.912-.895 1.6-1.885 1.803-.064-.712-.064-1.704-.064-2.325V108.583c0-4.078-2.002-7.965-5.639-10.945-4.402-3.607-10.557-5.279-15.693-4.25l-13.633 2.727a3.366 3.366 0 0 1-3.023-.916c-1.656-1.656-2.359-3.529-2.291-4.188l6.846-1.818c.182-.047.361-.109.535-.184C185.797 83.621 194 70.9 194 56.6V34a4 4 0 0 0-8 0v22.6c0 6.299-1.978 12.035-5.405 16.638A52.318 52.318 0 0 0 154 66h-30.433c-1.007-2.935-1.6-6.08-1.6-9.4V34a4 4 0 0 0-8 0v22.6c0 14.299 8.203 27.021 20.896 32.408.174.074.354.137.535.184l6.885 1.828c0 .725-.707 2.555-2.328 4.178a3.354 3.354 0 0 1-3.023.916l-13.633-2.727c-5.143-1.029-11.291.643-15.695 4.25-3.635 2.98-5.637 6.867-5.637 10.945V151.6c0 .631 0 1.643-.068 2.357-.926-.178-1.668-.877-1.869-1.789l-10.291-49.146 4.203-36.848c.018-.15.025-.301.025-.453V34a4 4 0 0 0-8 0v31.494l-4.25 37.262c-.049.424-.027.854.059 1.273l10.434 49.826c1.038 4.676 5.042 7.953 9.795 8.114a40.372 40.372 0 0 0 21.285 35.565l2.15 1.154c2.759 1.482 5.637 2.656 8.561 3.683v8.504l-29.279 7.319c-11.023 2.758-19.586 11.738-21.814 22.881l-4.828 24.139a3.992 3.992 0 0 0 .828 3.32A3.988 3.988 0 0 0 82 270h144a3.998 3.998 0 0 0 3.922-4.785l-4.828-24.139c-2.229-11.142-10.791-20.123-21.815-22.881zm-90.603-114.371c2.543-2.086 6.266-3.152 9.053-2.594l13.633 2.727c3.715.75 7.561-.412 10.25-3.104 2.609-2.609 5.182-6.902 4.574-11.125-.363-2.525-1.832-4.609-4.137-5.867a4.113 4.113 0 0 0-.889-.354l-7.424-1.973c-3.937-1.719-7.229-4.332-9.801-7.535H154c7.245 0 14.28 1.749 20.593 5.044-1.365.942-2.797 1.807-4.364 2.491l-7.422 1.973a4.033 4.033 0 0 0-.889.354c-2.305 1.258-3.773 3.34-4.137 5.867-.609 4.223 1.963 8.516 4.572 11.123a11.305 11.305 0 0 0 10.252 3.105l13.633-2.727c2.789-.562 6.51.508 9.053 2.594 1.012.83 2.709 2.551 2.709 4.758v2.658a27.398 27.398 0 0 1-12 2.76c-8.359 0-15.994-3.57-20.422-9.551a4.001 4.001 0 0 0-2.812-1.602 3.98 3.98 0 0 0-3.076 1.006C152.406 110.396 142.572 114 132 114c-7.933 0-15.45-2.126-21.925-6.019.276-1.906 1.686-3.407 2.601-4.157zm14.398 86.664A32.39 32.39 0 0 1 110 161.912v-44.768c0-.023-.012-.042-.013-.064C116.722 120.3 124.214 122 132 122c11.098 0 21.557-3.387 29.883-9.611C167.916 118.467 176.646 122 186 122c4.162 0 8.204-.768 12-2.116v42.523c0 11.697-6.324 22.527-16.506 28.262l-.818.463c-15.779 8.883-35.494 9.086-51.451.512zm27.401 15.44c3.862 0 7.723-.362 11.525-1.077v6.031c0 6.131-4.988 11.119-11.119 11.119h-1.762c-6.131 0-11.119-4.988-11.119-11.119v-6.316c4.113.841 8.286 1.362 12.475 1.362zM86.879 262l3.871-19.354c1.627-8.129 7.871-14.68 15.912-16.689l29.049-7.262c2.997 6.647 9.655 11.305 17.408 11.305h1.762c7.753 0 14.411-4.657 17.408-11.304l29.049 7.261c8.041 2.01 14.285 8.561 15.912 16.689L221.121 262z" fill="#ffffff" data-original="#000000" opacity="1"></path><circle cx="250" cy="166" r="4" fill="#ffffff" data-original="#000000" opacity="1"></circle><path d="M256 58c-7.719 0-14 6.281-14 14s6.281 14 14 14 14-6.281 14-14-6.281-14-14-14zm0 20c-3.309 0-6-2.691-6-6s2.691-6 6-6 6 2.691 6 6-2.691 6-6 6zM162.824 160.033a4.002 4.002 0 0 0-5.627.58 4.468 4.468 0 0 1-3.842 1.627 4.415 4.415 0 0 1-3.016-1.574 4 4 0 1 0-6.133 5.137 12.361 12.361 0 0 0 8.439 4.406 12.435 12.435 0 0 0 10.757-4.549 3.996 3.996 0 0 0-.578-5.627zM133.197 133.613a4.459 4.459 0 0 1-3.842 1.627 4.415 4.415 0 0 1-3.016-1.574 4 4 0 1 0-6.133 5.137 12.361 12.361 0 0 0 8.439 4.406 12.435 12.435 0 0 0 10.757-4.549c1.395-1.713 1.135-4.232-.58-5.627s-4.228-1.135-5.625.58zM176.646 143.209a12.435 12.435 0 0 0 10.757-4.549 3.998 3.998 0 0 0-.58-5.627 3.998 3.998 0 0 0-5.627.58 4.468 4.468 0 0 1-3.842 1.627 4.415 4.415 0 0 1-3.016-1.574 4 4 0 1 0-6.133 5.137 12.37 12.37 0 0 0 8.441 4.406zM58 178a4 4 0 0 0 4-4v-8a4 4 0 0 0-8 0v8a4 4 0 0 0 4 4zM58 186a4 4 0 0 0-4 4v8a4 4 0 0 0 8 0v-8a4 4 0 0 0-4-4zM50 178h-8a4 4 0 0 0 0 8h8a4 4 0 0 0 0-8zM74 178h-8a4 4 0 0 0 0 8h8a4 4 0 0 0 0-8z" fill="#ffffff" data-original="#000000" opacity="1"></path><circle cx="34" cy="114" r="4" fill="#ffffff" data-original="#000000" opacity="1"></circle></g></svg>