<svg xmlns="http://www.w3.org/2000/svg" version="1.1" xmlns:xlink="http://www.w3.org/1999/xlink" xmlns:svgjs="http://svgjs.com/svgjs" width="512" height="512" x="0" y="0" viewBox="0 0 64 64" style="enable-background:new 0 0 512 512" xml:space="preserve" class=""><g><g data-name="13-hygiene drop"><path d="M59 49a6.006 6.006 0 0 1-6-6 1 1 0 0 0-2 0 6.006 6.006 0 0 1-6 6 1 1 0 0 0 0 2 6.006 6.006 0 0 1 6 6 1 1 0 0 0 2 0 6.006 6.006 0 0 1 6-6 1 1 0 0 0 0-2Zm-7 4.13A8.056 8.056 0 0 0 48.87 50 8.056 8.056 0 0 0 52 46.87 8.056 8.056 0 0 0 55.13 50 8.056 8.056 0 0 0 52 53.13ZM1 9a6.006 6.006 0 0 1 6 6 1 1 0 0 0 2 0 6.006 6.006 0 0 1 6-6 1 1 0 0 0 0-2 6.006 6.006 0 0 1-6-6 1 1 0 0 0-2 0 6.006 6.006 0 0 1-6 6 1 1 0 0 0 0 2Zm7-4.13A8.063 8.063 0 0 0 11.13 8 8.063 8.063 0 0 0 8 11.13 8.063 8.063 0 0 0 4.87 8 8.063 8.063 0 0 0 8 4.87ZM47 32a1 1 0 0 0-1 1v1h-1a1 1 0 0 0 0 2h1v1a1 1 0 0 0 2 0v-1h1a1 1 0 0 0 0-2h-1v-1a1 1 0 0 0-1-1ZM29 16h1v1a1 1 0 0 0 2 0v-1h1a1 1 0 0 0 0-2h-1v-1a1 1 0 0 0-2 0v1h-1a1 1 0 0 0 0 2ZM20.94 12.658a1 1 0 0 0-1.88 0c-.039.108-4 10.865-9.767 16.635C3.3 35.285 0 38.586 0 47c0 8.241 7.009 17 20 17s20-8.759 20-17c0-8.414-3.3-11.715-9.293-17.707-5.77-5.77-9.728-16.527-9.767-16.635ZM20 62C8.309 62 2 54.271 2 47c0-7.586 2.729-10.314 8.707-16.293 4.439-4.439 7.757-11.395 9.293-15.014 1.536 3.619 4.854 10.575 9.293 15.014C35.271 36.686 38 39.414 38 47c0 7.271-6.309 15-18 15Z" fill="#ab8756" data-original="#000000" class="" opacity="1"></path><path d="M28 42h-4v-4a1 1 0 0 0-1-1h-6a1 1 0 0 0-1 1v4h-4a1 1 0 0 0-1 1v6a1 1 0 0 0 1 1h4v4a1 1 0 0 0 1 1h6a1 1 0 0 0 1-1v-4h4a1 1 0 0 0 1-1v-6a1 1 0 0 0-1-1Zm-1 6h-4a1 1 0 0 0-1 1v4h-4v-4a1 1 0 0 0-1-1h-4v-4h4a1 1 0 0 0 1-1v-4h4v4a1 1 0 0 0 1 1h4ZM29.186 56.685a1 1 0 0 0 1.394.234A12.381 12.381 0 0 0 36 47a1 1 0 0 0-2 0 10.383 10.383 0 0 1-4.58 8.29 1 1 0 0 0-.234 1.395ZM34 43h2v2h-2zM57.069 5.9A39.179 39.179 0 0 1 52.836.452a1.038 1.038 0 0 0-1.672 0A39.107 39.107 0 0 1 46.931 5.9C40.986 12.17 40 13.359 40 18.556 40 23.134 44.206 28 52 28s12-4.866 12-9.444c0-5.197-.986-6.386-6.931-12.656ZM52 26c-6.495 0-10-3.835-10-7.444 0-4.4.632-5.215 6.383-11.284A39.236 39.236 0 0 0 52 2.785a39.236 39.236 0 0 0 3.617 4.487C61.368 13.341 62 14.156 62 18.556 62 22.165 58.5 26 52 26Z" fill="#ab8756" data-original="#000000" class="" opacity="1"></path><path d="M59 17.556a1 1 0 0 0-1 1c0 .649-.505 1.968-2.4 2.793a1 1 0 0 0 .8 1.834c2.658-1.158 3.6-3.216 3.6-4.627a1 1 0 0 0-1-1ZM58 14h2v2h-2z" fill="#ab8756" data-original="#000000" class="" opacity="1"></path></g></g></svg>