<svg xmlns="http://www.w3.org/2000/svg" xmlns:xlink="http://www.w3.org/1999/xlink" viewBox="0 0 844.27 210.12"><defs><style>.cls-1{fill:url(#linear-gradient);}.cls-2{fill:#f7d782;}.cls-3{fill:#b18234;}</style><linearGradient id="linear-gradient" x1="437.75" y1="145.34" x2="553.47" y2="7.43" gradientUnits="userSpaceOnUse"><stop offset="0" stop-color="#bf9440"/><stop offset="0.11" stop-color="#9f6928"/><stop offset="0.2" stop-color="#a36e2c"/><stop offset="0.32" stop-color="#ae7e39"/><stop offset="0.45" stop-color="#c1974f"/><stop offset="0.59" stop-color="#dbba6c"/><stop offset="0.67" stop-color="#ecd280"/><stop offset="0.78" stop-color="#fce694"/><stop offset="1" stop-color="#f3cd77"/></linearGradient></defs><g id="Layer_2" data-name="Layer 2"><g id="Layer_2-2" data-name="Layer 2"><path class="cls-1" d="M562.22,42.32C549.16,61.67,538,61.91,538,61.91c21.93-17,23.79-36.39,18.67-49s-21.7-15.63-32.89-9.1-11.2,26.59,0,29.16,12.36-2.57,13.52-2.81,2.81-2.79,1.87-4,.47-5.37-1.64-5.6-2.33,2.34-2.33,3.5-1.86,4.43-5.36,4.66-8.87-4.42-4.66-11.19S545.2,12,546.36,23.65,540.07,44,524.67,51,479,50,471.73,54s-8.4,13.3-8.4,13.3-7.93-3.27-14.47,0c-3,1.49-14.73,12.7-20.05,20.42,0,0-1.8,11.06,6,26.82s46.32,14.35,34.59-8.81c11,13-5.76,34-33.41,15.46,0,0-5.55,12.39-8.62,15.5h75.23c-7.25-12.1-6-26-6-26,12.75-4.67,17.1-14.93,20.83-20.07s15.63-4.89,15.39-7.92-8.16-5.6-8.16-5.6C558.49,69.6,562.22,42.32,562.22,42.32ZM491.78,67.63a8.58,8.58,0,0,1,6.07-6C502.75,60.51,504.61,71,491.78,67.63Z"/><path class="cls-2" d="M503.52,137.17H426.21l.84-.86c3-3,8.47-15.22,8.53-15.35l.24-.54.49.33c16,10.75,27.71,7.87,32.83,2.13a12.13,12.13,0,0,0,2.79-11.55,10.8,10.8,0,0,1-1.41,8c-2.77,4.21-9.11,6.55-16.55,6.11-8.92-.53-16.59-4.74-19.57-10.71-7.82-15.73-6.15-26.68-6.08-27.13l.08-.21c5.18-7.51,17-19,20.24-20.58,5.7-2.85,12.3-.93,14.29-.24.4-2.2,2.19-9.56,8.56-13.05,3.21-1.76,10.62-1.28,19.2-.72,11.17.72,25.07,1.63,33.77-2.33,15.72-7.14,22.52-15.66,21.4-26.79-.47-4.74-3.68-8.26-8.59-9.39s-9.74.37-11.71,3.55c-1.7,2.73-1.92,5.42-.63,7.57a5.65,5.65,0,0,0,4.84,2.85,5.51,5.51,0,0,0,4.89-4.16,4.93,4.93,0,0,1,1.11-3.48,2.22,2.22,0,0,1,1.78-.52c1.71.19,1.71,2.14,1.71,3.7a4.56,4.56,0,0,0,.26,2.09,2.29,2.29,0,0,1,.17,2.29,3.93,3.93,0,0,1-2.33,2.47,2.78,2.78,0,0,0-.55.53c-1.32,1.42-4,4.37-13.18,2.27-4.51-1-7.71-5-8.57-10.59-1-6.65,1.56-15.47,8.43-19.48a26.25,26.25,0,0,1,21.12-2.08,20.11,20.11,0,0,1,12.48,11.42c5.1,12.52,3.13,31.64-17.26,48.33,3.68-1,12.34-4.75,22-19l1.2-1.78-.29,2.12c0,.28-4,26.82-36.3,34.8,2.45,1,6.72,3,6.91,5.45.14,1.82-2.51,2.56-5.87,3.5s-7.72,2.16-9.61,4.76c-.67.91-1.37,2-2.12,3.2-3.49,5.5-8.25,13-18.65,16.92-.11,2.12-.49,14.58,6,25.4Zm-75-1h73.27c-6.76-11.92-5.67-25.42-5.66-25.56l0-.31.3-.11c10.28-3.77,15-11.21,18.45-16.64.75-1.19,1.46-2.31,2.15-3.25,2.09-2.88,6.56-4.13,10.15-5.13,2.57-.72,5.22-1.46,5.14-2.46-.17-2.22-5.7-4.48-7.82-5.16L522.76,77l1.8-.39c27.14-6,34.74-25.07,36.61-31.89C548.76,62,538.42,62.4,538,62.41l-1.51,0,1.2-.92c21.4-16.63,23.59-35.91,18.5-48.4A19.14,19.14,0,0,0,544.29,2.26a25.27,25.27,0,0,0-20.3,2c-6.48,3.79-8.9,12.16-7.94,18.47.8,5.26,3.64,8.82,7.8,9.77,8.57,2,11-.7,12.22-2a2.29,2.29,0,0,1,1.09-.83,3,3,0,0,0,1.59-1.84,1.37,1.37,0,0,0,0-1.31,4.63,4.63,0,0,1-.48-2.72c0-1.58-.06-2.62-.82-2.7a1.2,1.2,0,0,0-1,.27,4.14,4.14,0,0,0-.78,2.73c0,1.39-2,4.91-5.83,5.16A6.68,6.68,0,0,1,524.07,26c-.86-1.45-1.93-4.48.64-8.62,2.19-3.53,7.56-5.21,12.78-4s8.85,5.08,9.37,10.27c1.16,11.62-5.82,20.45-22,27.8-8.93,4.06-23,3.15-34.24,2.41-8.43-.54-15.71-1-18.66.61-6.93,3.79-8.14,12.83-8.15,12.92l-.08.65-.6-.25c-.08,0-7.81-3.14-14.05,0-2.82,1.41-14.36,12.32-19.8,20.16-.15,1.17-1.26,11.82,6,26.42C438.11,120,445.47,124,454,124.46c7.09.41,13.08-1.74,15.65-5.66,2.15-3.28,1.91-7.73-.69-12.87l-1.92-3.78,2.75,3.24c4.67,5.51,4.7,13,.07,18.16-5.34,6-17.33,9.08-33.65-1.64C435.22,124.15,431.28,132.61,428.5,136.17Zm67.85-67.35a18.59,18.59,0,0,1-4.7-.7l-.48-.13.12-.48a9,9,0,0,1,6.44-6.32,3.38,3.38,0,0,1,3.68,1.42,3.69,3.69,0,0,1,0,4.19C500.78,67.67,499.39,68.82,496.35,68.82Zm-3.94-1.54c5.69,1.38,7.61-.27,8.17-1.06a2.69,2.69,0,0,0,0-3,2.38,2.38,0,0,0-2.62-1A7.93,7.93,0,0,0,492.41,67.28Z"/><path class="cls-2" d="M84.43,145.4q-5.28,0-7.44-4.14a20.6,20.6,0,0,1-2.16-9.66,35,35,0,0,1,1.38-9.72,22.44,22.44,0,0,1,3.3-7.32q-3.24,3.84-8,8.76a110.83,110.83,0,0,1-10.56,9.48A65.85,65.85,0,0,1,49,140.36a27.37,27.37,0,0,1-12.12,3,20.8,20.8,0,0,1-3.54-.3A15.23,15.23,0,0,1,30,142a12.19,12.19,0,0,1-6.6-6.42,26,26,0,0,1-2.16-11.1,51.67,51.67,0,0,1,2.34-14.7,79.38,79.38,0,0,1,6.9-16,87,87,0,0,1,4.86-7.86,75,75,0,0,1,5.82-7.38,46.48,46.48,0,0,1-6.84-3.78A26,26,0,0,1,29,70.16a11.18,11.18,0,0,1-2.16-4,14.71,14.71,0,0,1-.72-4.44q0-3.84,1.8-5a1.71,1.71,0,0,1,1.44-1q1.08,0,1.08,1.32a4,4,0,0,1-.48,1.8,8.07,8.07,0,0,0-.6,2.88,6.82,6.82,0,0,0,1,3.54,18.42,18.42,0,0,0,2.28,3.06,28.92,28.92,0,0,0,10.56,7.56A135.53,135.53,0,0,1,60,60.38,83.57,83.57,0,0,1,79.75,48.92,58.07,58.07,0,0,1,102,44.6q9.72,0,15.24,4.26a13.26,13.26,0,0,1,5.52,11,15.63,15.63,0,0,1-1.92,7,23.47,23.47,0,0,1-6.24,7.32,38.83,38.83,0,0,1-11.46,6.12,71.88,71.88,0,0,1-17.7,3.54q-3.72.36-6.66.54t-6.3.18a84.36,84.36,0,0,1-12.06-.84,74.41,74.41,0,0,1-11.58-2.64q-2.16,3-5.46,8.16t-6.54,11a108,108,0,0,0-5.4,11.16,71.41,71.41,0,0,0-2.88,9.18,33.08,33.08,0,0,0-1,7.38q0,5.88,2.76,8.82a9.72,9.72,0,0,0,7.44,2.94,25.61,25.61,0,0,0,10.38-2.64,55,55,0,0,0,12.18-7.92,127.28,127.28,0,0,0,12.42-11.88,161.83,161.83,0,0,0,11.1-13.44A109.64,109.64,0,0,0,92,91.28a18.65,18.65,0,0,1,4-5.46,5.55,5.55,0,0,1,3.24-1.62,2.35,2.35,0,0,1,2,1,4.59,4.59,0,0,1,.72,2.7,10.16,10.16,0,0,1-3,6.72,58.5,58.5,0,0,0-6.6,9.12,89.43,89.43,0,0,0-5.76,11.4A58,58,0,0,0,83,126.92a32,32,0,0,0-.48,3.6q-.12,1.68-.12,3,0,4.44,1.38,6.36a4.3,4.3,0,0,0,3.66,1.92q2.76,0,6.36-2.52a34.11,34.11,0,0,0,7-6.72q2.88-3.84,5.58-8.16a97.7,97.7,0,0,0,5-9,2.7,2.7,0,0,1,1-1.26,2.27,2.27,0,0,1,.9-.42q.6,0,.6.72a4.6,4.6,0,0,1-.36,1.44q-1.08,2.4-2.88,5.76t-4,6.9a77.61,77.61,0,0,1-4.44,6.54,31.73,31.73,0,0,1-7.86,7.2A17.74,17.74,0,0,1,84.43,145.4ZM71.35,81.68q6.24,0,13.92-.72a56,56,0,0,0,17.28-4,29,29,0,0,0,11.28-7.92,16.37,16.37,0,0,0,4-10.68,8.93,8.93,0,0,0-4.38-8,20.48,20.48,0,0,0-11.1-2.76A46.63,46.63,0,0,0,82,52a66.89,66.89,0,0,0-16.8,11.46A168.72,168.72,0,0,0,50.71,78.68,65.91,65.91,0,0,0,71.35,81.68Z"/><path class="cls-3" d="M84.43,145.65c-3.6,0-6.18-1.43-7.66-4.27a21,21,0,0,1-2.19-9.78A35.52,35.52,0,0,1,76,121.81a30.08,30.08,0,0,1,1.82-4.88c-1.77,2-3.83,4.2-6.14,6.57A111.27,111.27,0,0,1,61.07,133a66.6,66.6,0,0,1-11.93,7.59,27.68,27.68,0,0,1-12.23,3,21.36,21.36,0,0,1-3.58-.3,15.4,15.4,0,0,1-3.48-1,12.42,12.42,0,0,1-6.72-6.54,26.4,26.4,0,0,1-2.19-11.21,52.16,52.16,0,0,1,2.35-14.77,80.44,80.44,0,0,1,6.92-16.07,89,89,0,0,1,4.88-7.88,74.23,74.23,0,0,1,5.61-7.15A47.37,47.37,0,0,1,34.13,75a26.77,26.77,0,0,1-5.33-4.66,11.61,11.61,0,0,1-2.21-4,15.18,15.18,0,0,1-.73-4.52c0-2.6.63-4.36,1.87-5.21a1.93,1.93,0,0,1,1.62-1c.5,0,1.33.21,1.33,1.57a4.35,4.35,0,0,1-.5,1.91,7.86,7.86,0,0,0-.58,2.77,6.58,6.58,0,0,0,.93,3.42,17.87,17.87,0,0,0,2.25,3,28.6,28.6,0,0,0,10.31,7.43A136.14,136.14,0,0,1,59.86,60.19a84.1,84.1,0,0,1,19.8-11.5A58.58,58.58,0,0,1,102,44.35c6.51,0,11.69,1.45,15.4,4.31A13.59,13.59,0,0,1,123,59.84,16,16,0,0,1,121,67a24,24,0,0,1-6.31,7.4,39.44,39.44,0,0,1-11.53,6.16,72.58,72.58,0,0,1-17.76,3.55c-2.47.24-4.71.42-6.67.54s-4.08.18-6.32.18A84.68,84.68,0,0,1,60.34,84a75.52,75.52,0,0,1-11.45-2.59c-1.41,2-3.21,4.66-5.35,8s-4.37,7.11-6.53,11a109.72,109.72,0,0,0-5.39,11.14,72.26,72.26,0,0,0-2.86,9.14,32.59,32.59,0,0,0-1,7.32c0,3.84.91,6.75,2.69,8.65a9.53,9.53,0,0,0,7.26,2.86A25.59,25.59,0,0,0,48,136.9,54.89,54.89,0,0,0,60.15,129a126.8,126.8,0,0,0,12.4-11.86,163.19,163.19,0,0,0,11.08-13.41,108.3,108.3,0,0,0,8.14-12.58,19.09,19.09,0,0,1,4-5.53A5.71,5.71,0,0,1,99.19,84a2.61,2.61,0,0,1,2.25,1.13,4.84,4.84,0,0,1,.76,2.84,10.46,10.46,0,0,1-3.06,6.89,58,58,0,0,0-6.57,9.08,89,89,0,0,0-5.75,11.37A58.32,58.32,0,0,0,83.24,127a31.8,31.8,0,0,0-.48,3.57c-.08,1.11-.12,2.11-.12,3,0,2.9.45,5,1.34,6.22a4,4,0,0,0,3.45,1.81c1.78,0,3.87-.83,6.22-2.47a34.41,34.41,0,0,0,6.91-6.67c1.9-2.54,3.77-5.28,5.56-8.14a97,97,0,0,0,5-9,3,3,0,0,1,1.11-1.36,2.23,2.23,0,0,1,1-.46c.26,0,.85.1.85,1a4.75,4.75,0,0,1-.37,1.53c-.73,1.62-1.7,3.56-2.9,5.79s-2.54,4.57-4,6.91a79.2,79.2,0,0,1-4.46,6.57,32.19,32.19,0,0,1-7.92,7.25A18,18,0,0,1,84.43,145.65ZM79.32,114.4l.39.31A22.57,22.57,0,0,0,76.45,122a34.88,34.88,0,0,0-1.37,9.65,20.5,20.5,0,0,0,2.13,9.55c1.41,2.69,3.77,4,7.22,4a17.55,17.55,0,0,0,9.77-3.08,31.53,31.53,0,0,0,7.79-7.14,74.14,74.14,0,0,0,4.43-6.52c1.42-2.33,2.75-4.65,4-6.88s2.16-4.16,2.87-5.75a4.15,4.15,0,0,0,.34-1.34c0-.43-.17-.47-.35-.47a2.14,2.14,0,0,0-.76.38,2.51,2.51,0,0,0-.93,1.15,96,96,0,0,1-5,9c-1.79,2.87-3.67,5.62-5.59,8.17a34.43,34.43,0,0,1-7,6.78c-2.44,1.7-4.62,2.56-6.51,2.56a4.54,4.54,0,0,1-3.86-2c-.95-1.32-1.43-3.51-1.43-6.51,0-.88,0-1.89.12-3a30.67,30.67,0,0,1,.49-3.63,58.47,58.47,0,0,1,3.61-11.81,90.06,90.06,0,0,1,5.78-11.44,58.42,58.42,0,0,1,6.63-9.15,10,10,0,0,0,2.93-6.56,4.33,4.33,0,0,0-.67-2.55,2.11,2.11,0,0,0-1.84-.92A5.41,5.41,0,0,0,96.11,86a18.82,18.82,0,0,0-3.9,5.39A109.8,109.8,0,0,1,84,104a162.56,162.56,0,0,1-11.11,13.46A127.91,127.91,0,0,1,60.47,129.4a55.68,55.68,0,0,1-12.23,7.95A26,26,0,0,1,37.75,140a10,10,0,0,1-7.62-3c-1.88-2-2.83-5-2.83-9a33.48,33.48,0,0,1,1-7.43,72,72,0,0,1,2.89-9.22,110.62,110.62,0,0,1,5.41-11.19c2.17-3.92,4.37-7.64,6.55-11s4-6.18,5.47-8.17l.11-.15.17.06a75.59,75.59,0,0,0,11.54,2.63,85.18,85.18,0,0,0,12,.83c2.23,0,4.35-.06,6.29-.18s4.19-.3,6.65-.54A72,72,0,0,0,103,80.07,38.65,38.65,0,0,0,114.39,74a23.26,23.26,0,0,0,6.18-7.24,15.4,15.4,0,0,0,1.89-6.91A13.08,13.08,0,0,0,117,49.06c-3.62-2.79-8.7-4.21-15.09-4.21a57.94,57.94,0,0,0-22.1,4.31A83.59,83.59,0,0,0,60.17,60.58,135.09,135.09,0,0,0,43.34,76.09l-.12.14-.17-.08A29.19,29.19,0,0,1,32.4,68.52a18.36,18.36,0,0,1-2.3-3.09,7.1,7.1,0,0,1-1-3.67,8.36,8.36,0,0,1,.62-3,3.85,3.85,0,0,0,.46-1.71c0-.94-.44-1.07-.83-1.07a1.46,1.46,0,0,0-1.22.85l-.08.07c-1.12.75-1.69,2.37-1.69,4.83a14.56,14.56,0,0,0,.71,4.37A11.07,11.07,0,0,0,29.18,70a26.11,26.11,0,0,0,5.23,4.58,47,47,0,0,0,6.81,3.76l.31.14-.23.25a74.82,74.82,0,0,0-5.8,7.36,86.49,86.49,0,0,0-4.85,7.83,80,80,0,0,0-6.88,16,52,52,0,0,0-2.33,14.63,25.88,25.88,0,0,0,2.14,11,12,12,0,0,0,6.47,6.29,15.32,15.32,0,0,0,3.37,1,21.25,21.25,0,0,0,3.49.29,27.31,27.31,0,0,0,12-3,66.49,66.49,0,0,0,11.84-7.53,111.48,111.48,0,0,0,10.53-9.46C74.48,119.88,77.19,116.94,79.32,114.4Zm-8-32.47a66.46,66.46,0,0,1-20.72-3l-.35-.11.24-.29A170.58,170.58,0,0,1,65,63.26a67.63,67.63,0,0,1,16.86-11.5,47,47,0,0,1,20.45-4.41,20.81,20.81,0,0,1,11.24,2.8A9.21,9.21,0,0,1,118,58.4a16.7,16.7,0,0,1-4,10.84,29.33,29.33,0,0,1-11.38,8,56,56,0,0,1-17.36,4C80.19,81.69,75.5,81.93,71.35,81.93ZM51.14,78.56a66.21,66.21,0,0,0,20.21,2.87c4.13,0,8.81-.24,13.9-.72a55.88,55.88,0,0,0,17.2-3.94,28.74,28.74,0,0,0,11.19-7.85,16.16,16.16,0,0,0,3.9-10.52,8.74,8.74,0,0,0-4.26-7.83,20.41,20.41,0,0,0-11-2.72,46.62,46.62,0,0,0-20.23,4.36A67.13,67.13,0,0,0,65.34,63.63,170.6,170.6,0,0,0,51.14,78.56Z"/><path class="cls-2" d="M184.87,149a65.73,65.73,0,0,1-16.68-2.1,47.86,47.86,0,0,1-14.4-6.3A32.34,32.34,0,0,1,143.65,130a28.82,28.82,0,0,1-3.78-15,45,45,0,0,1,2.28-13.56,20.1,20.1,0,0,1,3.78-7,20.61,20.61,0,0,1,5.1-4.44,9.1,9.1,0,0,1,4.2-1.56q2,0,1.68,1.92a12,12,0,0,1-2.46,2,30.39,30.39,0,0,0-3.72,2.94A21.32,21.32,0,0,0,147,100a19.71,19.71,0,0,0-2.46,7.14q-.24,1.56-.42,3.12a26.19,26.19,0,0,0-.18,3,27.76,27.76,0,0,0,3.36,13.8,30.62,30.62,0,0,0,8.82,10,40.06,40.06,0,0,0,12,5.94A41.62,41.62,0,0,0,181,144.8a60.69,60.69,0,0,0,17.28-2.7,51.2,51.2,0,0,0,13.44-6.54,59.53,59.53,0,0,0,10.32-9,71.63,71.63,0,0,0,7.44-10q3.72-5.88,7.26-12.66t6.72-13.5q3.18-6.72,5.94-12.72t4.8-10.26a35,35,0,0,1,3.36-5.94A169.33,169.33,0,0,0,239.41,57a138.09,138.09,0,0,0-18.54-2.1,40.73,40.73,0,0,0-16,2A36.51,36.51,0,0,0,193,63.74a31.52,31.52,0,0,0-7.44,9.3A21.31,21.31,0,0,0,183,82.76a12.87,12.87,0,0,0,2.1,7.26,11.86,11.86,0,0,0,6.42,4.62,20.09,20.09,0,0,0,5.64.84,15.32,15.32,0,0,0,7.56-1.8,19.8,19.8,0,0,0,5.46-4.38,23.45,23.45,0,0,0,3.36-4.92A9.16,9.16,0,0,0,214.63,81v-.12a1.64,1.64,0,0,1,1.2-.72q1.2,0,1.2,1.68a17.35,17.35,0,0,1-3.66,9A20.57,20.57,0,0,1,206,96.68a21.1,21.1,0,0,1-9.12,2,19.67,19.67,0,0,1-6.48-1.08,19,19,0,0,1-10-7.74,21.34,21.34,0,0,1-3.36-11.58,26,26,0,0,1,2.28-10.5,29.14,29.14,0,0,1,7-9.6,34.92,34.92,0,0,1,11.64-7,45.93,45.93,0,0,1,16.32-2.64h2.52q1,0,3.24.24a76.87,76.87,0,0,1,11.4,1.86q5.76,1.38,11,3.06T252.19,57q4.44,1.56,7.32,2.28a11.13,11.13,0,0,1,2.1-1.68q1.74-1.2,3.6-2.52a35.34,35.34,0,0,0,2.94-2.28q1.08-1,.12-1h-.12a3.12,3.12,0,0,1,1-.12,2.13,2.13,0,0,1,1.8.78,2.63,2.63,0,0,1,.6,1.62q0,1.56-1.44,1.56a3.93,3.93,0,0,1-1-.24q-.48-.48-1.74.48a25.06,25.06,0,0,0-2.52,2.22q-1.26,1.26-2,2.1,2.64.84,6.66,2t8.64,2.28q4.62,1.14,9.06,1.86a50.06,50.06,0,0,0,7.92.72,13.94,13.94,0,0,0,5.34-.84,2.85,2.85,0,0,0,2-2.76,2.55,2.55,0,0,1,.3-1.26,1.19,1.19,0,0,1,1.14-.54q.6,0,.84,1a7.5,7.5,0,0,1,.24,1.62q0,2.88-3.06,4.68a14.82,14.82,0,0,1-7.62,1.8q-.72,0-1.44-.06t-1.56-.18q-13.44-1.68-20.94-4.32T261,62.72a102.27,102.27,0,0,0-8.88,17.76q-3.48,9.12-6.54,18.24a162.24,162.24,0,0,1-7.08,17.64,69.55,69.55,0,0,1-10.62,16.08,42.37,42.37,0,0,1-11.7,9.12,59.65,59.65,0,0,1-14.94,5.58A72.17,72.17,0,0,1,184.87,149Z"/><path class="cls-3" d="M184.87,149.25a66.66,66.66,0,0,1-16.74-2.1,48.54,48.54,0,0,1-14.48-6.34,32.7,32.7,0,0,1-10.21-10.64A29.12,29.12,0,0,1,139.62,115a45.46,45.46,0,0,1,2.29-13.63,20.62,20.62,0,0,1,3.83-7,21.08,21.08,0,0,1,5.16-4.49,9.22,9.22,0,0,1,4.33-1.6,2,2,0,0,1,1.65.6,1.91,1.91,0,0,1,.28,1.62l0,.06,0,.06a12.26,12.26,0,0,1-2.51,2,29.23,29.23,0,0,0-3.69,2.92,21,21,0,0,0-3.68,4.56,19.73,19.73,0,0,0-2.42,7c-.16,1-.3,2-.42,3.11a25.82,25.82,0,0,0-.18,3,27.6,27.6,0,0,0,3.33,13.68,30.46,30.46,0,0,0,8.75,9.88,39.88,39.88,0,0,0,11.92,5.9A41.13,41.13,0,0,0,181,144.55a60.9,60.9,0,0,0,17.2-2.68,51.68,51.68,0,0,0,13.38-6.51,59.77,59.77,0,0,0,10.27-9,71.8,71.8,0,0,0,7.42-9.93c2.47-3.9,4.91-8.15,7.25-12.64s4.62-9.06,6.71-13.49,4.1-8.71,5.94-12.72,3.46-7.45,4.8-10.26a39.84,39.84,0,0,1,3.17-5.7,168.2,168.2,0,0,0-17.81-4.39,138.93,138.93,0,0,0-18.5-2.1,40.78,40.78,0,0,0-15.92,2,36.3,36.3,0,0,0-11.8,6.73,31.36,31.36,0,0,0-7.39,9.23,21.17,21.17,0,0,0-2.55,9.6,12.68,12.68,0,0,0,2.06,7.13,11.65,11.65,0,0,0,6.29,4.52,20.18,20.18,0,0,0,5.56.82,15.05,15.05,0,0,0,7.44-1.77,19.61,19.61,0,0,0,5.39-4.32,23.13,23.13,0,0,0,3.33-4.87A9,9,0,0,0,214.38,81v-.21l.06-.07a1.88,1.88,0,0,1,1.39-.81c.66,0,1.45.34,1.45,1.93A17.76,17.76,0,0,1,213.57,91a21,21,0,0,1-7.47,6A21.42,21.42,0,0,1,196.87,99a19.89,19.89,0,0,1-6.56-1.09A19.29,19.29,0,0,1,180.22,90a21.65,21.65,0,0,1-3.4-11.72,26.35,26.35,0,0,1,2.3-10.6,29.63,29.63,0,0,1,7-9.68A35.33,35.33,0,0,1,197.86,51a46.47,46.47,0,0,1,16.41-2.66h2.52c.65,0,1.71.08,3.27.24a77.73,77.73,0,0,1,11.43,1.87c3.81.91,7.53,1.95,11.06,3.07s6.77,2.2,9.72,3.24,5.26,1.75,7.15,2.23a13.58,13.58,0,0,1,2.05-1.6q1.74-1.2,3.6-2.52c1.23-.88,2.21-1.64,2.91-2.26a2.19,2.19,0,0,0,.47-.51.68.68,0,0,0-.18,0h-1.68l1.48-.48a3.31,3.31,0,0,1,1-.14,2.39,2.39,0,0,1,2,.88,2.91,2.91,0,0,1,.65,1.77c0,1.5-.92,1.81-1.69,1.81a3.41,3.41,0,0,1-1-.25l-.1-.06c-.28-.28-1,.19-1.41.5a24.71,24.71,0,0,0-2.49,2.2c-.69.69-1.27,1.3-1.72,1.8,1.67.53,3.78,1.15,6.29,1.86s5.53,1.52,8.63,2.28,6.09,1.38,9,1.86a50.57,50.57,0,0,0,7.88.71,13.62,13.62,0,0,0,5.24-.82,2.6,2.6,0,0,0,1.83-2.53,2.82,2.82,0,0,1,.33-1.38,1.43,1.43,0,0,1,1.36-.67c.53,0,.89.41,1.08,1.22a7.39,7.39,0,0,1,.25,1.67c0,2-1.07,3.66-3.18,4.9A15.12,15.12,0,0,1,294.31,71c-.5,0-1,0-1.46-.06s-1-.1-1.58-.18c-8.92-1.11-16-2.57-21-4.33-4.74-1.67-7.84-2.81-9.24-3.4a102,102,0,0,0-8.75,17.53c-2.29,6-4.49,12.16-6.53,18.23a164.83,164.83,0,0,1-7.09,17.67A70.61,70.61,0,0,1,228,132.61a42.86,42.86,0,0,1-11.77,9.17,60.29,60.29,0,0,1-15,5.61A72.76,72.76,0,0,1,184.87,149.25ZM155.23,88.77a9,9,0,0,0-4.07,1.53,20.34,20.34,0,0,0-5,4.39,19.74,19.74,0,0,0-3.73,6.87A44.79,44.79,0,0,0,140.12,115a28.7,28.7,0,0,0,3.75,14.88,32.11,32.11,0,0,0,10.06,10.47,47.59,47.59,0,0,0,14.32,6.27,65.77,65.77,0,0,0,16.62,2.09,72.28,72.28,0,0,0,16.26-1.85A59.56,59.56,0,0,0,216,141.34a42,42,0,0,0,11.63-9.06,69.24,69.24,0,0,0,10.58-16,159.87,159.87,0,0,0,7.07-17.62c2-6.08,4.25-12.22,6.55-18.25a103.08,103.08,0,0,1,8.9-17.8l.11-.18.2.08c1.28.56,4.44,1.73,9.4,3.48s12,3.19,20.89,4.31c.54.07,1.06.13,1.55.17s.93.06,1.42.06a14.64,14.64,0,0,0,7.49-1.76c2-1.16,2.94-2.63,2.94-4.47a7.66,7.66,0,0,0-.23-1.56c-.13-.55-.33-.83-.6-.83a1,1,0,0,0-.92.41,2.32,2.32,0,0,0-.27,1.14,3.09,3.09,0,0,1-2.13,3,14.27,14.27,0,0,1-5.44.86,50.52,50.52,0,0,1-8-.72c-3-.48-6-1.11-9.08-1.86s-6-1.54-8.65-2.29-4.91-1.42-6.67-2l-.36-.11.25-.29c.49-.57,1.16-1.28,2-2.11a25.87,25.87,0,0,1,2.55-2.25c.34-.26,1.38-1,2-.5a3,3,0,0,0,.83.21c.82,0,1.19-.4,1.19-1.31a2.36,2.36,0,0,0-.55-1.46,1.88,1.88,0,0,0-1.6-.69H269c.06.26-.14.56-.64,1a34.92,34.92,0,0,1-3,2.3q-1.86,1.32-3.6,2.52a10.34,10.34,0,0,0-2,1.62l-.1.14-.16,0c-1.92-.48-4.39-1.25-7.34-2.29s-6.22-2.12-9.71-3.24-7.23-2.14-11-3.05A76.57,76.57,0,0,0,220,49.05c-1.54-.16-2.59-.24-3.22-.24h-2.52A45.91,45.91,0,0,0,198,51.44a34.8,34.8,0,0,0-11.56,7,29,29,0,0,0-6.9,9.51,25.91,25.91,0,0,0-2.26,10.4,21.21,21.21,0,0,0,3.32,11.45,18.84,18.84,0,0,0,9.84,7.64,19.38,19.38,0,0,0,6.39,1.06,21,21,0,0,0,9-2,20.3,20.3,0,0,0,7.29-5.81,17.17,17.17,0,0,0,3.61-8.88c0-1.25-.54-1.4-.95-1.4a1.35,1.35,0,0,0-1,.57v0a9.17,9.17,0,0,1-1.17,3.53,23.3,23.3,0,0,1-3.39,5,20.14,20.14,0,0,1-5.53,4.43,15.55,15.55,0,0,1-7.68,1.83,20.17,20.17,0,0,1-5.71-.85,12.1,12.1,0,0,1-6.56-4.72,13.18,13.18,0,0,1-2.14-7.4,21.66,21.66,0,0,1,2.61-9.83,31.72,31.72,0,0,1,7.5-9.37,36.82,36.82,0,0,1,12-6.83,41.18,41.18,0,0,1,16.11-2.06,138.48,138.48,0,0,1,18.58,2.11,169.64,169.64,0,0,1,18.2,4.5l.35.11-.22.29a34.09,34.09,0,0,0-3.33,5.89c-1.35,2.81-3,6.26-4.8,10.26s-3.85,8.29-5.94,12.72-4.37,9-6.73,13.51-4.79,8.77-7.27,12.68a72.68,72.68,0,0,1-7.47,10,59.64,59.64,0,0,1-10.36,9,51.66,51.66,0,0,1-13.5,6.57A61.24,61.24,0,0,1,181,145.05a42,42,0,0,1-13-1.87,40.57,40.57,0,0,1-12.08-6,31.21,31.21,0,0,1-8.89-10,28.17,28.17,0,0,1-3.39-13.93,26.84,26.84,0,0,1,.18-3c.13-1.07.27-2.12.42-3.12a20.19,20.19,0,0,1,2.5-7.24,21.49,21.49,0,0,1,3.76-4.67,32.86,32.86,0,0,1,3.75-3,12.33,12.33,0,0,0,2.37-1.88,1.46,1.46,0,0,0-.18-1.15A1.62,1.62,0,0,0,155.23,88.77Z"/><path class="cls-2" d="M259.39,137.72q-4.56,0-6.72-3.06a12.68,12.68,0,0,1-2.16-7.5A28.61,28.61,0,0,1,253,115.88a43,43,0,0,1,6.12-10.08,35.46,35.46,0,0,1,8-7.38,15.38,15.38,0,0,1,8.4-2.82q4.56,0,6.72,3a12.61,12.61,0,0,1,2.16,7.56A28,28,0,0,1,282,117.44a47.18,47.18,0,0,1-4.08,7.14,44.69,44.69,0,0,1-6,7.14,5.86,5.86,0,0,0,5.64,3.12,7.94,7.94,0,0,0,5.46-2.4,29.13,29.13,0,0,0,4.74-5.82,69.55,69.55,0,0,0,3.84-6.9q1.68-3.48,2.76-5.64a1.24,1.24,0,0,1,1.2-.72.78.78,0,0,1,.72.42,1.46,1.46,0,0,1-.12,1.26q-.72,1.8-2.4,5.34a68.56,68.56,0,0,1-4.08,7.32,28,28,0,0,1-5.52,6.42,10.51,10.51,0,0,1-7,2.64,10.66,10.66,0,0,1-4.56-.9,9.73,9.73,0,0,1-3.12-2.22,23.89,23.89,0,0,1-5,3A12.71,12.71,0,0,1,259.39,137.72Zm1.8-2.64q3.24,0,7-3.12a11.48,11.48,0,0,1-1.44-3,9.85,9.85,0,0,1-.48-2.88,6.65,6.65,0,0,1,1-3.72,3.53,3.53,0,0,1,3.18-1.56,3.31,3.31,0,0,1,2.58,1.14,3.77,3.77,0,0,1,1,2.58,3.37,3.37,0,0,1-.06.66,5.55,5.55,0,0,1-.18.66,40.76,40.76,0,0,0,3.84-6.48q4-8.52,4-14a7.5,7.5,0,0,0-1.08-4.32,3.68,3.68,0,0,0-3.24-1.56,9.44,9.44,0,0,0-5.46,2.16,27.63,27.63,0,0,0-5.64,5.76,43.87,43.87,0,0,0-4.74,8,57.57,57.57,0,0,0-3.06,7.86,23.18,23.18,0,0,0-1.14,6.54,6.82,6.82,0,0,0,1,3.84A3.35,3.35,0,0,0,261.19,135.08Z"/><path class="cls-3" d="M259.39,138c-3.11,0-5.44-1.06-6.93-3.16a13,13,0,0,1-2.2-7.65,29,29,0,0,1,2.54-11.38A43.07,43.07,0,0,1,259,105.65a35.77,35.77,0,0,1,8.09-7.44,15.77,15.77,0,0,1,8.54-2.86c3.11,0,5.44,1.05,6.92,3.11a12.84,12.84,0,0,1,2.21,7.7,28.47,28.47,0,0,1-2.54,11.38,47.19,47.19,0,0,1-4.1,7.18,45.38,45.38,0,0,1-5.9,7.05,6.26,6.26,0,0,0,1.87,2,6.09,6.09,0,0,0,3.46.85,7.72,7.72,0,0,0,5.29-2.33,29.27,29.27,0,0,0,4.7-5.77,69.81,69.81,0,0,0,3.82-6.87c1.16-2.39,2.06-4.24,2.77-5.65a1.5,1.5,0,0,1,1.42-.86,1,1,0,0,1,.94.55,1.69,1.69,0,0,1-.11,1.48c-.48,1.19-1.29,3-2.4,5.35a71,71,0,0,1-4.1,7.35,28.2,28.2,0,0,1-5.57,6.47,10.75,10.75,0,0,1-7.12,2.7,11,11,0,0,1-4.67-.92,10,10,0,0,1-3-2.11,24.2,24.2,0,0,1-4.91,2.89A13.07,13.07,0,0,1,259.39,138Zm16.2-42.12a15.22,15.22,0,0,0-8.26,2.78,35.46,35.46,0,0,0-8,7.33,43,43,0,0,0-6.08,10,28.53,28.53,0,0,0-2.5,11.18,12.51,12.51,0,0,0,2.11,7.36c1.39,2,3.58,2.95,6.52,2.95a12.38,12.38,0,0,0,4.94-1.06,23.25,23.25,0,0,0,5-3l.18-.13.15.17a9.64,9.64,0,0,0,3,2.16,10.5,10.5,0,0,0,4.46.87,10.28,10.28,0,0,0,6.8-2.58,27.68,27.68,0,0,0,5.47-6.36,69.73,69.73,0,0,0,4.06-7.29c1.12-2.35,1.92-4.14,2.4-5.33.2-.48.25-.84.13-1a.53.53,0,0,0-.5-.3,1,1,0,0,0-1,.59c-.7,1.4-1.6,3.25-2.76,5.63a69.85,69.85,0,0,1-3.85,6.93,29.29,29.29,0,0,1-4.78,5.87,8.23,8.23,0,0,1-5.63,2.46,6.51,6.51,0,0,1-3.74-.94,6.58,6.58,0,0,1-2.12-2.31l-.09-.16.14-.14a45.13,45.13,0,0,0,6-7.1,46.22,46.22,0,0,0,4.06-7.1,27.87,27.87,0,0,0,2.5-11.18,12.44,12.44,0,0,0-2.11-7.41C280.72,96.83,278.53,95.85,275.59,95.85Zm-14.4,39.48a3.61,3.61,0,0,1-3.21-1.55,7.11,7.11,0,0,1-1-4,23.61,23.61,0,0,1,1.15-6.61,58,58,0,0,1,3.07-7.89,44.76,44.76,0,0,1,4.77-8.09,28.12,28.12,0,0,1,5.69-5.81,9.77,9.77,0,0,1,5.61-2.21,3.91,3.91,0,0,1,3.44,1.67,7.75,7.75,0,0,1,1.13,4.46c0,3.71-1.34,8.46-4,14.15A42,42,0,0,1,274,126l-.93,1.25.49-1.47a5.14,5.14,0,0,0,.17-.64,2.8,2.8,0,0,0,.06-.61,3.47,3.47,0,0,0-1-2.41,3,3,0,0,0-2.39-1.06,3.27,3.27,0,0,0-3,1.45,6.42,6.42,0,0,0-1,3.58,9.65,9.65,0,0,0,.47,2.81,11.17,11.17,0,0,0,1.41,2.94l.12.18-.17.15C265.8,134.26,263.4,135.33,261.19,135.33Zm16.08-35.64A9.22,9.22,0,0,0,272,101.8a27.64,27.64,0,0,0-5.59,5.71,43.75,43.75,0,0,0-4.71,8,57.15,57.15,0,0,0-3.05,7.83,22.93,22.93,0,0,0-1.13,6.46,6.58,6.58,0,0,0,.92,3.7,3.07,3.07,0,0,0,2.79,1.33c2,0,4.27-1,6.63-2.92a11.36,11.36,0,0,1-1.35-2.87,10,10,0,0,1-.49-3,6.92,6.92,0,0,1,1.06-3.85,3.79,3.79,0,0,1,3.39-1.68,3.52,3.52,0,0,1,2.76,1.23,4,4,0,0,1,1.09,2.74,1.48,1.48,0,0,1,0,.21,41.82,41.82,0,0,0,3.13-5.48c2.61-5.61,3.94-10.3,3.94-13.93a7.24,7.24,0,0,0-1-4.17A3.41,3.41,0,0,0,277.27,99.69Z"/><path class="cls-2" d="M297.67,137.72a10.65,10.65,0,0,1-3.18-.6,7.07,7.07,0,0,1-3.24-2.22,7.34,7.34,0,0,1-1.38-4.86,13.18,13.18,0,0,1,1.5-6.06q1.5-2.94,2.82-5.7a1.59,1.59,0,0,1-.78-.24.78.78,0,0,1-.42-.72,2.13,2.13,0,0,1,.24-1q.48-1,1.08-2a19.93,19.93,0,0,0,1.08-2.28q1.8-3.72,3.6-7.14t3.12-6.06a4.68,4.68,0,0,1,4.56-2.64h7.44a24.86,24.86,0,0,0-3.66,3.42,33.75,33.75,0,0,0-4,6.78q-1.68,3.36-2.94,5.94T301,117.56q-1.26,2.64-2.1,4.44a31,31,0,0,0-2,5.34,15.61,15.61,0,0,0-.48,3.66q0,4,2.64,4,2.88,0,7-4.68a67.34,67.34,0,0,0,6.6-9.48q3.24-5.52,6.18-11.4T324,98.84a4.78,4.78,0,0,1,4.68-2.64h6.6a30.32,30.32,0,0,0-3,2.7,15.8,15.8,0,0,0-2.34,3.36q-1.14,2.1-3.06,5.94-1.56,3.24-3.3,6.9t-3.06,6.9a27.47,27.47,0,0,0-1.68,5.28q-.12,1.2-.24,1.8a6.74,6.74,0,0,0-.12,1.32,5.2,5.2,0,0,0,.78,3.24,2.33,2.33,0,0,0,1.86,1q2.88,0,5.82-3.24a45.86,45.86,0,0,0,5.64-7.92q2.7-4.68,4.62-8.88.72-1.32,1.32-1.32t.72.84a3,3,0,0,1-.48,1.44q-1.32,2.88-3.24,6.6a76.2,76.2,0,0,1-4.32,7.32,26.52,26.52,0,0,1-5.28,5.94,9.7,9.7,0,0,1-6.24,2.34,6.21,6.21,0,0,1-4.92-2.22,9.34,9.34,0,0,1-1.92-6.3,22.74,22.74,0,0,1,1.2-7,73.33,73.33,0,0,1-4.68,7.2,29.82,29.82,0,0,1-5.64,5.94A9.75,9.75,0,0,1,297.67,137.72Z"/><path class="cls-3" d="M319.63,138a6.47,6.47,0,0,1-5.11-2.3,9.61,9.61,0,0,1-2-6.47,21.21,21.21,0,0,1,.67-5.13c-1.12,1.84-2.36,3.69-3.7,5.52a30,30,0,0,1-5.69,6,10,10,0,0,1-6.15,2.39,10.79,10.79,0,0,1-3.26-.61,7.27,7.27,0,0,1-3.35-2.29,7.62,7.62,0,0,1-1.44-5,13.41,13.41,0,0,1,1.53-6.17c.93-1.83,1.83-3.64,2.66-5.39a1.81,1.81,0,0,1-.53-.22,1,1,0,0,1-.54-.94,2.44,2.44,0,0,1,.26-1.07c.32-.64.69-1.33,1.09-2a20.33,20.33,0,0,0,1.07-2.25c1.21-2.51,2.42-4.91,3.61-7.16s2.22-4.28,3.11-6.06A5,5,0,0,1,306.67,96h8.18l-.59.45a24.36,24.36,0,0,0-3.62,3.39,33.2,33.2,0,0,0-4,6.72c-1.12,2.25-2.1,4.22-2.94,5.94s-1.68,3.46-2.52,5.22-1.54,3.24-2.1,4.44a30.73,30.73,0,0,0-2,5.29,15.69,15.69,0,0,0-.47,3.6c0,2.5.78,3.71,2.39,3.71,1.83,0,4.11-1.54,6.77-4.59a68,68,0,0,0,6.57-9.44c2.15-3.65,4.22-7.48,6.17-11.39s3.69-7.41,5.22-10.56A5.06,5.06,0,0,1,328.63,96h7.31l-.56.45a28.63,28.63,0,0,0-3,2.68,15.24,15.24,0,0,0-2.3,3.3c-.76,1.4-1.76,3.34-3.06,5.94q-1.56,3.23-3.3,6.89c-1.16,2.44-2.18,4.76-3.05,6.89a27.09,27.09,0,0,0-1.67,5.23,16.31,16.31,0,0,1-.24,1.8,7.07,7.07,0,0,0-.11,1.27,5,5,0,0,0,.72,3.09,2.09,2.09,0,0,0,1.67.86c1.83,0,3.73-1.06,5.63-3.15a45.78,45.78,0,0,0,5.61-7.88c1.79-3.11,3.34-6.09,4.61-8.86.55-1,1-1.47,1.55-1.47s1,.4,1,1.09a3.24,3.24,0,0,1-.52,1.57c-.86,1.89-2,4.12-3.23,6.59a77.46,77.46,0,0,1-4.33,7.34,27.3,27.3,0,0,1-5.33,6A10,10,0,0,1,319.63,138ZM315,120l-.75,2.33A22.53,22.53,0,0,0,313,129.2a9.12,9.12,0,0,0,1.86,6.14,6,6,0,0,0,4.73,2.13,9.53,9.53,0,0,0,6.08-2.28,26.52,26.52,0,0,0,5.23-5.89,76.52,76.52,0,0,0,4.31-7.29c1.27-2.46,2.35-4.68,3.23-6.59a2.84,2.84,0,0,0,.46-1.34c0-.54-.24-.59-.47-.59s-.54.16-1.1,1.19c-1.27,2.77-2.83,5.77-4.63,8.89a45.26,45.26,0,0,1-5.67,8c-2,2.21-4,3.32-6,3.32a2.58,2.58,0,0,1-2.06-1,5.38,5.38,0,0,1-.83-3.4,7.28,7.28,0,0,1,.12-1.37c.08-.4.16-1,.24-1.77a28,28,0,0,1,1.7-5.35c.87-2.14,1.9-4.46,3.06-6.91s2.26-4.75,3.3-6.9c1.31-2.61,2.31-4.56,3.07-6a16.28,16.28,0,0,1,2.38-3.41,28.88,28.88,0,0,1,2.47-2.28h-5.89A4.51,4.51,0,0,0,324.17,99c-1.53,3.14-3.29,6.69-5.22,10.55s-4,7.76-6.19,11.42a68.24,68.24,0,0,1-6.62,9.52c-2.8,3.2-5.14,4.76-7.15,4.76s-2.89-1.41-2.89-4.21a16.16,16.16,0,0,1,.48-3.72,32.82,32.82,0,0,1,2.06-5.38q.84-1.8,2.1-4.44c.84-1.76,1.68-3.51,2.52-5.23s1.82-3.7,2.95-5.94a33.9,33.9,0,0,1,4.05-6.83,24.85,24.85,0,0,1,3.13-3h-6.72a4.42,4.42,0,0,0-4.34,2.5c-.89,1.79-1.94,3.83-3.12,6.07s-2.39,4.64-3.6,7.13a19.23,19.23,0,0,1-1.08,2.29c-.4.72-.76,1.4-1.08,2a1.94,1.94,0,0,0-.21.85.54.54,0,0,0,.29.51,1.42,1.42,0,0,0,.66.2h.39l-.17.36c-.88,1.85-1.83,3.77-2.82,5.71a12.92,12.92,0,0,0-1.47,5.94,7.12,7.12,0,0,0,1.32,4.7,6.91,6.91,0,0,0,3.12,2.15,10.47,10.47,0,0,0,3.11.58,9.56,9.56,0,0,0,5.84-2.28,29.89,29.89,0,0,0,5.6-5.89,74.69,74.69,0,0,0,4.66-7.18Z"/><path class="cls-2" d="M346.87,138.2q-6.84,0-9.6-3.3a12.2,12.2,0,0,1-2.76-8.1A29.82,29.82,0,0,1,337,115.52a46.34,46.34,0,0,1,5.82-10.44,27.84,27.84,0,0,1,7.68-7.26A16.12,16.12,0,0,1,359,95.24q4.56,0,6.72,2.28a7.15,7.15,0,0,1,1.68,6.12,8.56,8.56,0,0,1-2.28,4.74q-2,2.34-4.08,2.34a2.3,2.3,0,0,1-1.68-.72,34.57,34.57,0,0,0,2-2.88,13.26,13.26,0,0,0,1.56-3.24,9.06,9.06,0,0,0,.48-2.88q0-3-2.88-3-3.24,0-6.78,3.3a43.25,43.25,0,0,0-6.18,7.14,29.8,29.8,0,0,0-2.58,4.5,52.25,52.25,0,0,0-2.7,6.72,22.85,22.85,0,0,0-1.2,7.14,12.65,12.65,0,0,0,1.62,6.42q1.62,2.82,5.46,2.82a13.31,13.31,0,0,0,9.06-3.3,33.81,33.81,0,0,0,6.72-8.22q2.94-4.92,5.34-9.6.72-1.44,1.44-1.44t.6,1a2.83,2.83,0,0,1-.36,1.2q-2.88,6.24-5.88,11.4a25.36,25.36,0,0,1-7.26,8.16Q353.59,138.2,346.87,138.2Z"/><path class="cls-3" d="M346.87,138.45c-4.62,0-7.91-1.14-9.79-3.39a12.48,12.48,0,0,1-2.82-8.26,30.1,30.1,0,0,1,2.48-11.37,46.69,46.69,0,0,1,5.85-10.5,28.19,28.19,0,0,1,7.75-7.32A16.4,16.4,0,0,1,359,95c3.09,0,5.42.8,6.9,2.36a7.47,7.47,0,0,1,1.75,6.32,9,9,0,0,1-2.34,4.88c-1.41,1.61-2.84,2.42-4.27,2.42a2.54,2.54,0,0,1-1.86-.79L359,110l.14-.17a33.4,33.4,0,0,0,2-2.86,13.31,13.31,0,0,0,1.53-3.18,9,9,0,0,0,.47-2.81c0-1.85-.86-2.75-2.63-2.75-2.09,0-4.31,1.09-6.61,3.24a43.56,43.56,0,0,0-6.15,7.09,31,31,0,0,0-2.56,4.47,51.79,51.79,0,0,0-2.68,6.69,22.64,22.64,0,0,0-1.19,7.06,12.49,12.49,0,0,0,1.58,6.3c1.05,1.81,2.76,2.69,5.25,2.69a13.11,13.11,0,0,0,8.89-3.24,33.49,33.49,0,0,0,6.67-8.15c1.94-3.25,3.74-6.48,5.33-9.59.53-1.06,1.08-1.58,1.67-1.58.31,0,.85.16.85,1.21a3.05,3.05,0,0,1-.39,1.32c-1.91,4.13-3.89,8-5.89,11.41a25.63,25.63,0,0,1-7.33,8.24C355.12,137.43,351.38,138.45,346.87,138.45Zm12.12-43A15.94,15.94,0,0,0,350.6,98a27.75,27.75,0,0,0-7.61,7.19,46.11,46.11,0,0,0-5.79,10.39,29.68,29.68,0,0,0-2.44,11.18,12,12,0,0,0,2.7,7.94c1.78,2.13,4.94,3.21,9.41,3.21s8.05-1,10.83-2.95a25.19,25.19,0,0,0,7.19-8.08c2-3.43,4-7.26,5.87-11.38a2.58,2.58,0,0,0,.34-1.1c0-.71-.26-.71-.35-.71-.37,0-.79.45-1.22,1.3-1.6,3.13-3.4,6.36-5.35,9.62a34.11,34.11,0,0,1-6.77,8.28,13.59,13.59,0,0,1-9.22,3.36c-2.65,0-4.56-1-5.68-2.94a12.93,12.93,0,0,1-1.65-6.55,23.29,23.29,0,0,1,1.21-7.21,52.29,52.29,0,0,1,2.71-6.76,29.9,29.9,0,0,1,2.61-4.54,43.51,43.51,0,0,1,6.21-7.17c2.39-2.23,4.73-3.37,6.95-3.37,2.05,0,3.13,1.13,3.13,3.25a9.29,9.29,0,0,1-.5,3,13.17,13.17,0,0,1-1.58,3.3c-.67,1-1.31,1.95-1.91,2.72a2,2,0,0,0,1.34.49c1.27,0,2.58-.76,3.89-2.25a8.38,8.38,0,0,0,2.22-4.6,7,7,0,0,0-1.61-5.92C364.14,96.23,361.94,95.49,359,95.49Z"/><path class="cls-2" d="M356.71,138.68q5-10.32,10.5-21.66t11.22-22.86q5.76-11.52,11.4-22a36.86,36.86,0,0,1,3.78-5.64,5.76,5.76,0,0,1,4.62-2,10.58,10.58,0,0,1,2.52.36,6.49,6.49,0,0,0,2.76.12,44.92,44.92,0,0,0-4.26,5.88q-2.7,4.2-6,10.08t-7,12.66q-3.68,6.78-7.2,13.68t-6.54,12.9q2.4-3.12,4.92-5.88a53.4,53.4,0,0,1,4.92-4.8,52.67,52.67,0,0,1,6.66-5,67.47,67.47,0,0,1,8-4.56A16.06,16.06,0,0,1,403.51,98a4.26,4.26,0,0,1,1.2.12q-2.64,4.8-4.62,8.52c-1.32,2.48-2.69,5.16-4.08,8s-2.63,5.62-3.66,8.22a35.8,35.8,0,0,0-2,6.42,18.09,18.09,0,0,0-.36,3.24,3.49,3.49,0,0,0,.72,2.58,2.25,2.25,0,0,0,1.56.66q2,0,4.44-2.52a38.32,38.32,0,0,0,4.68-6.18q2.26-3.66,4.14-7.14c1.24-2.32,2.17-4.12,2.82-5.4q.72-1.32,1.44-1.32t.72,1a4.6,4.6,0,0,1-.36,1.44q-1.56,3.12-3.54,7a64.37,64.37,0,0,1-4.44,7.44,26.19,26.19,0,0,1-5.4,5.82,10.13,10.13,0,0,1-6.3,2.28,8.85,8.85,0,0,1-4.92-1.68Q383,134.84,383,130.4a16.78,16.78,0,0,1,.24-2.82,22.18,22.18,0,0,1,.84-3.42,25.59,25.59,0,0,1,2.4-5.34c1.11-2,2.56-4.42,4.32-7.38a7.17,7.17,0,0,0,1.2-3.24,1.27,1.27,0,0,0-1.44-1.44,7,7,0,0,0-3.24,1.2,30,30,0,0,0-5.16,4.2A83.87,83.87,0,0,0,365.23,136q-.86,1.56-1.86,1.62l-2.7.18q-1.08.12-2.16.18A3,3,0,0,0,356.71,138.68Z"/><path class="cls-3" d="M356,139.63l.51-1.06c3.25-6.65,6.78-13.94,10.5-21.66,3.62-7.51,7.4-15.2,11.22-22.86s7.67-15.06,11.41-22a37.15,37.15,0,0,1,3.81-5.68,6,6,0,0,1,4.81-2.13,11.17,11.17,0,0,1,2.58.37,6.3,6.3,0,0,0,2.65.12l.74-.14-.51.55A45.3,45.3,0,0,0,399.46,71c-1.8,2.79-3.81,6.18-6,10.07s-4.5,8.11-6.95,12.65-4.86,9.12-7.2,13.68c-2,3.87-3.78,7.4-5.45,10.71,1.12-1.38,2.26-2.71,3.42-4a60.46,60.46,0,0,1,11.63-9.89A68.08,68.08,0,0,1,397,99.7a16.44,16.44,0,0,1,6.53-2,4.25,4.25,0,0,1,1.27.14l.29.09-.14.26c-1.71,3.1-3.26,6-4.62,8.52s-2.7,5.2-4.08,8-2.62,5.62-3.65,8.21a37,37,0,0,0-2,6.37,18.41,18.41,0,0,0-.35,3.19,3.32,3.32,0,0,0,.63,2.4,2,2,0,0,0,1.4.59c1.28,0,2.71-.82,4.25-2.44a37.69,37.69,0,0,0,4.65-6.14c1.51-2.42,2.9-4.82,4.14-7.12s2.17-4.12,2.81-5.4c.54-1,1.08-1.46,1.67-1.46.36,0,1,.16,1,1.21a4.82,4.82,0,0,1-.38,1.53c-1,2.11-2.23,4.45-3.55,7a65.18,65.18,0,0,1-4.46,7.47,26.43,26.43,0,0,1-5.45,5.87,10.38,10.38,0,0,1-6.45,2.33,9.15,9.15,0,0,1-5.06-1.72c-1.75-1.16-2.63-3.29-2.63-6.33a18.28,18.28,0,0,1,.24-2.86,24.18,24.18,0,0,1,.85-3.45,26.36,26.36,0,0,1,2.42-5.39c1.11-1.94,2.56-4.42,4.32-7.38a7,7,0,0,0,1.17-3.12c0-.82-.37-1.19-1.19-1.19a7,7,0,0,0-3.12,1.17,30.71,30.71,0,0,0-5.11,4.16,94.52,94.52,0,0,0-7.42,8.38,90.82,90.82,0,0,0-9.45,15.44c-.61,1.12-1.3,1.71-2.07,1.75l-2.7.18c-.7.08-1.43.14-2.16.18a2.77,2.77,0,0,0-1.65.6Zm42.26-74.86a5.53,5.53,0,0,0-4.43,2,36.81,36.81,0,0,0-3.76,5.6c-3.72,6.89-7.56,14.28-11.39,22s-7.6,15.34-11.22,22.85-7,14.45-10.13,20.9a3.76,3.76,0,0,1,1.19-.26c.72,0,1.44-.1,2.15-.17,1.13-.09,2-.14,2.71-.19s1.14-.53,1.66-1.48a90.73,90.73,0,0,1,9.5-15.52A92.73,92.73,0,0,1,382,112a30.84,30.84,0,0,1,5.21-4.23,7.21,7.21,0,0,1,3.37-1.24,1.52,1.52,0,0,1,1.69,1.69,7.21,7.21,0,0,1-1.24,3.37c-1.76,3-3.21,5.44-4.32,7.38a26.52,26.52,0,0,0-2.38,5.29,25.69,25.69,0,0,0-.83,3.38,18.48,18.48,0,0,0-.23,2.78c0,2.86.81,4.85,2.4,5.92a8.72,8.72,0,0,0,4.79,1.63,9.91,9.91,0,0,0,6.14-2.22,26.18,26.18,0,0,0,5.35-5.77,61.92,61.92,0,0,0,4.42-7.41q2-3.9,3.54-7a4.32,4.32,0,0,0,.34-1.33c0-.71-.32-.71-.47-.71-.38,0-.8.41-1.23,1.19-.63,1.28-1.58,3.1-2.81,5.4s-2.64,4.72-4.15,7.16a39.27,39.27,0,0,1-4.71,6.22c-1.65,1.72-3.2,2.59-4.62,2.59a2.5,2.5,0,0,1-1.73-.72,3.67,3.67,0,0,1-.8-2.77,18.39,18.39,0,0,1,.36-3.28,37.12,37.12,0,0,1,2.05-6.47c1-2.59,2.27-5.36,3.67-8.24s2.75-5.54,4.09-8,2.81-5.24,4.46-8.23a5.36,5.36,0,0,0-.82,0,16,16,0,0,0-6.32,1.9,67.9,67.9,0,0,0-8,4.54,53.67,53.67,0,0,0-6.63,5,57,57,0,0,0-4.9,4.78c-1.68,1.84-3.33,3.81-4.91,5.87l-.42-.27c2-3.93,4.11-8.16,6.54-12.9,2.34-4.56,4.77-9.17,7.21-13.69s4.79-8.8,7-12.66,4.21-7.29,6-10.09a53.68,53.68,0,0,1,3.84-5.42,6.61,6.61,0,0,1-2.19-.2A10.2,10.2,0,0,0,398.23,64.77Z"/><path class="cls-2" d="M538.86,137.72q-4.56,0-6.72-3.06a12.68,12.68,0,0,1-2.16-7.5,28.61,28.61,0,0,1,2.52-11.28,43,43,0,0,1,6.12-10.08,35.46,35.46,0,0,1,8-7.38,15.38,15.38,0,0,1,8.4-2.82q4.56,0,6.72,3a12.61,12.61,0,0,1,2.16,7.56,28,28,0,0,1-2.52,11.28,47.18,47.18,0,0,1-4.08,7.14,44.69,44.69,0,0,1-6,7.14,5.86,5.86,0,0,0,5.64,3.12,7.94,7.94,0,0,0,5.46-2.4,29.13,29.13,0,0,0,4.74-5.82,69.55,69.55,0,0,0,3.84-6.9q1.68-3.48,2.76-5.64a1.24,1.24,0,0,1,1.2-.72.78.78,0,0,1,.72.42,1.46,1.46,0,0,1-.12,1.26q-.72,1.8-2.4,5.34a68.56,68.56,0,0,1-4.08,7.32,28,28,0,0,1-5.52,6.42,10.51,10.51,0,0,1-7,2.64,10.66,10.66,0,0,1-4.56-.9,9.73,9.73,0,0,1-3.12-2.22,23.89,23.89,0,0,1-5,3A12.71,12.71,0,0,1,538.86,137.72Zm1.8-2.64q3.24,0,7-3.12a11.48,11.48,0,0,1-1.44-3,9.85,9.85,0,0,1-.48-2.88,6.65,6.65,0,0,1,1-3.72,3.53,3.53,0,0,1,3.18-1.56,3.31,3.31,0,0,1,2.58,1.14,3.77,3.77,0,0,1,1,2.58,3.37,3.37,0,0,1-.06.66,5.55,5.55,0,0,1-.18.66,40.76,40.76,0,0,0,3.84-6.48q4-8.52,4-14A7.5,7.5,0,0,0,560,101a3.68,3.68,0,0,0-3.24-1.56,9.44,9.44,0,0,0-5.46,2.16,27.63,27.63,0,0,0-5.64,5.76,43.87,43.87,0,0,0-4.74,8,57.57,57.57,0,0,0-3.06,7.86,23.18,23.18,0,0,0-1.14,6.54,6.82,6.82,0,0,0,1,3.84A3.35,3.35,0,0,0,540.66,135.08Z"/><path class="cls-3" d="M538.86,138c-3.11,0-5.44-1.06-6.92-3.16a13,13,0,0,1-2.21-7.65,29.14,29.14,0,0,1,2.54-11.38,43.75,43.75,0,0,1,6.16-10.13,35.6,35.6,0,0,1,8.1-7.44,15.76,15.76,0,0,1,8.53-2.86c3.11,0,5.44,1.05,6.93,3.11a12.91,12.91,0,0,1,2.2,7.7,28.3,28.3,0,0,1-2.54,11.38,47.19,47.19,0,0,1-4.1,7.18,45.32,45.32,0,0,1-5.89,7.05,6.22,6.22,0,0,0,1.86,2,6.11,6.11,0,0,0,3.46.85,7.71,7.71,0,0,0,5.29-2.33,28.92,28.92,0,0,0,4.7-5.77,69.93,69.93,0,0,0,3.83-6.87c1.15-2.39,2.05-4.24,2.76-5.65a1.5,1.5,0,0,1,1.42-.86,1,1,0,0,1,.94.55,1.65,1.65,0,0,1-.11,1.48c-.48,1.19-1.28,3-2.4,5.35a69.18,69.18,0,0,1-4.1,7.35,28.2,28.2,0,0,1-5.57,6.47,10.74,10.74,0,0,1-7.12,2.7,10.94,10.94,0,0,1-4.66-.92,10.07,10.07,0,0,1-3.05-2.11,24.2,24.2,0,0,1-4.91,2.89A13,13,0,0,1,538.86,138Zm16.2-42.12a15.27,15.27,0,0,0-8.26,2.78,35.42,35.42,0,0,0-8,7.33,43,43,0,0,0-6.09,10,28.53,28.53,0,0,0-2.5,11.18,12.45,12.45,0,0,0,2.12,7.36c1.38,2,3.57,2.95,6.51,2.95a12.38,12.38,0,0,0,4.94-1.06,23,23,0,0,0,5-3l.18-.13.16.17a9.53,9.53,0,0,0,3,2.16,10.48,10.48,0,0,0,4.45.87,10.26,10.26,0,0,0,6.8-2.58,27.68,27.68,0,0,0,5.47-6.36,69.89,69.89,0,0,0,4.07-7.29c1.11-2.35,1.92-4.14,2.39-5.33a1.3,1.3,0,0,0,.14-1,.55.55,0,0,0-.51-.3,1,1,0,0,0-1,.59c-.71,1.4-1.61,3.25-2.76,5.63a68,68,0,0,1-3.86,6.93,29.29,29.29,0,0,1-4.78,5.87,8.23,8.23,0,0,1-5.63,2.46,6.09,6.09,0,0,1-5.86-3.25l-.09-.16.14-.14a44.65,44.65,0,0,0,6-7.1,46.08,46.08,0,0,0,4.05-7.1,27.87,27.87,0,0,0,2.5-11.18,12.44,12.44,0,0,0-2.11-7.41C560.2,96.83,558,95.85,555.06,95.85Zm-14.4,39.48a3.58,3.58,0,0,1-3.2-1.55,7,7,0,0,1-1-4,23.61,23.61,0,0,1,1.15-6.61,58.1,58.1,0,0,1,3.08-7.89,44.73,44.73,0,0,1,4.76-8.09,28.15,28.15,0,0,1,5.7-5.81,9.74,9.74,0,0,1,5.6-2.21,3.94,3.94,0,0,1,3.45,1.67,7.83,7.83,0,0,1,1.12,4.46c0,3.71-1.34,8.46-4,14.15a40.53,40.53,0,0,1-3.87,6.52l-.92,1.25.49-1.47c.07-.24.13-.44.17-.64a3.67,3.67,0,0,0,0-.61,3.5,3.5,0,0,0-1-2.41,3.06,3.06,0,0,0-2.4-1.06,3.28,3.28,0,0,0-3,1.45,6.42,6.42,0,0,0-1,3.58,9.65,9.65,0,0,0,.47,2.81,11.49,11.49,0,0,0,1.41,2.94l.13.18-.18.15C545.27,134.26,542.87,135.33,540.66,135.33Zm16.08-35.64a9.27,9.27,0,0,0-5.31,2.11,27.64,27.64,0,0,0-5.59,5.71,44.33,44.33,0,0,0-4.71,8,57.15,57.15,0,0,0-3,7.83A22.93,22.93,0,0,0,537,129.8a6.58,6.58,0,0,0,.92,3.7,3.08,3.08,0,0,0,2.79,1.33c2,0,4.27-1,6.63-2.92a11.72,11.72,0,0,1-1.35-2.87,10.33,10.33,0,0,1-.49-3,6.92,6.92,0,0,1,1.06-3.85,3.79,3.79,0,0,1,3.39-1.68,3.56,3.56,0,0,1,2.77,1.23,4,4,0,0,1,1.08,2.74v.21a43,43,0,0,0,3.13-5.48c2.61-5.61,3.93-10.3,3.93-13.93a7.32,7.32,0,0,0-1-4.17A3.42,3.42,0,0,0,556.74,99.69Z"/><path class="cls-2" d="M559,179.84a8.13,8.13,0,0,1-4.62-1.32q-2-1.32-2-5.16,0-6,3.6-16.32t8.76-22.68a9.65,9.65,0,0,1-1.44-5q0-4.2,2.4-5.76a5.29,5.29,0,0,1,4.32-1.32q4.32-9.72,8.76-19.14t8.58-17.82q4.14-8.4,7.5-14.76a23.59,23.59,0,0,1,4.26-6.12A8,8,0,0,1,605,62.24a9.8,9.8,0,0,1,2.58.42,7.36,7.36,0,0,0,2.7.3,55.93,55.93,0,0,0-6.9,8.82q-4.14,6.18-8.94,14.7t-9.78,18.42q-5,9.9-9.54,20.1a22.79,22.79,0,0,1,2.22,3.84,19.92,19.92,0,0,1,1.62,5.16,2.85,2.85,0,0,0,.12.78q.12.42.24.78a7.94,7.94,0,0,0,5.34-1.92,25.08,25.08,0,0,0,4.92-5.4,69.57,69.57,0,0,0,4.32-7.08q2-3.72,3.42-7a1.32,1.32,0,0,1,.66-.66,1.82,1.82,0,0,1,.66-.18.78.78,0,0,1,.72.42,1.46,1.46,0,0,1-.12,1.26q-1.68,3.72-3.72,7.74a52.75,52.75,0,0,1-4.56,7.44,25.36,25.36,0,0,1-5.4,5.52,10.21,10.21,0,0,1-6.12,2.1,12.29,12.29,0,0,1,.12,1.74v1.86a59.46,59.46,0,0,1-1.5,13,58,58,0,0,1-4.26,12.48,32.26,32.26,0,0,1-6.48,9.36A11.65,11.65,0,0,1,559,179.84Zm1.8-3.24a4.93,4.93,0,0,0,2.88-1.38,18.75,18.75,0,0,0,3.24-3.54,41.07,41.07,0,0,0,5.28-9.72,74.35,74.35,0,0,0,3.6-12,50.93,50.93,0,0,0,1.2-11.64,2.78,2.78,0,0,0-.54.06,2.78,2.78,0,0,1-.54.06,9.62,9.62,0,0,1-3.24-.6,9.9,9.9,0,0,1-2.76-1.44q-3.12,8-5.82,15.9T560,166.16q-.48,2.28-.72,4A20.82,20.82,0,0,0,559,173Q559,176.6,560.82,176.6ZM576.06,136h.6a15.41,15.41,0,0,0-1.08-5.4,10.36,10.36,0,0,0-1.8-2.88q-.72,1.68-1.26,3.06t-1.26,3.06Q572.34,136,576.06,136Z"/><path class="cls-3" d="M559,180.09a8.38,8.38,0,0,1-4.76-1.36c-1.38-.92-2.09-2.73-2.09-5.37,0-4,1.22-9.53,3.62-16.4s5.3-14.38,8.71-22.58a10,10,0,0,1-1.41-5.06c0-2.87.85-4.88,2.52-6a5.52,5.52,0,0,1,4.3-1.38c2.85-6.41,5.77-12.8,8.69-19s5.83-12.24,8.58-17.83,5.28-10.57,7.5-14.76A24.13,24.13,0,0,1,599,64.22,8.26,8.26,0,0,1,605,62a10.34,10.34,0,0,1,2.65.43,7.06,7.06,0,0,0,2.61.29l.72-.07-.53.5a57.06,57.06,0,0,0-6.86,8.78c-2.75,4.11-5.75,9-8.93,14.69s-6.48,11.86-9.78,18.41-6.46,13.22-9.47,20a24.52,24.52,0,0,1,2.16,3.77,20.38,20.38,0,0,1,1.64,5.22,2.72,2.72,0,0,0,.11.75c.06.22.12.42.18.61h.13a7.87,7.87,0,0,0,4.88-1.87,25.1,25.1,0,0,0,4.87-5.35,69,69,0,0,0,4.3-7c1.31-2.46,2.46-4.79,3.41-7a1.64,1.64,0,0,1,.79-.79,2.19,2.19,0,0,1,.76-.2,1,1,0,0,1,.94.55,1.65,1.65,0,0,1-.11,1.48c-1.12,2.49-2.38,5.1-3.72,7.76a54.19,54.19,0,0,1-4.59,7.47,25.88,25.88,0,0,1-5.45,5.58,10.57,10.57,0,0,1-6,2.14,14.72,14.72,0,0,1,.08,1.49v1.86a60,60,0,0,1-1.5,13A58.5,58.5,0,0,1,574,167a32.8,32.8,0,0,1-6.53,9.43A11.93,11.93,0,0,1,559,180.09Zm10.26-57.66a5.22,5.22,0,0,0-3.38,1.33c-1.54,1-2.31,2.87-2.31,5.56a9.35,9.35,0,0,0,1.41,4.91l.06.11,0,.12c-3.43,8.23-6.38,15.85-8.75,22.67s-3.59,12.28-3.59,16.23c0,2.46.63,4.13,1.87,5a8,8,0,0,0,4.48,1.27,11.43,11.43,0,0,0,8.11-3.53,32.24,32.24,0,0,0,6.43-9.28,58.3,58.3,0,0,0,4.24-12.43,59.67,59.67,0,0,0,1.49-12.91v-1.86a11.83,11.83,0,0,0-.12-1.7l0-.29h.29a10,10,0,0,0,6-2.05,25.06,25.06,0,0,0,5.35-5.46,53.26,53.26,0,0,0,4.54-7.41c1.34-2.65,2.59-5.25,3.71-7.73a1.22,1.22,0,0,0,.13-1,.53.53,0,0,0-.5-.3,1.64,1.64,0,0,0-.56.16,1.06,1.06,0,0,0-.53.55c-1,2.15-2.12,4.5-3.43,7a68.33,68.33,0,0,1-4.33,7.11,25.56,25.56,0,0,1-5,5.45,8.19,8.19,0,0,1-5.51,2h-.17l-.06-.17c-.08-.24-.16-.5-.24-.79a3.25,3.25,0,0,1-.13-.85A20.21,20.21,0,0,0,577.1,129a23.73,23.73,0,0,0-2.2-3.8l-.09-.11.06-.14c3-6.78,6.25-13.55,9.55-20.11S591,92,594.2,86.36s6.2-10.6,8.95-14.72a61.38,61.38,0,0,1,6.48-8.4,8.18,8.18,0,0,1-2.14-.34,9.7,9.7,0,0,0-2.51-.41,7.79,7.79,0,0,0-5.64,2.09,23.37,23.37,0,0,0-4.22,6.06c-2.21,4.19-4.73,9.16-7.49,14.75S582,97,579.05,103.21s-5.88,12.67-8.76,19.13l-.08.18-.19,0A4.71,4.71,0,0,0,569.28,122.43Zm-8.46,54.42c-1.36,0-2.05-1.29-2.05-3.85a21.33,21.33,0,0,1,.24-2.91c.17-1.12.41-2.46.73-4,1-4,2.35-8.67,4.15-13.89s3.76-10.61,5.82-15.91l.12-.31.27.21a9.66,9.66,0,0,0,2.69,1.4,9.32,9.32,0,0,0,3.15.58,3.13,3.13,0,0,0,.49-.05,3.25,3.25,0,0,1,.59-.07h.25v.25a52,52,0,0,1-1.2,11.7,75.57,75.57,0,0,1-3.62,12,41.13,41.13,0,0,1-5.31,9.77,18.9,18.9,0,0,1-3.28,3.59A5.13,5.13,0,0,1,560.82,176.85Zm9.24-40c-2,5.19-3.93,10.43-5.7,15.58s-3.18,9.87-4.13,13.84c-.32,1.5-.56,2.83-.72,3.94a20.31,20.31,0,0,0-.24,2.84c0,2.23.52,3.35,1.55,3.35a4.7,4.7,0,0,0,2.72-1.32,18.22,18.22,0,0,0,3.2-3.49,41.4,41.4,0,0,0,5.25-9.67,75.28,75.28,0,0,0,3.59-12,51.55,51.55,0,0,0,1.2-11.32l-.25,0a3.28,3.28,0,0,1-.59.06,9.83,9.83,0,0,1-3.32-.61A10.54,10.54,0,0,1,570.06,136.8Zm6.86-.51h-.86c-2.57,0-4.26-.77-5-2.29l0-.11,0-.11c.47-1.09.9-2.12,1.26-3.05s.79-1.95,1.26-3.07l.16-.35.26.29a10.8,10.8,0,0,1,1.84,2.94,15.74,15.74,0,0,1,1.1,5.49Zm-5.38-2.42c.7,1.28,2.22,1.92,4.52,1.92h.34a15,15,0,0,0-1-5,10.5,10.5,0,0,0-1.5-2.51c-.41,1-.78,1.87-1.09,2.68S572,132.81,571.54,133.87Z"/><path class="cls-2" d="M670,149a65.73,65.73,0,0,1-16.68-2.1,47.86,47.86,0,0,1-14.4-6.3A32.34,32.34,0,0,1,628.8,130,28.82,28.82,0,0,1,625,115a45,45,0,0,1,2.28-13.56,20.1,20.1,0,0,1,3.78-7,20.61,20.61,0,0,1,5.1-4.44,9.1,9.1,0,0,1,4.2-1.56q2,0,1.68,1.92a12,12,0,0,1-2.46,2,30.39,30.39,0,0,0-3.72,2.94,21.32,21.32,0,0,0-3.72,4.62,19.71,19.71,0,0,0-2.46,7.14q-.24,1.56-.42,3.12a26.19,26.19,0,0,0-.18,3,27.76,27.76,0,0,0,3.36,13.8,30.62,30.62,0,0,0,8.82,10,40.06,40.06,0,0,0,12,5.94,41.62,41.62,0,0,0,12.9,1.86,60.69,60.69,0,0,0,17.28-2.7,51.2,51.2,0,0,0,13.44-6.54,59.53,59.53,0,0,0,10.32-9,71.63,71.63,0,0,0,7.44-10q3.72-5.88,7.26-12.66t6.72-13.5q3.18-6.72,5.94-12.72t4.8-10.26a35,35,0,0,1,3.36-5.94A169.33,169.33,0,0,0,724.56,57,138.09,138.09,0,0,0,706,54.92a40.73,40.73,0,0,0-16,2,36.51,36.51,0,0,0-11.88,6.78,31.52,31.52,0,0,0-7.44,9.3,21.31,21.31,0,0,0-2.58,9.72A12.87,12.87,0,0,0,670.2,90a11.86,11.86,0,0,0,6.42,4.62,20.09,20.09,0,0,0,5.64.84,15.32,15.32,0,0,0,7.56-1.8,19.8,19.8,0,0,0,5.46-4.38,23.45,23.45,0,0,0,3.36-4.92A9.16,9.16,0,0,0,699.78,81v-.12a1.64,1.64,0,0,1,1.2-.72q1.2,0,1.2,1.68a17.35,17.35,0,0,1-3.66,9,20.57,20.57,0,0,1-7.38,5.88,21.1,21.1,0,0,1-9.12,2,19.67,19.67,0,0,1-6.48-1.08,19,19,0,0,1-10-7.74,21.34,21.34,0,0,1-3.36-11.58,26,26,0,0,1,2.28-10.5,29.14,29.14,0,0,1,7-9.6,34.92,34.92,0,0,1,11.64-7,45.93,45.93,0,0,1,16.32-2.64h2.52q1,0,3.24.24a76.87,76.87,0,0,1,11.4,1.86q5.76,1.38,11,3.06T737.34,57q4.44,1.56,7.32,2.28a11.13,11.13,0,0,1,2.1-1.68q1.74-1.2,3.6-2.52a35.34,35.34,0,0,0,2.94-2.28q1.08-1,.12-1h-.12a3.12,3.12,0,0,1,1-.12,2.13,2.13,0,0,1,1.8.78,2.63,2.63,0,0,1,.6,1.62q0,1.56-1.44,1.56a3.93,3.93,0,0,1-1-.24q-.48-.48-1.74.48A25.06,25.06,0,0,0,750,58.1q-1.26,1.26-2,2.1,2.64.84,6.66,2t8.64,2.28q4.62,1.14,9.06,1.86a50.06,50.06,0,0,0,7.92.72,13.94,13.94,0,0,0,5.34-.84,2.85,2.85,0,0,0,2-2.76,2.55,2.55,0,0,1,.3-1.26,1.19,1.19,0,0,1,1.14-.54q.6,0,.84,1a7.5,7.5,0,0,1,.24,1.62q0,2.88-3.06,4.68a14.82,14.82,0,0,1-7.62,1.8q-.72,0-1.44-.06t-1.56-.18Q763,68.84,755.52,66.2t-9.42-3.48a102.27,102.27,0,0,0-8.88,17.76q-3.48,9.12-6.54,18.24a162.24,162.24,0,0,1-7.08,17.64A69.55,69.55,0,0,1,713,132.44a42.37,42.37,0,0,1-11.7,9.12,59.65,59.65,0,0,1-14.94,5.58A72.17,72.17,0,0,1,670,149Z"/><path class="cls-3" d="M670,149.25a66.72,66.72,0,0,1-16.74-2.1,48.65,48.65,0,0,1-14.48-6.34,32.7,32.7,0,0,1-10.21-10.64A29.21,29.21,0,0,1,624.77,115a45.46,45.46,0,0,1,2.29-13.63,20.62,20.62,0,0,1,3.83-7,21.08,21.08,0,0,1,5.16-4.49,9.22,9.22,0,0,1,4.33-1.6,2,2,0,0,1,1.65.6,1.88,1.88,0,0,1,.28,1.62l0,.06,0,.06a12.26,12.26,0,0,1-2.51,2,30,30,0,0,0-3.69,2.92,21,21,0,0,0-3.67,4.56,19.54,19.54,0,0,0-2.43,7c-.16,1-.3,2-.42,3.11a25.82,25.82,0,0,0-.18,3,27.6,27.6,0,0,0,3.33,13.68,30.46,30.46,0,0,0,8.75,9.88,39.88,39.88,0,0,0,11.92,5.9,41.17,41.17,0,0,0,12.83,1.85,60.9,60.9,0,0,0,17.2-2.68,51.37,51.37,0,0,0,13.38-6.51,60.22,60.22,0,0,0,10.28-9,72.61,72.61,0,0,0,7.41-9.93c2.47-3.9,4.91-8.15,7.25-12.64s4.62-9.06,6.72-13.49,4.09-8.71,5.93-12.72,3.46-7.45,4.81-10.26a37.94,37.94,0,0,1,3.17-5.7,169.4,169.4,0,0,0-17.81-4.39A139.27,139.27,0,0,0,706,55.17a40.78,40.78,0,0,0-15.92,2,36.3,36.3,0,0,0-11.8,6.73,31.36,31.36,0,0,0-7.39,9.23,21.17,21.17,0,0,0-2.55,9.6,12.68,12.68,0,0,0,2.06,7.13,11.69,11.69,0,0,0,6.29,4.52,20.18,20.18,0,0,0,5.56.82,15.05,15.05,0,0,0,7.44-1.77,19.61,19.61,0,0,0,5.39-4.32,23.13,23.13,0,0,0,3.33-4.87A9,9,0,0,0,699.53,81v-.21l.06-.07a1.89,1.89,0,0,1,1.39-.81c.66,0,1.45.34,1.45,1.93A17.68,17.68,0,0,1,698.72,91a21,21,0,0,1-7.47,6A21.42,21.42,0,0,1,682,99a19.89,19.89,0,0,1-6.56-1.09A19.29,19.29,0,0,1,665.37,90,21.73,21.73,0,0,1,662,78.32a26.52,26.52,0,0,1,2.3-10.6,29.63,29.63,0,0,1,7-9.68A35.33,35.33,0,0,1,683,51a46.47,46.47,0,0,1,16.41-2.66h2.52c.65,0,1.71.08,3.27.24a77.73,77.73,0,0,1,11.43,1.87c3.81.91,7.53,1.95,11.06,3.07s6.77,2.2,9.72,3.24,5.27,1.75,7.15,2.23a13.58,13.58,0,0,1,2-1.6q1.74-1.2,3.6-2.52c1.23-.88,2.21-1.64,2.92-2.26a2.29,2.29,0,0,0,.46-.51.68.68,0,0,0-.18,0h-1.68l1.48-.48a3.31,3.31,0,0,1,1-.14,2.39,2.39,0,0,1,2,.88,2.91,2.91,0,0,1,.65,1.77c0,1.5-.92,1.81-1.69,1.81a3.41,3.41,0,0,1-1-.25l-.09-.06c-.29-.28-1,.19-1.42.5a24.71,24.71,0,0,0-2.49,2.2c-.69.69-1.27,1.3-1.72,1.8,1.67.53,3.79,1.15,6.29,1.86s5.53,1.52,8.63,2.28,6.09,1.38,9,1.86a50.57,50.57,0,0,0,7.88.71,13.62,13.62,0,0,0,5.24-.82,2.6,2.6,0,0,0,1.83-2.53,2.82,2.82,0,0,1,.33-1.38,1.43,1.43,0,0,1,1.36-.67c.53,0,.89.41,1.08,1.22a7.39,7.39,0,0,1,.25,1.67c0,2-1.07,3.66-3.18,4.9A15.12,15.12,0,0,1,779.46,71c-.5,0-1,0-1.46-.06s-1-.1-1.57-.18c-8.93-1.11-16-2.57-21-4.33-4.74-1.67-7.84-2.81-9.24-3.4a102,102,0,0,0-8.74,17.53c-2.3,6-4.5,12.16-6.54,18.23a162.78,162.78,0,0,1-7.09,17.67,70.28,70.28,0,0,1-10.66,16.14,42.71,42.71,0,0,1-11.77,9.17,60.29,60.29,0,0,1-15,5.61A72.76,72.76,0,0,1,670,149.25ZM640.38,88.77a9,9,0,0,0-4.07,1.53,20.34,20.34,0,0,0-5,4.39,19.74,19.74,0,0,0-3.73,6.87A44.79,44.79,0,0,0,625.27,115,28.7,28.7,0,0,0,629,129.92a32.11,32.11,0,0,0,10.06,10.47,47.59,47.59,0,0,0,14.32,6.27A65.77,65.77,0,0,0,670,148.75a72.43,72.43,0,0,0,16.27-1.85,59.64,59.64,0,0,0,14.87-5.56,42,42,0,0,0,11.63-9.06,69.61,69.61,0,0,0,10.59-16,161.81,161.81,0,0,0,7.06-17.62c2-6.08,4.25-12.22,6.55-18.25a103.08,103.08,0,0,1,8.9-17.8l.11-.18.2.08c1.28.56,4.44,1.73,9.4,3.48s12,3.19,20.89,4.31c.55.07,1.07.13,1.55.17s.94.06,1.42.06a14.71,14.71,0,0,0,7.5-1.76c2-1.16,2.93-2.63,2.93-4.47a7.66,7.66,0,0,0-.23-1.56c-.13-.55-.33-.83-.6-.83a1,1,0,0,0-.92.41,2.32,2.32,0,0,0-.27,1.14,3.09,3.09,0,0,1-2.13,3,14.23,14.23,0,0,1-5.44.86,50.52,50.52,0,0,1-8-.72c-3-.48-6-1.11-9.08-1.86s-6-1.54-8.65-2.29-4.91-1.42-6.66-2l-.36-.11.24-.29c.49-.57,1.16-1.28,2-2.11a25.79,25.79,0,0,1,2.54-2.25c.35-.26,1.38-1,2-.5a3,3,0,0,0,.83.21c.82,0,1.19-.4,1.19-1.31a2.36,2.36,0,0,0-.55-1.46,1.88,1.88,0,0,0-1.6-.69h-.14c0,.26-.15.56-.65,1a36.2,36.2,0,0,1-3,2.3l-3.61,2.52a10.73,10.73,0,0,0-2,1.62l-.1.14-.16,0c-1.92-.48-4.39-1.25-7.34-2.29S731,55.08,727.55,54s-7.22-2.14-11-3.05a76.57,76.57,0,0,0-11.36-1.86c-1.54-.16-2.59-.24-3.22-.24h-2.52a45.91,45.91,0,0,0-16.23,2.63,34.9,34.9,0,0,0-11.56,7,29,29,0,0,0-6.9,9.51,25.91,25.91,0,0,0-2.26,10.4,21.21,21.21,0,0,0,3.32,11.45,18.84,18.84,0,0,0,9.84,7.64A19.38,19.38,0,0,0,682,98.47a21,21,0,0,0,9-2,20.42,20.42,0,0,0,7.3-5.81,17.16,17.16,0,0,0,3.6-8.88c0-1.25-.54-1.4-.95-1.4a1.35,1.35,0,0,0-1,.57v0a9.29,9.29,0,0,1-1.16,3.53,23.76,23.76,0,0,1-3.4,5,20.14,20.14,0,0,1-5.53,4.43,15.55,15.55,0,0,1-7.68,1.83,20.17,20.17,0,0,1-5.71-.85A12.14,12.14,0,0,1,670,90.16a13.18,13.18,0,0,1-2.14-7.4,21.66,21.66,0,0,1,2.61-9.83,31.72,31.72,0,0,1,7.5-9.37,36.82,36.82,0,0,1,12-6.83A41.18,41.18,0,0,1,706,54.67a138.48,138.48,0,0,1,18.58,2.11,169.64,169.64,0,0,1,18.2,4.5l.36.11-.23.29a34.78,34.78,0,0,0-3.33,5.89c-1.35,2.81-3,6.26-4.8,10.26s-3.85,8.29-5.94,12.72-4.36,9-6.73,13.51-4.79,8.77-7.27,12.68a72.67,72.67,0,0,1-7.46,10,60.09,60.09,0,0,1-10.37,9,51.66,51.66,0,0,1-13.5,6.57,61.24,61.24,0,0,1-17.35,2.71,42,42,0,0,1-13-1.87,40.39,40.39,0,0,1-12.07-6,31.13,31.13,0,0,1-8.9-10,28.17,28.17,0,0,1-3.39-13.93,26.84,26.84,0,0,1,.18-3c.13-1.07.27-2.12.43-3.12A20,20,0,0,1,632,99.85a21.49,21.49,0,0,1,3.76-4.67,32.86,32.86,0,0,1,3.75-3,12,12,0,0,0,2.37-1.88,1.46,1.46,0,0,0-.18-1.15A1.61,1.61,0,0,0,640.38,88.77Z"/><path class="cls-2" d="M727.26,138.68q5-10.32,10.5-21.66T749,94.16q5.76-11.52,11.4-22a36.86,36.86,0,0,1,3.78-5.64,5.77,5.77,0,0,1,4.62-2,10.58,10.58,0,0,1,2.52.36,6.49,6.49,0,0,0,2.76.12,45.89,45.89,0,0,0-4.26,5.88q-2.7,4.2-6,10.08t-7,12.66q-3.66,6.78-7.2,13.68t-6.54,12.9q2.4-3.12,4.92-5.88a60.83,60.83,0,0,1,11.58-9.84,68.26,68.26,0,0,1,8-4.56A16.1,16.1,0,0,1,774.06,98a4.21,4.21,0,0,1,1.2.12q-2.64,4.8-4.62,8.52t-4.08,8q-2.1,4.32-3.66,8.22a36.64,36.64,0,0,0-2,6.42,18.09,18.09,0,0,0-.36,3.24,3.49,3.49,0,0,0,.72,2.58,2.27,2.27,0,0,0,1.56.66q2,0,4.44-2.52a38.32,38.32,0,0,0,4.68-6.18q2.28-3.66,4.14-7.14t2.82-5.4q.72-1.32,1.44-1.32t.72,1a4.6,4.6,0,0,1-.36,1.44q-1.56,3.12-3.54,7a63,63,0,0,1-4.44,7.44,26.19,26.19,0,0,1-5.4,5.82,10.09,10.09,0,0,1-6.3,2.28,8.87,8.87,0,0,1-4.92-1.68q-2.52-1.68-2.52-6.12a17.9,17.9,0,0,1,.24-2.82,24.77,24.77,0,0,1,.84-3.42,26.13,26.13,0,0,1,2.4-5.34q1.68-2.94,4.32-7.38a7.05,7.05,0,0,0,1.2-3.24,1.27,1.27,0,0,0-1.44-1.44,7.05,7.05,0,0,0-3.24,1.2,30.4,30.4,0,0,0-5.16,4.2,92.11,92.11,0,0,0-7.44,8.4A90.24,90.24,0,0,0,735.78,136q-.84,1.56-1.86,1.62l-2.7.18q-1.08.12-2.16.18A3,3,0,0,0,727.26,138.68Z"/><path class="cls-3" d="M726.52,139.63l.52-1.06c3.25-6.65,6.78-13.94,10.5-21.66,3.61-7.51,7.39-15.2,11.22-22.86s7.67-15.06,11.4-22A37.15,37.15,0,0,1,764,66.4a6,6,0,0,1,4.81-2.13,11,11,0,0,1,2.58.37,6.35,6.35,0,0,0,2.66.12l.74-.14-.52.55A46.3,46.3,0,0,0,770,71c-1.79,2.79-3.81,6.18-6,10.07s-4.51,8.11-7,12.65-4.86,9.12-7.2,13.68c-2,3.87-3.78,7.4-5.44,10.71,1.12-1.38,2.26-2.71,3.42-4a54,54,0,0,1,4.94-4.83,54.71,54.71,0,0,1,6.68-5.06,68.88,68.88,0,0,1,8.07-4.57,16.48,16.48,0,0,1,6.53-2,4.33,4.33,0,0,1,1.28.14l.29.09-.15.26c-1.71,3.1-3.26,6-4.62,8.52s-2.7,5.2-4.07,8-2.63,5.62-3.66,8.21a36,36,0,0,0-2,6.37,17.6,17.6,0,0,0-.36,3.19,3.32,3.32,0,0,0,.64,2.4,2,2,0,0,0,1.39.59c1.28,0,2.72-.82,4.26-2.44a38.27,38.27,0,0,0,4.65-6.14c1.51-2.42,2.9-4.82,4.13-7.12s2.18-4.12,2.82-5.4c.53-1,1.08-1.46,1.66-1.46.36,0,1,.16,1,1.21a4.56,4.56,0,0,1-.38,1.53c-1,2.11-2.23,4.45-3.55,7a63.7,63.7,0,0,1-4.45,7.47,26.46,26.46,0,0,1-5.46,5.87,10.34,10.34,0,0,1-6.45,2.33,9.18,9.18,0,0,1-5.06-1.72c-1.74-1.16-2.63-3.29-2.63-6.33a18.28,18.28,0,0,1,.24-2.86,25.61,25.61,0,0,1,.85-3.45,26.91,26.91,0,0,1,2.42-5.39c1.11-1.94,2.56-4.42,4.33-7.38a6.93,6.93,0,0,0,1.16-3.12c0-.82-.37-1.19-1.19-1.19a6.91,6.91,0,0,0-3.11,1.17,30.3,30.3,0,0,0-5.12,4.16,94.69,94.69,0,0,0-7.41,8.38A90.14,90.14,0,0,0,736,136.16c-.6,1.12-1.3,1.71-2.06,1.75l-2.7.18c-.71.08-1.44.14-2.17.18a2.77,2.77,0,0,0-1.65.6Zm42.26-74.86a5.56,5.56,0,0,0-4.43,2,36.13,36.13,0,0,0-3.75,5.6c-3.73,6.89-7.56,14.28-11.4,22s-7.6,15.34-11.21,22.85-7,14.45-10.13,20.9a3.64,3.64,0,0,1,1.19-.26c.72,0,1.44-.1,2.14-.17,1.13-.09,2-.14,2.72-.19s1.14-.53,1.65-1.48a90.06,90.06,0,0,1,9.51-15.52,92.73,92.73,0,0,1,7.46-8.43,30.84,30.84,0,0,1,5.2-4.23,7.28,7.28,0,0,1,3.37-1.24,1.51,1.51,0,0,1,1.69,1.69,7.17,7.17,0,0,1-1.23,3.37c-1.76,3-3.22,5.44-4.32,7.38a25.43,25.43,0,0,0-2.38,5.29,22.86,22.86,0,0,0-.83,3.38,17.32,17.32,0,0,0-.24,2.78c0,2.86.81,4.85,2.41,5.92A8.71,8.71,0,0,0,761,138a10,10,0,0,0,6.15-2.22,26.42,26.42,0,0,0,5.35-5.77,64.68,64.68,0,0,0,4.42-7.41q2-3.9,3.54-7a4.54,4.54,0,0,0,.33-1.33c0-.71-.32-.71-.47-.71-.37,0-.79.41-1.22,1.19-.64,1.28-1.59,3.1-2.82,5.4s-2.63,4.72-4.15,7.16a38.68,38.68,0,0,1-4.71,6.22c-1.64,1.72-3.2,2.59-4.62,2.59a2.54,2.54,0,0,1-1.73-.72,3.67,3.67,0,0,1-.8-2.77,18.39,18.39,0,0,1,.36-3.28,38.18,38.18,0,0,1,2.06-6.47c1-2.59,2.27-5.36,3.67-8.24s2.75-5.54,4.08-8,2.82-5.24,4.46-8.23a5.36,5.36,0,0,0-.82,0,15.94,15.94,0,0,0-6.31,1.9,67.11,67.11,0,0,0-8,4.54,53.67,53.67,0,0,0-6.63,5,54.28,54.28,0,0,0-4.9,4.78c-1.68,1.84-3.33,3.81-4.91,5.87l-.42-.27c2-3.93,4.1-8.16,6.54-12.9,2.34-4.56,4.76-9.17,7.2-13.69s4.8-8.8,7-12.66,4.21-7.29,6-10.09a57.13,57.13,0,0,1,3.84-5.42,6.64,6.64,0,0,1-2.19-.2A10.13,10.13,0,0,0,768.78,64.77Z"/><path class="cls-2" d="M804.78,138.08a6.27,6.27,0,0,1-3-.6,6.77,6.77,0,0,1-2.94-2.64,9.8,9.8,0,0,1-1.26-5.4,27.94,27.94,0,0,1,1.08-7q-1.44,2.28-3.72,5.58a37.38,37.38,0,0,1-4.92,5.82A17,17,0,0,1,785.7,137a8.84,8.84,0,0,1-3.72,1,5.85,5.85,0,0,1-5-2.82,12.87,12.87,0,0,1-1.92-7.38,30.39,30.39,0,0,1,2.4-10.92,48.34,48.34,0,0,1,7.8-12.72,27,27,0,0,1,8.46-6.78,21.16,21.16,0,0,1,9.78-2.58,15.58,15.58,0,0,1,5.28.9,11.22,11.22,0,0,1,4.44,2.94,2.64,2.64,0,0,1,.84,1.92,1.48,1.48,0,0,1-.6,1.2,1.71,1.71,0,0,1-1.56.24,5.44,5.44,0,0,0-5.64-4.2,10.72,10.72,0,0,0-4.68,1.32,31.61,31.61,0,0,0-8.46,7.08,71.93,71.93,0,0,0-7.62,10.2,30.07,30.07,0,0,0-1.5,2.76q-1,2-2,4.56a23.71,23.71,0,0,0-1.32,4.92,7.2,7.2,0,0,0-.12,1v.9q0,4,3,4,3.6,0,8.16-5.28a69.18,69.18,0,0,0,5.64-8q2.52-4.2,5.16-9a54.81,54.81,0,0,1,3.36-5.4,5.15,5.15,0,0,1,4.44-2.16,10,10,0,0,1,2.64.36,6.38,6.38,0,0,0,2.76.12,21.38,21.38,0,0,0-2.58,3.6q-1.62,2.64-3.42,6t-3.24,6.84a41,41,0,0,0-2,6q-.12.72-.3,2a16,16,0,0,0-.18,1.92q0,3.36,1.92,3.36t4.14-2.28a35.89,35.89,0,0,0,4.38-5.64q2.16-3.36,4-6.78t2.88-5.58q.48-1.2,1.44-1.2.6,0,.6.84a4.67,4.67,0,0,1-.36,1.32q-1.44,3-3.48,6.78a84.83,84.83,0,0,1-4.44,7.32,32.55,32.55,0,0,1-5,5.88A9.07,9.07,0,0,1,804.78,138.08Z"/><path class="cls-3" d="M804.4,138.35a7,7,0,0,1-5.77-3.37,10.11,10.11,0,0,1-1.3-5.54,25.22,25.22,0,0,1,.73-5.56c-.82,1.25-1.79,2.7-2.91,4.32a37.46,37.46,0,0,1-5,5.86,17.31,17.31,0,0,1-4.38,3.17,9.19,9.19,0,0,1-3.83,1,6.11,6.11,0,0,1-5.25-2.93,13.18,13.18,0,0,1-2-7.52,30.64,30.64,0,0,1,2.42-11A48.55,48.55,0,0,1,785,104a27.3,27.3,0,0,1,8.53-6.85,21.52,21.52,0,0,1,9.9-2.61,15.77,15.77,0,0,1,5.36.92,11.53,11.53,0,0,1,4.54,3,2.9,2.9,0,0,1,.91,2.09,1.73,1.73,0,0,1-.69,1.4,2,2,0,0,1-1.78.29l-.14,0,0-.13a5.17,5.17,0,0,0-5.4-4,10.52,10.52,0,0,0-4.57,1.3,31.39,31.39,0,0,0-8.38,7,72.22,72.22,0,0,0-7.6,10.16c-.32.48-.81,1.4-1.49,2.75s-1.34,2.87-2,4.53a23,23,0,0,0-1.3,4.87,6.42,6.42,0,0,0-.12,1v.9c0,2.5.9,3.71,2.75,3.71,2.31,0,5-1.74,8-5.19a69,69,0,0,0,5.62-8c1.66-2.77,3.4-5.8,5.15-9a54.44,54.44,0,0,1,3.38-5.42,5.4,5.4,0,0,1,4.64-2.27,10.53,10.53,0,0,1,2.71.37,6.19,6.19,0,0,0,2.65.12l.77-.13-.55.55a21.14,21.14,0,0,0-2.55,3.55c-1.07,1.75-2.22,3.76-3.41,6s-2.28,4.52-3.23,6.82a42.16,42.16,0,0,0-2,6c-.07.46-.17,1.14-.29,2a15.71,15.71,0,0,0-.18,1.88c0,3.11,1.26,3.11,1.67,3.11,1.2,0,2.54-.74,4-2.2a36,36,0,0,0,4.35-5.6c1.43-2.22,2.76-4.5,4-6.76s2.17-4.16,2.88-5.58a1.79,1.79,0,0,1,1.66-1.34c.32,0,.85.14.85,1.09a4.54,4.54,0,0,1-.38,1.41c-1,2-2.13,4.28-3.49,6.81a85.74,85.74,0,0,1-4.45,7.34,33.51,33.51,0,0,1-5,5.93,9.34,9.34,0,0,1-5.37,2.64h0ZM799.32,121l-.42,1.58a27.78,27.78,0,0,0-1.07,6.89,9.65,9.65,0,0,0,1.22,5.27,6.51,6.51,0,0,0,2.83,2.54,6,6,0,0,0,2.88.58,8.87,8.87,0,0,0,5.07-2.51,32.09,32.09,0,0,0,4.94-5.84,84.84,84.84,0,0,0,4.43-7.3c1.36-2.52,2.53-4.79,3.47-6.77a4,4,0,0,0,.34-1.21c0-.59-.24-.59-.35-.59-.53,0-.93.34-1.21,1-.72,1.44-1.69,3.32-2.89,5.6s-2.53,4.56-4,6.8a35.94,35.94,0,0,1-4.41,5.68c-1.52,1.56-3,2.35-4.32,2.35s-2.17-1.21-2.17-3.61a16.56,16.56,0,0,1,.18-1.95c.12-.88.22-1.57.3-2a43,43,0,0,1,2.06-6,75.25,75.25,0,0,1,3.25-6.86c1.2-2.24,2.35-4.26,3.43-6a27.24,27.24,0,0,1,2.16-3.14,6.23,6.23,0,0,1-2.2-.21,9.88,9.88,0,0,0-2.57-.35,4.89,4.89,0,0,0-4.24,2.06,56.68,56.68,0,0,0-3.34,5.37c-1.76,3.2-3.5,6.23-5.17,9a67.67,67.67,0,0,1-5.66,8.07c-3.08,3.57-5.89,5.37-8.35,5.37-2.16,0-3.25-1.41-3.25-4.21v-.9a7.59,7.59,0,0,1,.12-1.06,23.6,23.6,0,0,1,1.34-5,47.58,47.58,0,0,1,2-4.58,31.19,31.19,0,0,1,1.51-2.79A73,73,0,0,1,792.89,106a32.14,32.14,0,0,1,8.53-7.14,11.12,11.12,0,0,1,4.8-1.35,5.66,5.66,0,0,1,5.83,4.24,1.4,1.4,0,0,0,1.21-.22,1.23,1.23,0,0,0,.51-1,2.38,2.38,0,0,0-.77-1.74,11,11,0,0,0-4.34-2.88,15.4,15.4,0,0,0-5.2-.89,21,21,0,0,0-9.67,2.56,26.8,26.8,0,0,0-8.38,6.71,48.42,48.42,0,0,0-7.76,12.65,30.32,30.32,0,0,0-2.38,10.83,12.63,12.63,0,0,0,1.88,7.24,5.55,5.55,0,0,0,4.83,2.71,8.62,8.62,0,0,0,3.61-.93,17,17,0,0,0,4.26-3.08,37.3,37.3,0,0,0,4.88-5.78c1.53-2.2,2.78-4.08,3.72-5.57Z"/><path class="cls-2" d="M824.82,137.72q-4.44,0-6.24-2.58a10.12,10.12,0,0,1-1.8-5.94,16.58,16.58,0,0,1,.42-3.66,24.67,24.67,0,0,1,1-3.42l8-20.52a4.89,4.89,0,0,0,.36-1.68,3.7,3.7,0,0,0-.6-2.1l-.84-1.26,6.6-.24a4.17,4.17,0,0,1,2.58.42,1.53,1.53,0,0,1,.78,1.26,8.29,8.29,0,0,1-.84,2.64l-10,23.4q-1.32,3-1.44,3.48-.36,1.8-.48,2.28a3.61,3.61,0,0,0-.12.6v1a4.39,4.39,0,0,0,.78,2.64,3.11,3.11,0,0,0,2.7,1.08,6.73,6.73,0,0,0,2.76-.72,8,8,0,0,0,2.28-1.44,42.46,42.46,0,0,0,5.94-8.22q2.94-5.1,5.46-10.14.48-1.2,1.2-1.2t.6.84a4.6,4.6,0,0,1-.36,1.44q-1.2,2.52-3,6.24a60.41,60.41,0,0,1-4.26,7.38,28.51,28.51,0,0,1-5.34,6.06A9.56,9.56,0,0,1,824.82,137.72ZM834.54,89a3.78,3.78,0,0,1-2.94-1.26,4.4,4.4,0,0,1-1.14-3.06,5.25,5.25,0,0,1,1.8-4,5.69,5.69,0,0,1,4-1.68,4.22,4.22,0,0,1,3.12,1.2,3.93,3.93,0,0,1,1.2,2.88,5.63,5.63,0,0,1-1.8,4.08A5.76,5.76,0,0,1,834.54,89Z"/><path class="cls-3" d="M824.82,138c-3,0-5.2-.9-6.45-2.68a10.46,10.46,0,0,1-1.84-6.09,16.45,16.45,0,0,1,.43-3.71,23.55,23.55,0,0,1,1-3.46l8-20.52a4.79,4.79,0,0,0,.34-1.59,3.49,3.49,0,0,0-.56-2L825,96.7l-.25-.37,7-.26a4.32,4.32,0,0,1,2.73.47,1.77,1.77,0,0,1,.89,1.46,8.3,8.3,0,0,1-.86,2.74l-10,23.4c-1.09,2.47-1.38,3.23-1.43,3.44-.23,1.16-.39,2-.48,2.28a2.76,2.76,0,0,0-.11.54v1a4.2,4.2,0,0,0,.73,2.5,2.89,2.89,0,0,0,2.5,1,6.51,6.51,0,0,0,2.65-.69,8.13,8.13,0,0,0,2.21-1.39,42.67,42.67,0,0,0,5.9-8.17c2-3.38,3.79-6.79,5.46-10.13.35-.88.83-1.34,1.42-1.34.32,0,.85.14.85,1.09a4.56,4.56,0,0,1-.38,1.53c-.81,1.7-1.81,3.78-3,6.26a59.54,59.54,0,0,1-4.27,7.41,29.06,29.06,0,0,1-5.39,6.12A9.84,9.84,0,0,1,824.82,138Zm.81-41.17.6.88a4.05,4.05,0,0,1,.64,2.24,5.14,5.14,0,0,1-.38,1.77l-8,20.52a25.22,25.22,0,0,0-1,3.39,16.57,16.57,0,0,0-.41,3.6,10,10,0,0,0,1.75,5.8c1.15,1.64,3.18,2.47,6,2.47a9.31,9.31,0,0,0,6.08-2.34,28.29,28.29,0,0,0,5.29-6,58.63,58.63,0,0,0,4.24-7.35c1.2-2.47,2.2-4.56,3-6.23a4.44,4.44,0,0,0,.34-1.34c0-.59-.24-.59-.35-.59-.37,0-.69.35-1,1-1.68,3.37-3.52,6.78-5.47,10.17a43.73,43.73,0,0,1-6,8.27,8.37,8.37,0,0,1-2.36,1.49,7,7,0,0,1-2.86.74,3.32,3.32,0,0,1-2.9-1.18,4.66,4.66,0,0,1-.83-2.79v-1a2.94,2.94,0,0,1,.13-.66c.05-.23.18-.8.47-2.27.09-.34.57-1.49,1.46-3.53l10-23.39a7.72,7.72,0,0,0,.82-2.55,1.29,1.29,0,0,0-.67-1,4,4,0,0,0-2.42-.38Zm8.91-7.55a4.05,4.05,0,0,1-3.13-1.34,4.65,4.65,0,0,1-1.2-3.23,5.51,5.51,0,0,1,1.88-4.14,6,6,0,0,1,4.13-1.75,4.48,4.48,0,0,1,3.3,1.28,4.19,4.19,0,0,1,1.27,3.05,5.91,5.91,0,0,1-1.87,4.26A6.05,6.05,0,0,1,834.54,89.25Zm1.68-10a5.48,5.48,0,0,0-3.79,1.62,5,5,0,0,0-1.72,3.77,4.19,4.19,0,0,0,1.07,2.9,3.53,3.53,0,0,0,2.76,1.17,5.54,5.54,0,0,0,4-1.72,5.41,5.41,0,0,0,1.73-3.91,3.65,3.65,0,0,0-1.13-2.7A4,4,0,0,0,836.22,79.29Z"/><polygon class="cls-2" points="0 161.4 105.5 160.4 211 160.4 422.01 160.4 633.01 160.4 738.52 160.4 844.02 161.4 738.52 162.4 633.01 162.4 422.01 162.4 211 162.4 105.5 162.4 0 161.4"/><path class="cls-2" d="M165.46,181.6h-3.91v26.76h2.64a2.72,2.72,0,0,1,.49,0c.52.1.78.5.78,1.22H153.74v-1.27h3.91V184.73l-11.28,25.14h-1l-10.69-22.51v21h2.64a2.61,2.61,0,0,1,.48,0c.52.1.79.5.79,1.22h-9.77v-1.27h3.91V181.6h-3.91v-1.27h7l11.33,23.88,10.55-23.88h7.81Z"/><path class="cls-2" d="M197.81,209.63v-1.27H201l-3.66-9.47h-10.2l-3.67,9.47h2.4a2.61,2.61,0,0,1,.48,0c.53.1.79.5.79,1.22h-8.7v-1.27h3.08l10.94-28h1.8l11.19,28h1.66a2.61,2.61,0,0,1,.48,0c.53.1.79.5.79,1.22Zm-5.62-24-4.54,11.82h9.13Z"/><path class="cls-2" d="M241.49,207.09q-3.08,3-8.69,3a15.15,15.15,0,0,1-8.55-2.49,6.39,6.39,0,0,1-.1,1.41c-.13.46-.58.69-1.36.69V199.62h1.46q.83,9,8.3,9.13a8.66,8.66,0,0,0,3.47-.68,5.12,5.12,0,0,0,3.32-4.94,4.84,4.84,0,0,0-.64-2.44q-1.17-2-5.56-3.95-4.74-2.06-5.57-2.49-4.59-2.59-4.59-6.69a6.75,6.75,0,0,1,2-4.79c2-2,4.69-2.93,8.21-2.93a16,16,0,0,1,7.81,1.91,3.33,3.33,0,0,1,.1-.93c.13-.49.58-.73,1.36-.73v8.54H241a7.32,7.32,0,0,0-1.37-4.64,7.42,7.42,0,0,0-6.25-2.78,8.16,8.16,0,0,0-3,.54,4.56,4.56,0,0,0-3.18,4.54,4.71,4.71,0,0,0,.59,2.29q1.13,2,5.47,3.81,4.78,2.1,5.71,2.59c3.12,1.76,4.69,4.09,4.69,7A7.08,7.08,0,0,1,241.49,207.09Z"/><path class="cls-2" d="M279.16,207.09q-3.07,3-8.69,3a15.15,15.15,0,0,1-8.55-2.49,6.39,6.39,0,0,1-.1,1.41c-.13.46-.58.69-1.36.69V199.62h1.46q.84,9,8.3,9.13a8.66,8.66,0,0,0,3.47-.68,5.12,5.12,0,0,0,3.32-4.94,4.93,4.93,0,0,0-.63-2.44c-.79-1.33-2.64-2.65-5.57-3.95-3.16-1.37-5-2.2-5.57-2.49q-4.59-2.59-4.59-6.69a6.72,6.72,0,0,1,2-4.79q2.92-2.93,8.2-2.93a15.93,15.93,0,0,1,7.81,1.91,3.33,3.33,0,0,1,.1-.93c.13-.49.59-.73,1.37-.73v8.54h-1.47a7.32,7.32,0,0,0-1.37-4.64,7.42,7.42,0,0,0-6.25-2.78,8.16,8.16,0,0,0-3,.54,4.56,4.56,0,0,0-3.18,4.54,4.71,4.71,0,0,0,.59,2.29q1.13,2,5.47,3.81,4.78,2.1,5.71,2.59,4.69,2.64,4.69,7A7.08,7.08,0,0,1,279.16,207.09Z"/><path class="cls-2" d="M314.58,209.63v-1.27h3.18l-3.66-9.47H303.89l-3.66,9.47h2.39a2.72,2.72,0,0,1,.49,0c.52.1.78.5.78,1.22H295.2v-1.27h3.08l10.93-28H311l11.18,28h1.66a2.72,2.72,0,0,1,.49,0c.52.1.78.5.78,1.22Zm-5.61-24-4.54,11.82h9.13Z"/><path class="cls-2" d="M369.05,196.44v1.27h-3.66v11.92l-4.15-1.52a3,3,0,0,1-.63.4,13.79,13.79,0,0,1-6.64,1.61,14.49,14.49,0,0,1-9.09-3.13q-5.56-4.4-5.56-12.21A14.42,14.42,0,0,1,354,179.84a14.61,14.61,0,0,1,6.54,1.52l4.25-.88L365,190h-1.27a18.37,18.37,0,0,0-2.64-6c-1.49-1.85-3.92-2.78-7.27-2.78a11.36,11.36,0,0,0-2.59.29q-7,1.86-7,13.48,0,13.58,9.77,13.67a5.11,5.11,0,0,0,.78-.05,9.12,9.12,0,0,0,6.54-3.27v-7.62H356.9v-1.27Z"/><path class="cls-2" d="M405.75,189.12l-.68-2.29-.15-.49q-1.51-4.74-5-4.74h-7.81v12.21h10.06v1.41H392.08v13.14h7.81a4.72,4.72,0,0,0,1.56-.25c1.6-.55,2.8-2.21,3.62-5l.68-2.29h1l-.25,8.79H384v-1.27h3.91V181.6H384v-1.27h22.51l.25,8.79Z"/><path class="cls-2" d="M448.87,209.63v-1.27h4.63V181.6h-2.63q-3.76.3-5.32,5.08l-.79,3.27H443.4l.24-9.62h24.12L468,190h-1.37l-.78-3.27a.72.72,0,0,1-.05-.29q-1.32-4.78-5.27-4.79H457.7v26.76H461a2.63,2.63,0,0,1,.49,0c.52.1.78.5.78,1.22Z"/><path class="cls-2" d="M505,189.12l-.69-2.29c0-.13-.08-.3-.14-.49q-1.51-4.74-5-4.74h-7.82v12.21h10.06v1.41H491.27v13.14h7.82a4.72,4.72,0,0,0,1.56-.25c1.59-.55,2.8-2.21,3.61-5l.69-2.29h1l-.24,8.79H483.17v-1.27h3.9V181.6h-3.9v-1.27h22.51l.24,8.79Z"/><path class="cls-2" d="M521.82,209.63v-1.27h3.9V181.6h-3.9v-1.27h14.45a11.16,11.16,0,0,1,6.4,1.76,6.81,6.81,0,0,1,3.17,5.86,7.49,7.49,0,0,1-.63,3,8.78,8.78,0,0,1-6.35,4.83l7.86,12.6h1.85a3.25,3.25,0,0,1,.59,0c.39.1.59.5.59,1.22h-7.38l-7.81-13.43h-4.64v12.16h3.86v1.27Zm8.1-28v13.18h5a6,6,0,0,0,3.86-1.31,6.62,6.62,0,0,0,2.44-5.47,7.25,7.25,0,0,0-.63-3,5.87,5.87,0,0,0-5.81-3.42Z"/><path class="cls-2" d="M580.63,209.63v-1.27h3.18l-3.67-9.47h-10.2l-3.66,9.47h2.39a2.81,2.81,0,0,1,.49,0c.52.1.78.5.78,1.22h-8.69v-1.27h3.07l10.94-28h1.81l11.18,28h1.66a2.81,2.81,0,0,1,.49,0c.52.1.78.5.78,1.22Zm-5.61-24-4.54,11.82h9.13Z"/><path class="cls-2" d="M604.63,209.63v-1.27h3.91V181.6h-3.91v-1.27h14.45a12.32,12.32,0,0,1,5.38,1.08,6.89,6.89,0,0,1,4.19,6.78,7.58,7.58,0,0,1-1,4q-2.6,4.54-10.6,4.54h-4.29v11.67h3.61a2.72,2.72,0,0,1,.49,0c.52.1.78.5.78,1.22Zm8.11-28v13.67h4.49a11.45,11.45,0,0,0,1.17-.05q5.67-.63,5.67-7a9.24,9.24,0,0,0-.4-2.73q-1.26-3.91-5.61-3.91Z"/><path class="cls-2" d="M643.57,209.63v-1.27h3.91V181.6h-3.91v-1.27h12v1.27h-3.86v12.21h15V181.6h-3.91v-1.27h12v1.27h-3.86v26.76h2.59a2.61,2.61,0,0,1,.48,0c.52.1.79.5.79,1.22h-12v-1.27h3.91V195.22h-15v13.14h2.59a2.61,2.61,0,0,1,.48,0c.52.1.79.5.79,1.22Z"/><path class="cls-2" d="M695.89,209.63v-1.27h3.91V198l-9.18-16.36h-2.69v-1.27h11v1.27h-3.71L703,195.81l7.42-14.21h-3.9v-1.27h8.69a2.72,2.72,0,0,1-.05.49c-.1.52-.5.78-1.22.78a3.53,3.53,0,0,0-2.64,1.37L704,197.47v10.89h2.64a2.61,2.61,0,0,1,.48,0c.53.1.79.5.79,1.22Z"/></g></g></svg>