<svg xmlns="http://www.w3.org/2000/svg" xmlns:xlink="http://www.w3.org/1999/xlink" viewBox="0 0 844.02 216.88"><defs><style>.cls-1{fill:url(#New_Gradient_Swatch_2);}.cls-2{fill:url(#New_Gradient_Swatch_2-2);}.cls-3{fill:url(#New_Gradient_Swatch_2-3);}.cls-4{fill:url(#New_Gradient_Swatch_2-4);}.cls-5{fill:url(#New_Gradient_Swatch_2-5);}.cls-6{fill:url(#New_Gradient_Swatch_2-6);}.cls-7{fill:url(#New_Gradient_Swatch_2-7);}.cls-8{fill:url(#New_Gradient_Swatch_2-8);}.cls-9{fill:url(#New_Gradient_Swatch_2-9);}</style><linearGradient id="New_Gradient_Swatch_2" x1="423.76" y1="140.9" x2="557.49" y2="20.49" gradientUnits="userSpaceOnUse"><stop offset="0" stop-color="#bf9440"/><stop offset="0.11" stop-color="#9f6928"/><stop offset="0.22" stop-color="#905b24"/><stop offset="0.33" stop-color="#9d6d29"/><stop offset="0.67" stop-color="#ecd280"/><stop offset="0.78" stop-color="#fce694"/><stop offset="1" stop-color="#f3cd77"/></linearGradient><linearGradient id="New_Gradient_Swatch_2-2" x1="11.24" y1="134.49" x2="106.86" y2="48.39" xlink:href="#New_Gradient_Swatch_2"/><linearGradient id="New_Gradient_Swatch_2-3" x1="144.39" y1="143.2" x2="267.53" y2="32.33" xlink:href="#New_Gradient_Swatch_2"/><linearGradient id="New_Gradient_Swatch_2-4" x1="268.62" y1="163.86" x2="386.6" y2="57.63" xlink:href="#New_Gradient_Swatch_2"/><linearGradient id="New_Gradient_Swatch_2-5" x1="524.17" y1="156.51" x2="612.56" y2="76.92" xlink:href="#New_Gradient_Swatch_2"/><linearGradient id="New_Gradient_Swatch_2-6" x1="820.98" y1="87.11" x2="828.99" y2="79.9" xlink:href="#New_Gradient_Swatch_2"/><linearGradient id="New_Gradient_Swatch_2-7" x1="655.88" y1="172.46" x2="786.6" y2="54.76" xlink:href="#New_Gradient_Swatch_2"/><linearGradient id="New_Gradient_Swatch_2-8" x1="188.95" y1="376.53" x2="655.07" y2="-43.17" xlink:href="#New_Gradient_Swatch_2"/><linearGradient id="New_Gradient_Swatch_2-9" x1="339.6" y1="338.1" x2="498.89" y2="62.19" xlink:href="#New_Gradient_Swatch_2"/></defs><g id="Layer_2" data-name="Layer 2"><g id="Layer_2-2" data-name="Layer 2"><path class="cls-1" d="M554.33,41.83c-13.07,19.36-24.26,19.6-24.26,19.6,21.93-17,23.79-36.4,18.66-49S527-3.19,515.84,3.35s-11.19,26.58,0,29.15,12.36-2.57,13.53-2.8,2.8-2.8,1.86-4,.47-5.37-1.63-5.6-2.33,2.33-2.33,3.49-1.87,4.44-5.36,4.67-8.87-4.43-4.67-11.19,20.06-5.6,21.23,6.06-6.3,20.29-21.7,27.29-45.71-.94-52.94,3-8.4,13.29-8.4,13.29-7.93-3.27-14.46,0c-3,1.49-14.73,12.71-20.05,20.42,0,0-1.81,11.07,6,26.83s46.31,14.34,34.58-8.82c11,13-5.76,34-33.4,15.46,0,0-5.56,12.39-8.63,15.5h75.23c-7.24-12.09-6-26-6-26,12.75-4.66,17.1-14.93,20.84-20.06s15.62-4.9,15.38-7.93-8.16-5.59-8.16-5.59C550.59,69.12,554.33,41.83,554.33,41.83ZM483.88,67.15a8.6,8.6,0,0,1,6.07-6C494.85,60,496.71,70.54,483.88,67.15Z"/><path class="cls-2" d="M73.73,144.92q-5.28,0-7.44-4.14a20.6,20.6,0,0,1-2.16-9.66,35,35,0,0,1,1.38-9.72,22.44,22.44,0,0,1,3.3-7.32q-3.24,3.84-8,8.76a110.83,110.83,0,0,1-10.56,9.48,65.85,65.85,0,0,1-11.88,7.56,27.37,27.37,0,0,1-12.12,3,20.8,20.8,0,0,1-3.54-.3,15.23,15.23,0,0,1-3.42-1,12.19,12.19,0,0,1-6.6-6.42A26,26,0,0,1,10.49,124a51.67,51.67,0,0,1,2.34-14.7,79.38,79.38,0,0,1,6.9-16,87,87,0,0,1,4.86-7.86,75,75,0,0,1,5.82-7.38,46.48,46.48,0,0,1-6.84-3.78,26,26,0,0,1-5.28-4.62,11.18,11.18,0,0,1-2.16-4,14.71,14.71,0,0,1-.72-4.44q0-3.84,1.8-5a1.71,1.71,0,0,1,1.44-1q1.08,0,1.08,1.32a4,4,0,0,1-.48,1.8,8.07,8.07,0,0,0-.6,2.88,6.82,6.82,0,0,0,1,3.54,18.42,18.42,0,0,0,2.28,3.06,28.92,28.92,0,0,0,10.56,7.56A135.53,135.53,0,0,1,49.31,59.9,83.57,83.57,0,0,1,69.05,48.44a58.07,58.07,0,0,1,22.2-4.32q9.72,0,15.24,4.26a13.26,13.26,0,0,1,5.52,11,15.63,15.63,0,0,1-1.92,7,23.47,23.47,0,0,1-6.24,7.32,38.83,38.83,0,0,1-11.46,6.12,71.88,71.88,0,0,1-17.7,3.54Q71,83.72,68,83.9t-6.3.18a84.36,84.36,0,0,1-12.06-.84A74.41,74.41,0,0,1,38.09,80.6q-2.16,3-5.46,8.16t-6.54,11A108,108,0,0,0,20.69,111a71.41,71.41,0,0,0-2.88,9.18,33.08,33.08,0,0,0-1,7.38q0,5.88,2.76,8.82a9.72,9.72,0,0,0,7.44,2.94,25.61,25.61,0,0,0,10.38-2.64,55,55,0,0,0,12.18-7.92A127.28,127.28,0,0,0,62,116.84a161.83,161.83,0,0,0,11.1-13.44,109.64,109.64,0,0,0,8.16-12.6,18.65,18.65,0,0,1,4-5.46,5.55,5.55,0,0,1,3.24-1.62,2.35,2.35,0,0,1,2,1,4.59,4.59,0,0,1,.72,2.7,10.16,10.16,0,0,1-3,6.72,58.5,58.5,0,0,0-6.6,9.12,89.43,89.43,0,0,0-5.76,11.4,58,58,0,0,0-3.6,11.76,32,32,0,0,0-.48,3.6q-.12,1.68-.12,3,0,4.44,1.38,6.36a4.3,4.3,0,0,0,3.66,1.92q2.76,0,6.36-2.52a34.11,34.11,0,0,0,7-6.72q2.88-3.84,5.58-8.16a97.7,97.7,0,0,0,5-9,2.7,2.7,0,0,1,1-1.26,2.27,2.27,0,0,1,.9-.42q.6,0,.6.72a4.6,4.6,0,0,1-.36,1.44q-1.08,2.4-2.88,5.76t-4,6.9a77.61,77.61,0,0,1-4.44,6.54,31.73,31.73,0,0,1-7.86,7.2A17.74,17.74,0,0,1,73.73,144.92ZM60.65,81.2q6.24,0,13.92-.72a56,56,0,0,0,17.28-4,29,29,0,0,0,11.28-7.92,16.37,16.37,0,0,0,4-10.68,8.93,8.93,0,0,0-4.38-8,20.48,20.48,0,0,0-11.1-2.76A46.63,46.63,0,0,0,71.27,51.5,66.89,66.89,0,0,0,54.47,63,168.72,168.72,0,0,0,40,78.2,65.91,65.91,0,0,0,60.65,81.2Z"/><path class="cls-3" d="M250.25,62.24c1.27.56,4.42,1.72,9.42,3.48s12,3.2,20.94,4.32c.55.08,1.08.14,1.56.18s1,.06,1.44.06a14.84,14.84,0,0,0,7.62-1.8q3.06-1.8,3.06-4.68a7.5,7.5,0,0,0-.24-1.62q-.26-1-.84-1a1.17,1.17,0,0,0-1.14.54,2.45,2.45,0,0,0-.3,1.26,2.85,2.85,0,0,1-2,2.76,14,14,0,0,1-5.34.84,49.85,49.85,0,0,1-7.92-.72q-4.45-.72-9.07-1.86t-8.63-2.28q-4-1.14-6.66-2,.72-.84,2-2.1a25.06,25.06,0,0,1,2.52-2.22c.83-.64,1.42-.8,1.74-.48a3.83,3.83,0,0,0,1,.24q1.44,0,1.44-1.56a2.69,2.69,0,0,0-.6-1.62,2.15,2.15,0,0,0-1.8-.78,3.08,3.08,0,0,0-1,.12h.12q1,0-.12,1a34.1,34.1,0,0,1-2.95,2.28l-3.59,2.52a11.13,11.13,0,0,0-2.1,1.68c-1.92-.48-4.37-1.24-7.32-2.28s-6.2-2.12-9.72-3.24-7.2-2.14-11-3.06a76.87,76.87,0,0,0-11.4-1.86q-2.29-.24-3.24-.24h-2.52a45.89,45.89,0,0,0-16.32,2.64,34.82,34.82,0,0,0-11.64,7,29,29,0,0,0-7,9.6,26,26,0,0,0-2.28,10.5,21.25,21.25,0,0,0,3.36,11.58,18.94,18.94,0,0,0,10,7.74,19.58,19.58,0,0,0,6.48,1.08,21.13,21.13,0,0,0,9.12-2,20.57,20.57,0,0,0,7.38-5.88,17.43,17.43,0,0,0,3.66-9c0-1.12-.41-1.68-1.2-1.68a1.61,1.61,0,0,0-1.2.72v.12a9.16,9.16,0,0,1-1.14,3.42,24.24,24.24,0,0,1-3.36,4.92A19.85,19.85,0,0,1,194,93.2a15.25,15.25,0,0,1-7.55,1.8,20,20,0,0,1-5.64-.84,11.82,11.82,0,0,1-6.42-4.62,12.8,12.8,0,0,1-2.1-7.26,21.18,21.18,0,0,1,2.58-9.72,31.52,31.52,0,0,1,7.44-9.3,36.3,36.3,0,0,1,11.88-6.78,40.73,40.73,0,0,1,16-2,138.47,138.47,0,0,1,18.54,2.1A170.51,170.51,0,0,1,246.89,61,33.62,33.62,0,0,0,243.53,67q-2.06,4.26-4.8,10.26T232.79,90q-3.18,6.72-6.72,13.5t-7.26,12.66a73.25,73.25,0,0,1-7.44,10,60.28,60.28,0,0,1-10.32,9,51.2,51.2,0,0,1-13.44,6.54,60.69,60.69,0,0,1-17.28,2.7,41.58,41.58,0,0,1-12.9-1.86,39.83,39.83,0,0,1-12-5.94,30.4,30.4,0,0,1-8.82-10,27.66,27.66,0,0,1-3.36-13.8,26.19,26.19,0,0,1,.18-3c.12-1,.25-2.08.42-3.12a19.52,19.52,0,0,1,2.46-7.14A21,21,0,0,1,140,94.88a30.39,30.39,0,0,1,3.72-2.94,12.33,12.33,0,0,0,2.46-2c.24-1.28-.33-1.92-1.68-1.92a9,9,0,0,0-4.2,1.56,20.26,20.26,0,0,0-5.1,4.44,19.93,19.93,0,0,0-3.78,7,44.69,44.69,0,0,0-2.28,13.56,28.82,28.82,0,0,0,3.78,15,32.14,32.14,0,0,0,10.14,10.56,47.75,47.75,0,0,0,14.4,6.3,65.68,65.68,0,0,0,16.68,2.1,72.17,72.17,0,0,0,16.32-1.86,59.94,59.94,0,0,0,14.94-5.58,42.67,42.67,0,0,0,11.7-9.12,70.2,70.2,0,0,0,10.62-16.08,164.29,164.29,0,0,0,7.08-17.64q3.06-9.12,6.54-18.24A101.57,101.57,0,0,1,250.25,62.24Z"/><path class="cls-4" d="M399,112.76q-.72,0-1.44,1.32-1,1.92-2.82,5.4t-4.14,7.14A38.32,38.32,0,0,1,386,132.8q-2.4,2.52-4.44,2.52a2.27,2.27,0,0,1-1.56-.66,3.49,3.49,0,0,1-.72-2.58,18.09,18.09,0,0,1,.36-3.24,36.64,36.64,0,0,1,2-6.42q1.56-3.9,3.66-8.22t4.08-8q2-3.72,4.62-8.52a4.21,4.21,0,0,0-1.2-.12,16.1,16.1,0,0,0-6.42,1.92,68.26,68.26,0,0,0-8,4.56,60.83,60.83,0,0,0-11.58,9.84q-2.52,2.76-4.92,5.88,3-6,6.54-12.9t7.2-13.68q3.66-6.78,7-12.66t6-10.08a45.89,45.89,0,0,1,4.26-5.88A6.49,6.49,0,0,1,390,64.4a10.58,10.58,0,0,0-2.52-.36,5.77,5.77,0,0,0-4.62,2,36.86,36.86,0,0,0-3.78,5.64q-5.64,10.44-11.4,22T356.5,116.54q-2.43,5-4.76,9.86a32.23,32.23,0,0,1-5.2,5.86,13.31,13.31,0,0,1-9.06,3.3q-3.84,0-5.46-2.82a12.65,12.65,0,0,1-1.62-6.42,22.85,22.85,0,0,1,1.2-7.14,52.25,52.25,0,0,1,2.7-6.72,29.8,29.8,0,0,1,2.58-4.5,43.25,43.25,0,0,1,6.18-7.14q3.54-3.3,6.78-3.3,2.88,0,2.88,3a9.06,9.06,0,0,1-.48,2.88,13.26,13.26,0,0,1-1.56,3.24,34.57,34.57,0,0,1-2,2.88,2.3,2.3,0,0,0,1.68.72q2,0,4.08-2.34a8.56,8.56,0,0,0,2.28-4.74A7.15,7.15,0,0,0,355,97q-2.16-2.28-6.72-2.28a16.12,16.12,0,0,0-8.52,2.58,27.84,27.84,0,0,0-7.68,7.26,44.58,44.58,0,0,0-5,8.5,4.55,4.55,0,0,0-.68,1q-1.92,4.2-4.62,8.88a45.86,45.86,0,0,1-5.64,7.92q-2.94,3.24-5.82,3.24a2.33,2.33,0,0,1-1.86-1,5.2,5.2,0,0,1-.78-3.24,6.74,6.74,0,0,1,.12-1.32q.12-.6.24-1.8a27.47,27.47,0,0,1,1.68-5.28q1.32-3.24,3.06-6.9t3.3-6.9q1.92-3.84,3.06-5.94a15.8,15.8,0,0,1,2.34-3.36,30.32,30.32,0,0,1,3-2.7h-6.6a4.78,4.78,0,0,0-4.68,2.64Q311,103,308,108.92t-6.18,11.4a67.34,67.34,0,0,1-6.6,9.48q-4.08,4.68-7,4.68-2.64,0-2.64-4a15.61,15.61,0,0,1,.48-3.66,31,31,0,0,1,2-5.34q.84-1.8,2.1-4.44t2.52-5.22q1.26-2.58,2.94-5.94a33.75,33.75,0,0,1,4-6.78,24.86,24.86,0,0,1,3.66-3.42H296a4.68,4.68,0,0,0-4.56,2.64q-1.32,2.64-3.12,6.06t-3.6,7.14a16.85,16.85,0,0,1-.74,1.61,1.47,1.47,0,0,0-.34.43q-1.08,2.16-2.76,5.64a69.55,69.55,0,0,1-3.84,6.9,29.13,29.13,0,0,1-4.74,5.82,7.94,7.94,0,0,1-5.46,2.4,5.86,5.86,0,0,1-5.64-3.12,44.69,44.69,0,0,0,6-7.14,47.18,47.18,0,0,0,4.08-7.14,28,28,0,0,0,2.52-11.28,12.61,12.61,0,0,0-2.16-7.56q-2.16-3-6.72-3a15.38,15.38,0,0,0-8.4,2.82,35.46,35.46,0,0,0-8,7.38,43,43,0,0,0-6.12,10.08,28.61,28.61,0,0,0-2.52,11.28,12.68,12.68,0,0,0,2.16,7.5q2.16,3.06,6.72,3.06a12.71,12.71,0,0,0,5-1.08,23.89,23.89,0,0,0,5-3,9.73,9.73,0,0,0,3.12,2.22,10.66,10.66,0,0,0,4.56.9,10.51,10.51,0,0,0,7-2.64,28,28,0,0,0,5.52-6.42c.27-.43.53-.85.78-1.27a13,13,0,0,0-.54,3.61,7.34,7.34,0,0,0,1.38,4.86,7.07,7.07,0,0,0,3.24,2.22,10.65,10.65,0,0,0,3.18.6,9.75,9.75,0,0,0,6-2.34A29.82,29.82,0,0,0,298.6,129a73.33,73.33,0,0,0,4.68-7.2,22.74,22.74,0,0,0-1.2,7A9.34,9.34,0,0,0,304,135a6.21,6.21,0,0,0,4.92,2.22,9.7,9.7,0,0,0,6.24-2.34,26.52,26.52,0,0,0,5.28-5.94q2-3,3.61-6a23.91,23.91,0,0,0-.25,3.34,12.2,12.2,0,0,0,2.76,8.1q2.76,3.3,9.6,3.3t11-3c.3-.21.59-.43.88-.66-.68,1.39-1.35,2.78-2,4.14a3,3,0,0,1,1.8-.66q1.08-.06,2.16-.18l2.7-.18q1-.06,1.86-1.62A90.24,90.24,0,0,1,364,120.08a92.11,92.11,0,0,1,7.44-8.4,30.4,30.4,0,0,1,5.16-4.2,7.05,7.05,0,0,1,3.24-1.2,1.27,1.27,0,0,1,1.44,1.44,7.05,7.05,0,0,1-1.2,3.24q-2.64,4.44-4.32,7.38a26.13,26.13,0,0,0-2.4,5.34,24.77,24.77,0,0,0-.84,3.42,17.9,17.9,0,0,0-.24,2.82q0,4.44,2.52,6.12a8.87,8.87,0,0,0,4.92,1.68,10.09,10.09,0,0,0,6.3-2.28,26.19,26.19,0,0,0,5.4-5.82,63,63,0,0,0,4.44-7.44q2-3.9,3.54-7a4.6,4.6,0,0,0,.36-1.44Q399.76,112.76,399,112.76Zm-142.5,9.12a6.65,6.65,0,0,0-1,3.72,9.85,9.85,0,0,0,.48,2.88,11.48,11.48,0,0,0,1.44,3q-3.72,3.12-7,3.12a3.35,3.35,0,0,1-3-1.44,6.82,6.82,0,0,1-1-3.84,23.18,23.18,0,0,1,1.14-6.54,57.57,57.57,0,0,1,3.06-7.86,43.87,43.87,0,0,1,4.74-8,27.63,27.63,0,0,1,5.64-5.76A9.44,9.44,0,0,1,266.56,99a3.68,3.68,0,0,1,3.24,1.56,7.5,7.5,0,0,1,1.08,4.32q0,5.52-4,14a40.76,40.76,0,0,1-3.84,6.48,5.55,5.55,0,0,0,.18-.66,3.37,3.37,0,0,0,.06-.66,3.77,3.77,0,0,0-1-2.58,3.31,3.31,0,0,0-2.58-1.14A3.53,3.53,0,0,0,256.54,121.88Z"/><path class="cls-5" d="M583.72,86q4.8-8.52,8.94-14.7a55.93,55.93,0,0,1,6.9-8.82,7.36,7.36,0,0,1-2.7-.3,9.8,9.8,0,0,0-2.58-.42,8,8,0,0,0-5.82,2.16A23.59,23.59,0,0,0,584.2,70q-3.36,6.36-7.5,14.76t-8.58,17.82q-2.77,5.86-5.48,11.86c-.65,1.31-1.42,2.88-2.32,4.76-.4.83-.83,1.66-1.28,2.48a5.37,5.37,0,0,0-4,1.36q-2.4,1.56-2.4,5.76a9.39,9.39,0,0,0,.23,2c-.37.4-.75.78-1.13,1.14a7.94,7.94,0,0,1-5.46,2.4,5.86,5.86,0,0,1-5.64-3.12,44.69,44.69,0,0,0,6-7.14,47.18,47.18,0,0,0,4.08-7.14,28,28,0,0,0,2.52-11.28,12.61,12.61,0,0,0-2.16-7.56q-2.16-3-6.72-3a15.38,15.38,0,0,0-8.4,2.82,35.46,35.46,0,0,0-8,7.38,43,43,0,0,0-6.12,10.08,28.61,28.61,0,0,0-2.52,11.28,12.68,12.68,0,0,0,2.16,7.5q2.16,3.06,6.72,3.06a12.71,12.71,0,0,0,5-1.08,23.89,23.89,0,0,0,5-3,9.73,9.73,0,0,0,3.12,2.22,10.66,10.66,0,0,0,4.56.9,10.51,10.51,0,0,0,7-2.64c.25-.21.48-.45.73-.67a9.84,9.84,0,0,0,.47.91q-5.16,12.36-8.76,22.68t-3.6,16.32q0,3.84,2,5.16a8.13,8.13,0,0,0,4.62,1.32,11.65,11.65,0,0,0,8.28-3.6,32.26,32.26,0,0,0,6.48-9.36,58,58,0,0,0,4.26-12.48,59.46,59.46,0,0,0,1.5-13V139.1a12.29,12.29,0,0,0-.12-1.74,10.21,10.21,0,0,0,6.12-2.1,25.36,25.36,0,0,0,5.4-5.52,52.75,52.75,0,0,0,4.56-7.44q2-4,3.72-7.74a1.46,1.46,0,0,0,.12-1.26.78.78,0,0,0-.72-.42,1.82,1.82,0,0,0-.66.18,1.32,1.32,0,0,0-.66.66q-1.44,3.24-3.42,7a69.57,69.57,0,0,1-4.32,7.08,25.08,25.08,0,0,1-4.92,5.4,7.94,7.94,0,0,1-5.34,1.92q-.12-.36-.24-.78a2.85,2.85,0,0,1-.12-.78,19.92,19.92,0,0,0-1.62-5.16,22.79,22.79,0,0,0-2.22-3.84q4.56-10.2,9.54-20.1T583.72,86ZM536,121.88a6.65,6.65,0,0,0-1,3.72,9.85,9.85,0,0,0,.48,2.88,11.48,11.48,0,0,0,1.44,3q-3.72,3.12-7,3.12a3.35,3.35,0,0,1-3-1.44,6.82,6.82,0,0,1-1-3.84,23.18,23.18,0,0,1,1.14-6.54,57.57,57.57,0,0,1,3.06-7.86,43.87,43.87,0,0,1,4.74-8,27.63,27.63,0,0,1,5.64-5.76A9.44,9.44,0,0,1,546,99a3.68,3.68,0,0,1,3.24,1.56,7.5,7.5,0,0,1,1.08,4.32q0,5.52-4,14a40.76,40.76,0,0,1-3.84,6.48,5.55,5.55,0,0,0,.18-.66,3.37,3.37,0,0,0,.06-.66,3.77,3.77,0,0,0-1-2.58,3.31,3.31,0,0,0-2.58-1.14A3.53,3.53,0,0,0,536,121.88Zm29.1,27.6a74.35,74.35,0,0,1-3.6,12,41.07,41.07,0,0,1-5.28,9.72,18.75,18.75,0,0,1-3.24,3.54,4.93,4.93,0,0,1-2.88,1.38q-1.8,0-1.8-3.6a20.82,20.82,0,0,1,.24-2.88q.24-1.68.72-4,1.44-6,4.14-13.86t5.82-15.9a9.9,9.9,0,0,0,2.76,1.44,9.62,9.62,0,0,0,3.24.6,2.78,2.78,0,0,0,.54-.06,2.78,2.78,0,0,1,.54-.06A50.93,50.93,0,0,1,565.12,149.48Zm-.24-19.32a15.41,15.41,0,0,1,1.08,5.4h-.6q-3.72,0-4.8-2.16.72-1.68,1.26-3.06t1.26-3.06A10.36,10.36,0,0,1,564.88,130.16Z"/><path class="cls-6" d="M824.05,88.52a5.76,5.76,0,0,0,4.2-1.8,5.63,5.63,0,0,0,1.8-4.08,3.93,3.93,0,0,0-1.2-2.88,4.22,4.22,0,0,0-3.12-1.2,5.69,5.69,0,0,0-4,1.68,5.25,5.25,0,0,0-1.8,4,4.4,4.4,0,0,0,1.14,3.06A3.78,3.78,0,0,0,824.05,88.52Z"/><path class="cls-7" d="M832.93,112.88q-.72,0-1.2,1.2-2.52,5-5.46,10.14a42.46,42.46,0,0,1-5.94,8.22,8,8,0,0,1-2.28,1.44,6.73,6.73,0,0,1-2.76.72,3.11,3.11,0,0,1-2.7-1.08,4.39,4.39,0,0,1-.78-2.64v-1a3.61,3.61,0,0,1,.12-.6q.12-.48.48-2.28.12-.48,1.44-3.48l10-23.4a8.29,8.29,0,0,0,.84-2.64,1.53,1.53,0,0,0-.78-1.26,4.17,4.17,0,0,0-2.58-.42l-6.6.24.84,1.26a3.7,3.7,0,0,1,.6,2.1,4.89,4.89,0,0,1-.36,1.68L811,113.32a2.31,2.31,0,0,0-.48.76q-1.07,2.16-2.88,5.58t-4,6.78a36.48,36.48,0,0,1-4.37,5.64q-2.24,2.28-4.15,2.28T793.23,131a16.59,16.59,0,0,1,.19-1.92q.17-1.32.3-2a39.84,39.84,0,0,1,2-6q1.44-3.48,3.23-6.84c1.2-2.24,2.35-4.24,3.43-6a20.9,20.9,0,0,1,2.57-3.6,6.38,6.38,0,0,1-2.76-.12,10,10,0,0,0-2.64-.36,5.15,5.15,0,0,0-4.44,2.16,53.09,53.09,0,0,0-3.35,5.4q-2.65,4.8-5.17,9a69.18,69.18,0,0,1-5.64,8q-4.56,5.28-8.15,5.28c-2,0-3-1.32-3-4v-.9a6.78,6.78,0,0,1,.11-1,23.71,23.71,0,0,1,1.32-4.92,47.42,47.42,0,0,1,2-4.56,25.75,25.75,0,0,1,1.5-2.76,71.18,71.18,0,0,1,7.62-10.2,31.31,31.31,0,0,1,8.46-7.08,10.64,10.64,0,0,1,4.67-1.32,5.44,5.44,0,0,1,5.64,4.2,1.74,1.74,0,0,0,1.57-.24,1.5,1.5,0,0,0,.59-1.2,2.64,2.64,0,0,0-.84-1.92A11.15,11.15,0,0,0,798,95.18a15.56,15.56,0,0,0-5.27-.9A21.17,21.17,0,0,0,783,96.86a27,27,0,0,0-8.46,6.78,48.28,48.28,0,0,0-7.79,12.72c-.23.58-.44,1.15-.64,1.71s-.48.91-.74,1.41q-1.87,3.48-4.14,7.14a38.91,38.91,0,0,1-4.68,6.18q-2.41,2.52-4.44,2.52a2.25,2.25,0,0,1-1.56-.66,3.49,3.49,0,0,1-.72-2.58,18.09,18.09,0,0,1,.36-3.24,35.8,35.8,0,0,1,2-6.42c1-2.6,2.26-5.34,3.66-8.22s2.76-5.56,4.08-8,2.86-5.32,4.62-8.52a4.26,4.26,0,0,0-1.2-.12,16.06,16.06,0,0,0-6.42,1.92,67.47,67.47,0,0,0-8,4.56,52.67,52.67,0,0,0-6.66,5,53.4,53.4,0,0,0-4.92,4.8q-2.52,2.76-4.92,5.88,3-6,6.54-12.9t7.2-13.68q3.66-6.78,7-12.66t6-10.08c.26-.42.52-.81.77-1.19q2.79.44,5.89.83.84.12,1.56.18t1.44.06a14.82,14.82,0,0,0,7.62-1.8q3.06-1.8,3.06-4.68a7.5,7.5,0,0,0-.24-1.62q-.24-1-.84-1a1.19,1.19,0,0,0-1.14.54,2.55,2.55,0,0,0-.3,1.26,2.85,2.85,0,0,1-2,2.76,13.94,13.94,0,0,1-5.34.84,48.28,48.28,0,0,1-7.4-.65,17.65,17.65,0,0,1,1.16-1.39,6.49,6.49,0,0,1-2.76-.12,10.58,10.58,0,0,0-2.52-.36,6.37,6.37,0,0,0-2.71.56c-.91-.2-1.83-.39-2.75-.62Q748,62.84,744,61.7t-6.66-2q.72-.84,2-2.1a25.06,25.06,0,0,1,2.52-2.22q1.26-1,1.74-.48a3.93,3.93,0,0,0,1,.24q1.44,0,1.44-1.56a2.63,2.63,0,0,0-.6-1.62,2.13,2.13,0,0,0-1.8-.78,3.12,3.12,0,0,0-1,.12h.12q1,0-.12,1a35.34,35.34,0,0,1-2.94,2.28q-1.86,1.32-3.6,2.52a11.13,11.13,0,0,0-2.1,1.68q-2.88-.72-7.32-2.28t-9.72-3.24q-5.28-1.68-11-3.06a76.87,76.87,0,0,0-11.4-1.86q-2.28-.24-3.24-.24h-2.52a45.93,45.93,0,0,0-16.32,2.64,34.92,34.92,0,0,0-11.64,7,29.14,29.14,0,0,0-7,9.6,26,26,0,0,0-2.28,10.5,21.34,21.34,0,0,0,3.36,11.58,19,19,0,0,0,10,7.74,19.67,19.67,0,0,0,6.48,1.08,21.1,21.1,0,0,0,9.12-2,20.57,20.57,0,0,0,7.38-5.88,17.35,17.35,0,0,0,3.66-9q0-1.68-1.2-1.68a1.64,1.64,0,0,0-1.2.72v.12a9.16,9.16,0,0,1-1.14,3.42,23.45,23.45,0,0,1-3.36,4.92,19.8,19.8,0,0,1-5.46,4.38,15.32,15.32,0,0,1-7.56,1.8,20.09,20.09,0,0,1-5.64-.84,11.86,11.86,0,0,1-6.42-4.62,12.87,12.87,0,0,1-2.1-7.26A21.31,21.31,0,0,1,660,72.56a31.52,31.52,0,0,1,7.44-9.3,36.51,36.51,0,0,1,11.88-6.78,40.73,40.73,0,0,1,16-2,138.09,138.09,0,0,1,18.54,2.1A169.33,169.33,0,0,1,732,61,35,35,0,0,0,728.68,67q-2,4.26-4.8,10.26T717.94,90q-3.18,6.72-6.72,13.5T704,116.12a71.63,71.63,0,0,1-7.44,10,59.53,59.53,0,0,1-10.32,9,51.2,51.2,0,0,1-13.44,6.54,60.69,60.69,0,0,1-17.28,2.7,41.62,41.62,0,0,1-12.9-1.86,40.06,40.06,0,0,1-12-5.94,30.62,30.62,0,0,1-8.82-10,27.76,27.76,0,0,1-3.36-13.8,26.19,26.19,0,0,1,.18-3q.18-1.56.42-3.12a19.71,19.71,0,0,1,2.46-7.14,21.32,21.32,0,0,1,3.72-4.62,30.39,30.39,0,0,1,3.72-2.94,12,12,0,0,0,2.46-2q.36-1.92-1.68-1.92a9.1,9.1,0,0,0-4.2,1.56,20.61,20.61,0,0,0-5.1,4.44,20.1,20.1,0,0,0-3.78,7,45,45,0,0,0-2.28,13.56,28.82,28.82,0,0,0,3.78,15,32.34,32.34,0,0,0,10.14,10.56,47.86,47.86,0,0,0,14.4,6.3,65.73,65.73,0,0,0,16.68,2.1,72.17,72.17,0,0,0,16.32-1.86,59.65,59.65,0,0,0,14.94-5.58,42.37,42.37,0,0,0,11.7-9.12,69.55,69.55,0,0,0,10.62-16.08A162.24,162.24,0,0,0,720,98.24Q723,89.12,726.52,80a102.27,102.27,0,0,1,8.88-17.76q1.92.84,9.42,3.48a65.94,65.94,0,0,0,7.35,2,45.1,45.1,0,0,0-2.49,4q-5.65,10.44-11.4,22t-11.22,22.86q-5.47,11.34-10.5,21.66a3,3,0,0,1,1.8-.66q1.08-.06,2.16-.18l2.7-.18q1-.06,1.86-1.62a89.61,89.61,0,0,1,9.48-15.48,90.61,90.61,0,0,1,7.44-8.4,30,30,0,0,1,5.16-4.2,7,7,0,0,1,3.24-1.2,1.27,1.27,0,0,1,1.44,1.44,7.17,7.17,0,0,1-1.2,3.24c-1.76,3-3.21,5.42-4.32,7.38a25.59,25.59,0,0,0-2.4,5.34,22.18,22.18,0,0,0-.84,3.42,16.78,16.78,0,0,0-.24,2.82q0,4.44,2.52,6.12a8.85,8.85,0,0,0,4.92,1.68,10.13,10.13,0,0,0,6.3-2.28,26.19,26.19,0,0,0,5.4-5.82q1.24-1.82,2.39-3.72-.06.7-.06,1.38a12.87,12.87,0,0,0,1.92,7.38,5.85,5.85,0,0,0,5,2.82,8.84,8.84,0,0,0,3.72-1,17,17,0,0,0,4.32-3.12,37.38,37.38,0,0,0,4.92-5.82q2.28-3.3,3.72-5.58a27.87,27.87,0,0,0-1.07,7,9.89,9.89,0,0,0,1.25,5.4,6.77,6.77,0,0,0,2.94,2.64,6.27,6.27,0,0,0,3,.6A9.12,9.12,0,0,0,799.3,135a32.93,32.93,0,0,0,5-5.88q1.25-1.83,2.38-3.71a16.24,16.24,0,0,0-.36,3.29,10.12,10.12,0,0,0,1.8,5.94q1.8,2.58,6.24,2.58a9.56,9.56,0,0,0,6.24-2.4,28.51,28.51,0,0,0,5.34-6.06,60.41,60.41,0,0,0,4.26-7.38q1.8-3.72,3-6.24a4.6,4.6,0,0,0,.36-1.44Q833.53,112.88,832.93,112.88Z"/><polygon class="cls-8" points="0 166.68 105.5 165.67 211 165.68 422.01 165.68 633.01 165.68 738.52 165.68 844.02 166.68 738.52 167.68 633.01 167.68 422.01 167.68 211 167.68 105.5 167.68 0 166.68"/><path class="cls-9" d="M165.46,188.36h-3.91v26.76h2.64a2,2,0,0,1,.49,0c.52.09.78.5.78,1.22H153.74v-1.27h3.91V191.49l-11.28,25.14h-1l-10.69-22.51v21h2.64a2,2,0,0,1,.48,0c.52.09.79.5.79,1.22h-9.77v-1.27h3.91V188.36h-3.91v-1.27h7L147.1,211l10.55-23.88h7.81Zm32.35,28v-1.27H201l-3.66-9.47h-10.2l-3.67,9.47h2.4a2,2,0,0,1,.48,0c.52.09.79.5.79,1.22h-8.7v-1.27h3.08l10.94-28h1.8l11.19,28h1.66a2,2,0,0,1,.48,0c.53.09.79.5.79,1.22Zm-5.62-24-4.54,11.82h9.13Zm49.3,21.44q-3.08,3-8.69,3a15.13,15.13,0,0,1-8.55-2.49,6.39,6.39,0,0,1-.1,1.41c-.13.46-.58.69-1.36.69V206.38h1.46q.83,9,8.3,9.13a8.66,8.66,0,0,0,3.47-.68,5.12,5.12,0,0,0,3.32-4.94,4.81,4.81,0,0,0-.64-2.44q-1.17-2-5.56-3.95-4.74-2.06-5.57-2.49-4.59-2.59-4.59-6.69a6.75,6.75,0,0,1,2-4.79c2-1.95,4.69-2.93,8.21-2.93a16,16,0,0,1,7.81,1.91,3.33,3.33,0,0,1,.1-.93c.13-.49.58-.73,1.36-.73v8.54H241a7.32,7.32,0,0,0-1.37-4.64,7.42,7.42,0,0,0-6.25-2.78,8.16,8.16,0,0,0-3,.54,4.56,4.56,0,0,0-3.18,4.54,4.71,4.71,0,0,0,.59,2.29q1.13,2,5.47,3.81,4.78,2.1,5.71,2.59c3.12,1.76,4.69,4.09,4.69,7A7.08,7.08,0,0,1,241.49,213.85Zm37.67,0q-3.07,3-8.69,3a15.15,15.15,0,0,1-8.55-2.49,6.39,6.39,0,0,1-.1,1.41c-.13.46-.58.69-1.36.69V206.38h1.46q.84,9,8.3,9.13a8.66,8.66,0,0,0,3.47-.68,5.12,5.12,0,0,0,3.32-4.94,4.9,4.9,0,0,0-.63-2.44c-.79-1.33-2.64-2.65-5.57-3.95-3.16-1.37-5-2.2-5.57-2.49q-4.59-2.59-4.59-6.69a6.72,6.72,0,0,1,2-4.79q2.92-2.92,8.2-2.93a15.93,15.93,0,0,1,7.81,1.91,3.33,3.33,0,0,1,.1-.93c.13-.49.59-.73,1.37-.73v8.54h-1.47a7.32,7.32,0,0,0-1.37-4.64A7.42,7.42,0,0,0,271,188a8.16,8.16,0,0,0-3,.54,4.56,4.56,0,0,0-3.18,4.54,4.71,4.71,0,0,0,.59,2.29q1.13,2,5.47,3.81,4.78,2.1,5.71,2.59,4.69,2.64,4.69,7A7.08,7.08,0,0,1,279.16,213.85Zm35.42,2.54v-1.27h3.18l-3.66-9.47H303.89l-3.66,9.47h2.39a2,2,0,0,1,.49,0c.52.09.78.5.78,1.22H295.2v-1.27h3.08l10.93-28H311l11.18,28h1.66a2,2,0,0,1,.49,0c.52.09.78.5.78,1.22Zm-5.61-24-4.54,11.82h9.13Zm60.08,10.79v1.27h-3.66v11.92l-4.15-1.52a3.46,3.46,0,0,1-.63.39,13.68,13.68,0,0,1-6.64,1.62,14.47,14.47,0,0,1-9.09-3.13q-5.56-4.4-5.56-12.21A14.42,14.42,0,0,1,354,186.6a14.61,14.61,0,0,1,6.54,1.52l4.25-.88.24,9.47h-1.27a18.37,18.37,0,0,0-2.64-6c-1.49-1.85-3.92-2.78-7.27-2.78a11.36,11.36,0,0,0-2.59.29q-7,1.86-7,13.48,0,13.57,9.77,13.67a5.11,5.11,0,0,0,.78,0,9.15,9.15,0,0,0,6.54-3.27v-7.62H356.9V203.2Zm36.7-7.32-.69-2.29c0-.13-.08-.3-.14-.49q-1.51-4.74-5-4.74h-7.81v12.21h10.06V202H392.08v13.14h7.81a4.72,4.72,0,0,0,1.56-.25q2.4-.83,3.61-5l.69-2.29h1l-.25,8.79H384v-1.27h3.91V188.36H384v-1.27h22.51l.25,8.79Zm43.12,20.51v-1.27h4.63V188.36h-2.63q-3.76.3-5.32,5.08l-.79,3.27H443.4l.24-9.62h24.12l.25,9.62h-1.37l-.78-3.27a.72.72,0,0,1-.05-.29q-1.32-4.78-5.27-4.79H457.7v26.76H461a2,2,0,0,1,.49,0c.52.09.78.5.78,1.22Zm34.3,0v-1.27h3.9V188.36h-3.9v-1.27h12v1.27h-3.86v12.21h15V188.36h-3.9v-1.27h12v1.27h-3.86v26.76h2.59a2,2,0,0,1,.49,0c.52.09.78.5.78,1.22h-12v-1.27h3.9V202h-15v13.14h2.59a2,2,0,0,1,.49,0c.52.09.78.5.78,1.22Zm68.33-20.51-.68-2.29a4.19,4.19,0,0,0-.15-.49c-1-3.16-2.68-4.74-5-4.74h-7.82v12.21h10.06V202H537.83v13.14h7.82a4.72,4.72,0,0,0,1.56-.25c1.59-.55,2.8-2.21,3.61-5l.68-2.29h1l-.24,8.79H529.73v-1.27h3.9V188.36h-3.9v-1.27h22.51l.24,8.79Zm16.88,20.51v-1.27h3.9V188.36h-3.9v-1.27h14.45a11.16,11.16,0,0,1,6.4,1.76,6.81,6.81,0,0,1,3.17,5.86,7.34,7.34,0,0,1-.64,3,8.77,8.77,0,0,1-6.34,4.83l7.86,12.6h1.85a2.54,2.54,0,0,1,.59,0c.39.09.59.5.59,1.22h-7.38L581.12,203h-4.64v12.16h3.86v1.27Zm8.1-28v13.18h5a6.07,6.07,0,0,0,3.86-1.31,6.62,6.62,0,0,0,2.44-5.47,7.1,7.1,0,0,0-.64-3q-1.6-3.42-5.81-3.42Zm50.71,28v-1.27h3.17l-3.66-9.47H616.5l-3.67,9.47h2.4a2.09,2.09,0,0,1,.49,0c.52.09.78.5.78,1.22h-8.69v-1.27h3.07l10.94-28h1.81l11.18,28h1.66a2.09,2.09,0,0,1,.49,0c.52.09.78.5.78,1.22Zm-5.62-24L617,204.23h9.13Zm29.62,24v-1.27h3.91V188.36h-3.91v-1.27h14.45a12.25,12.25,0,0,1,5.37,1.08,6.89,6.89,0,0,1,4.2,6.78,7.58,7.58,0,0,1-1,4q-2.6,4.53-10.6,4.54H659.3v11.67h3.61a2.09,2.09,0,0,1,.49,0c.52.09.78.5.78,1.22Zm8.11-28V202h4.49A11.45,11.45,0,0,0,665,202q5.67-.63,5.66-7a9.19,9.19,0,0,0-.39-2.73c-.84-2.61-2.72-3.91-5.61-3.91Zm36.59,28v-1.27h3.91v-10.4l-9.18-16.36h-2.69v-1.27h11v1.27h-3.71L703,202.57l7.42-14.21h-3.9v-1.27h8.69a2.72,2.72,0,0,1-.05.49c-.1.52-.5.78-1.22.78a3.53,3.53,0,0,0-2.64,1.37L704,204.23v10.89h2.64a2,2,0,0,1,.48,0c.53.09.79.5.79,1.22Z"/></g></g></svg>