<svg xmlns="http://www.w3.org/2000/svg" version="1.1" xmlns:xlink="http://www.w3.org/1999/xlink" xmlns:svgjs="http://svgjs.com/svgjs" width="512" height="512" x="0" y="0" viewBox="0 0 512.072 512.072" style="enable-background:new 0 0 512 512" xml:space="preserve" class=""><g><path d="M375.533 407.822c12.738-17.874 15.411-40.232 6.977-58.349a7.992 7.992 0 0 0-3.882-3.879c-27.316-12.937-61.708 1.372-76.928 26.72a73.21 73.21 0 0 0-5.593-7.675V312c0-25.646-9.988-49.753-28.119-67.872a95.706 95.706 0 0 0-19.881-15.282V200h16a8 8 0 0 0 8-8v-64a8 8 0 0 0-8-8h-32V32c0-17.645-14.355-32-32-32s-32 14.355-32 32v88h-32a8 8 0 0 0-8 8v64a8 8 0 0 0 8 8h16v28.845c-24.564 14.165-41.289 38.077-46.367 65.464-3.077 2.812-1.127 159.392-1.633 168.041 0 27.377 22.273 49.65 49.65 49.65h93.14c22.136.198 43.136-12.76 54.82-31.508 15.499 25.494 49.498 39.657 76.914 26.691a8.007 8.007 0 0 0 3.88-3.88c12.93-27.297-1.351-61.689-26.69-76.914 7.743-4.918 14.495-11.233 19.712-18.567zm-109.341 10.12c-23.166-8.507-40.486-34.891-31.893-58.971 27.503-10.296 59.308 15.594 62.132 44.039-6.581 1.353-12.989 6.208-16.038 12.382-4.727.309-9.476 1.162-14.201 2.55zM239.967 432h-119.86V312c0-2.693.139-5.361.4-8h159.206c.261 2.642.394 5.311.394 8v38.537c-17.323-10.959-38.204-12.901-55.307-4.94a8.007 8.007 0 0 0-3.879 3.883c-12.927 27.331 1.369 61.699 26.721 76.928a73.161 73.161 0 0 0-7.675 5.592zm56.095.047c-3.119-3.12-3.119-8.195 0-11.314a7.974 7.974 0 0 1 5.657-2.34c2.048 0 4.097.78 5.656 2.339 3.119 3.12 3.119 8.195 0 11.314-3.12 3.121-8.195 3.118-11.313.001zM184.107 32c0-8.822 7.178-16 16-16s16 7.178 16 16v88h-32zm-40 104h112v48h-112zm19.641 104.724a8 8 0 0 0 4.359-7.124V200h64v33.6a8 8 0 0 0 4.364 7.126 79.71 79.71 0 0 1 20.201 14.713c9.268 9.262 15.968 20.404 19.776 32.562H123.76c6.304-20.18 20.459-37.297 39.988-47.277zM120.107 462.35V448h105.757c-9.436 14.917-12.181 32.48-7.672 48h-64.434c-18.555 0-33.651-15.096-33.651-33.65zm153.753 24.829c-11.345 8.129-26.459 11.353-39.559 6.632-10.288-27.517 15.587-59.309 44.039-62.133 1.353 6.582 6.208 12.989 12.382 16.038.312 4.719 1.163 9.468 2.549 14.198-3.95 10.114-10.919 19.223-19.411 25.265zm88.648-32.937c8.15 11.29 11.339 26.666 6.63 39.564-27.524 10.248-59.194-15.434-62.132-44.038 8.632-1.683 16.407-9.459 18.091-18.09 14.672 1.896 29.037 10.778 37.411 22.564zm-25.265-36.3c-4.728-1.387-9.479-2.241-14.201-2.551-2.158-4.299-6.029-8.171-10.329-10.328-.311-4.725-1.162-9.475-2.549-14.199 8.506-23.16 34.898-40.5 58.972-31.894 8.655 22.958-8.642 50.822-31.893 58.972z" fill="#ffffff" data-original="#000000" class="" opacity="1"></path><path d="M374.279 202.91c-3.013-3.841-9.331-3.841-12.344 0-15.911 19.292-37.702 45.714-33.249 76.727C332.152 303.78 347.994 320 368.106 320s35.954-16.221 39.42-40.363c4.455-31.013-17.336-57.435-33.247-76.727zm17.411 74.453C389.367 293.544 380.11 304 368.107 304s-21.26-10.456-23.583-26.637c-2.961-20.621 10.771-40.691 23.583-56.71 12.812 16.019 26.544 36.089 23.583 56.71zM324.107 176c14.117 0 25.21-11.036 27.605-27.461 2.986-20.477-11.732-38.048-21.472-49.676-3.014-3.78-9.251-3.78-12.266 0-9.739 11.627-24.458 29.199-21.472 49.676C298.898 164.964 309.991 176 324.107 176zm0-59.345c6.854 8.834 13.271 19.298 11.772 29.575-.97 6.656-4.572 13.77-11.772 13.77-7.199 0-10.801-7.113-11.772-13.77-1.498-10.278 4.918-20.741 11.772-29.575z" fill="#ffffff" data-original="#000000" class="" opacity="1"></path></g></svg>