<svg xmlns="http://www.w3.org/2000/svg" version="1.1" xmlns:xlink="http://www.w3.org/1999/xlink" xmlns:svgjs="http://svgjs.com/svgjs" width="512" height="512" x="0" y="0" viewBox="0 0 512 512" style="enable-background:new 0 0 512 512" xml:space="preserve" class=""><g><path d="M512 387.992h-24.453c-5.685-2.753-11.961-4.212-18.463-4.212h-51.4v-29.443h12.674l10.979 14.971h32.737c20.638 0 37.427-16.789 37.427-37.427 0-9.992-3.893-19.39-10.965-26.461-7.071-7.071-16.469-10.966-26.462-10.966h-32.737l-10.979 14.971h-13.411c-1.45-7.271-5.011-13.958-10.379-19.325-7.168-7.168-16.689-11.115-26.811-11.115h-9.047l72.982-72.974-48.673-89.325a42.395 42.395 0 0 0-37.246-22.121h-29.655v-8.683l14.971-10.979V38.175c0-20.638-16.789-37.427-37.427-37.427s-37.427 16.789-37.427 37.427v36.728l14.971 10.979v8.683h-29.214a42.386 42.386 0 0 0-37.253 22.135l-48.626 89.312 72.981 72.973h-29.508l-30.762-8.351c-30.387-8.263-62.241 5.249-77.568 32.304H0v14.971h100.304v28.943H0v14.971h100.304v26.169H0v14.971h34.266v108.289h14.971V402.963h14.971v108.289h14.971V402.963h21.126v45.91h138.729v-45.91h14.971v108.289h14.971V402.963h26.947v108.289h14.971V402.963h27.945v108.289h14.971V402.963h13.973v3.274c0 15.134 12.313 27.446 27.446 27.446h24.452v77.568h14.971v-77.568h14.971v77.568h14.971v-77.568h46.908v-7.485c0-8.383-2.42-16.39-6.919-23.235H512v-14.971zm-287.938 45.911H115.275V312.204c11.543-22.385 37.18-33.774 61.625-27.123l32.691 8.875h14.472v139.947zm201.129-230.562-88.625 88.616a7.436 7.436 0 0 1-5.293 2.192 7.434 7.434 0 0 1-5.292-2.193 7.435 7.435 0 0 1-2.191-5.291 7.43 7.43 0 0 1 2.192-5.292l80.949-80.95-8.922-14.768 13.422-7.564 13.76 25.25zm-71.382 29.033v-17.722l11.874-53.554 22.372 37.032-34.246 34.244zM283.207 38.175c0-12.383 10.074-22.456 22.456-22.456s22.456 10.073 22.456 22.456v29.143l-14.971 10.979v31.239h10.22v6.487c0 9.63-7.836 17.466-17.466 17.466s-17.466-7.836-17.466-17.466v-6.487h9.741V78.297l-14.971-10.979V38.175zm-96.593 165.163 13.751-25.256 13.293 7.493-8.726 14.906 80.891 80.891a7.434 7.434 0 0 1 2.192 5.292 7.437 7.437 0 0 1-2.192 5.292 7.436 7.436 0 0 1-5.291 2.192 7.442 7.442 0 0 1-5.293-2.192l-88.625-88.618zm37.078-5.269 21.188-36.195 9.124 52.602v13.906l-30.312-30.313zm144.09 189.923H239.033v-26.169h128.749v26.169zm27.446 30.72c-6.88 0-12.476-5.596-12.476-12.476v-59.384H239.033v-52.897h17.034l8.588 8.587a22.307 22.307 0 0 0 15.877 6.576 22.305 22.305 0 0 0 15.876-6.576c4.242-4.242 6.577-9.88 6.577-15.878s-2.335-11.636-6.576-15.878l-27.434-27.434v-30.165l-12.957-74.708h-14.789l-20.007 34.176-13.698-7.722 22.363-41.075a27.43 27.43 0 0 1 24.105-14.323h19.474v6.487c0 17.885 14.551 32.437 32.437 32.437s32.437-14.552 32.437-32.437v-6.487h19.435a27.43 27.43 0 0 1 24.1 14.313l22.393 41.095-14.002 7.892-20.756-34.355h-14.146l-16.526 74.533v34.332l-23.442 23.442c-4.241 4.242-6.576 9.88-6.576 15.878s2.335 11.636 6.576 15.877a22.31 22.31 0 0 0 15.877 6.577h.001a22.304 22.304 0 0 0 15.876-6.576l8.588-8.587h24.02c6.123 0 11.885 2.39 16.225 6.731 4.341 4.34 6.73 10.101 6.73 16.224v7.485h35.232l10.979-14.971h25.15c5.994 0 11.632 2.337 15.875 6.58 4.244 4.244 6.581 9.882 6.581 15.876 0 12.383-10.074 22.456-22.456 22.456h-25.15l-10.979-14.971h-35.232v59.384h66.37c7.333 0 14.225 2.854 19.408 8.037 3.369 3.368 5.754 7.459 7.01 11.924H395.228z" fill="#ffffff" data-original="#000000" class="" opacity="1"></path><path d="M130.246 375.517h14.971v14.971h-14.971zM130.246 405.458h14.971v14.971h-14.971zM130.246 345.575h14.971v14.971h-14.971zM130.246 315.634h14.971v14.971h-14.971zM194.121 315.634h14.971v14.971h-14.971zM194.121 375.517h14.971v14.971h-14.971zM194.121 405.458h14.971v14.971h-14.971zM194.121 345.575h14.971v14.971h-14.971zM295.922 161.435h14.971v14.971h-14.971zM295.922 197.115h14.971v14.971h-14.971zM295.922 232.795h14.971v14.971h-14.971z" fill="#ffffff" data-original="#000000" class="" opacity="1"></path></g></svg>